<?xml version="1.0" standalone="no"?>
<!DOCTYPE svg PUBLIC "-//W3C//DTD SVG 1.1//EN" "http://www.w3.org/Graphics/SVG/1.1/DTD/svg11.dtd" >
<svg xmlns="http://www.w3.org/2000/svg">
<metadata>
This is a custom SVG webfont generated by Font Squirrel.
Copyright   : DaltonMaag Ltd Copyright c Dalton Maag Ltd 19992007 All rights reserved These fonts are for use by ThyssenKrupp and in conjunction with ThyssenKrupp related material only
Designer    : Dalton Maag Ltd
Foundry     : DaltonMaag Ltd
Foundry URL : httpwwwdaltonmaagcom
</metadata>
<defs>
<font id="TKTypeRegular" horiz-adv-x="1090" >
<font-face units-per-em="2048" ascent="1638" descent="-410" />
<missing-glyph horiz-adv-x="528" />
<glyph unicode=" "  horiz-adv-x="528" />
<glyph unicode="&#x09;" horiz-adv-x="528" />
<glyph unicode="&#xa0;" horiz-adv-x="528" />
<glyph unicode="!" horiz-adv-x="586" d="M199 0v217h188v-217h-188zM207 1475h170l-17 -1090h-137z" />
<glyph unicode="&#x22;" horiz-adv-x="766" d="M121 1358v117h194v-117l-43 -430h-108zM453 1358v117h194v-117l-43 -430h-108z" />
<glyph unicode="#" horiz-adv-x="934" d="M12 416v106h185l79 381h-163v107h184l86 415h117l-86 -415h235l86 415h117l-86 -415h166v-107h-187l-79 -381h165v-106h-186l-86 -416h-117l86 416h-235l-86 -416h-117l86 416h-164zM313 522h236l80 381h-236z" />
<glyph unicode="$" d="M53 262l131 66q35 -80 81 -132t96 -72.5t104 -25.5v574q-30 9 -43 16q-110 45 -174 90t-96 90q-35 47 -51.5 100.5t-16.5 110.5q0 48 8 96.5t32.5 96t61.5 86.5q46 46 112 77t167 38v124h110v-122q143 -8 237.5 -71.5t150.5 -180.5l-129 -68q-33 73 -79.5 116t-92 58 t-87.5 21v-572q123 -47 176 -71t104 -65t79 -87q31 -58 40 -104.5t9 -88.5q0 -110 -51 -201t-147 -137.5t-210 -54.5v-207h-110v207q-102 8 -175.5 40.5t-127.5 86.5q-40 41 -64.5 79.5t-44.5 86.5zM229 1085q0 -44 15 -81t44.5 -69t73.5 -60t103 -54v529 q-59 -5 -104.5 -23.5t-77.5 -60.5t-43 -84.5t-11 -96.5zM575 98q53 6 101 24t90 56q29 29 45 72t16 102q0 84 -37 137.5t-112 94.5q-8 4 -103 43v-529z" />
<glyph unicode="%" horiz-adv-x="1628" d="M55 1044q0 65 4 119.5t15 99.5t30.5 81t51.5 65q35 32 84.5 49t117.5 17q69 0 118.5 -17t84.5 -49q70 -68 85.5 -161t15.5 -204q0 -104 -10.5 -175.5t-35 -116t-55.5 -72.5q-35 -32 -84.5 -49t-118.5 -17q-68 0 -117.5 17t-84.5 49q-32 28 -51.5 64.5t-30.5 81.5t-15 99 t-4 119zM186 1044q0 -110 11 -178t26.5 -90.5t30.5 -34.5q22 -18 48.5 -25t55.5 -7q38 0 61 8.5t42 23.5q45 38 57 124t12 179q0 117 -10 177.5t-26 87.5t-31 39q-22 18 -49 25t-56 7q-38 0 -59 -7t-43 -25q-48 -42 -59 -119t-11 -185zM516 -33l475 1508h121l-475 -1508 h-121zM967 397q0 103 10 176.5t34 116.5t56 72q35 32 85 48.5t118 16.5t117.5 -16.5t85.5 -48.5q68 -66 84 -160.5t16 -204.5q0 -104 -10 -173.5t-34.5 -116t-55.5 -74.5q-36 -32 -85.5 -49t-117.5 -17t-118 17t-85 49q-46 39 -68 100t-27 130t-5 134zM1098 397 q0 -110 10.5 -176t26 -90t30.5 -37q22 -17 49 -25t56 -8q37 0 60.5 9t41.5 24q44 37 57 117t13 186q0 117 -10 177.5t-26.5 86.5t-31.5 39q-21 19 -48 26t-56 7q-65 0 -103 -33q-47 -40 -58 -120t-11 -183z" />
<glyph unicode="&#x26;" horiz-adv-x="1276" d="M111 383q0 85 32 161.5t95 139.5q34 34 75.5 68.5t98.5 72.5q-32 46 -58 87t-44 81t-28 79.5t-10 82.5q0 70 22 127t62.5 98t98 63.5t129.5 22.5q109 0 182 -42t101 -107.5t28 -132.5q0 -59 -17 -108.5t-51.5 -96t-87.5 -92t-125 -94.5q55 -81 301 -394q30 70 48.5 147 t23.5 132l143 -39q-15 -87 -46.5 -185t-71.5 -175q42 -49 78 -84q21 -20 43 -35.5t47 -24.5q34 -14 88 -14v-133q-15 -1 -31 -1q-28 0 -60 3q-49 6 -87 23.5t-75 48.5t-85 83q-66 -76 -142 -116.5t-139.5 -51t-111.5 -10.5q-104 0 -180.5 32t-129.5 83q-116 114 -116 301z M270 369q0 -50 19 -100.5t59 -88.5q35 -35 87.5 -56.5t121.5 -21.5q51 0 104 19t98 55.5t79 81.5q-87 107 -346 457q-39 -25 -68.5 -49.5t-52.5 -47.5q-60 -62 -80.5 -120t-20.5 -129zM416 1169q0 -69 31 -131.5t88 -134.5q91 61 140.5 119.5t61 101t11.5 74.5q0 52 -28 89 t-66.5 50t-69.5 13q-35 0 -65.5 -10.5t-53 -33t-36 -56.5t-13.5 -81z" />
<glyph unicode="'" horiz-adv-x="442" d="M125 1358v117h194v-117l-43 -430h-108z" />
<glyph unicode="(" horiz-adv-x="600" d="M119 559q0 115 17.5 232.5t55 237.5t99 240t151.5 238l119 -65q-65 -96 -116.5 -196.5t-86 -208t-53 -226.5t-18.5 -252q0 -194 41 -366.5t104.5 -297t128.5 -223.5l-119 -65q-90 119 -151.5 239.5t-99 241.5t-55 238.5t-17.5 232.5z" />
<glyph unicode=")" horiz-adv-x="600" d="M39 -328q65 99 128.5 223.5t104.5 297t41 366.5q0 133 -18.5 252t-53 226.5t-86 208t-116.5 196.5l119 65q90 -118 151.5 -238t99 -240t55 -237.5t17.5 -232.5t-17.5 -232.5t-55 -238.5t-99 -241.5t-151.5 -239.5z" />
<glyph unicode="*" horiz-adv-x="854" d="M88 1171l51 146l64 -21l178 -92l-35 203v68h156v-68l-25 -203l178 90l64 21l47 -144l-64 -22l-196 -37l147 -141l39 -56l-125 -88l-39 56l-100 174l-90 -174l-39 -56l-125 88l39 56l137 143l-198 35z" />
<glyph unicode="+" d="M96 680v119h389v387h119v-387h389v-119h-389v-389h-119v389h-389z" />
<glyph unicode="," horiz-adv-x="586" d="M178 -219q44 11 66 33q24 24 32.5 60t8.5 85v41h-88v229h192v-270q0 -152 -72 -219q-26 -26 -60.5 -40t-78.5 -17v98z" />
<glyph unicode="-" horiz-adv-x="698" d="M80 453v153h538v-153h-538z" />
<glyph unicode="." horiz-adv-x="586" d="M197 0v231h192v-231h-192z" />
<glyph unicode="/" horiz-adv-x="621" d="M18 0l455 1475h129l-455 -1475h-129z" />
<glyph unicode="0" d="M90 721q0 179 16 308.5t51.5 209t84.5 127.5q51 53 125.5 81t177.5 28t177.5 -28t125.5 -81q67 -68 101 -177.5t42 -234.5t8 -233q0 -188 -15.5 -310t-51.5 -204.5t-84 -130.5q-51 -53 -125.5 -81t-177.5 -28t-177.5 28t-125.5 81q-68 67 -102.5 178.5t-42 235 t-7.5 231.5zM254 721q0 -184 14.5 -301.5t41.5 -176t59 -89.5q34 -32 77 -47t99 -15q55 0 98.5 15t77.5 47q46 46 73 133.5t34.5 201.5t7.5 232q0 183 -14.5 299t-42.5 176.5t-58 91.5q-34 32 -77.5 47t-98.5 15q-56 0 -99 -15t-77 -47q-46 -45 -73 -132t-34.5 -202 t-7.5 -233z" />
<glyph unicode="1" d="M233 1249l332 209h113v-1329h213v-129h-594v129h227v1145l-221 -137z" />
<glyph unicode="2" d="M106 0v106l414 469q127 143 186.5 248.5t72 164.5t12.5 122q0 114 -64 180t-190 66q-69 0 -115 -18.5t-80 -55.5q-70 -76 -88 -221l-143 33q14 86 39.5 151.5t76.5 116.5q62 63 145 87t185 24q109 0 184.5 -30.5t123 -81.5t68.5 -117.5t21 -137.5q0 -100 -36.5 -198.5 t-116 -204t-180.5 -216.5l-328 -358h661v-129h-848z" />
<glyph unicode="3" d="M74 338l141 14q26 -135 94.5 -197.5t190.5 -62.5q54 0 101.5 14.5t78.5 43.5q65 60 84.5 141.5t19.5 185.5q0 82 -20 146.5t-62 109.5q-41 41 -101.5 54.5t-94.5 13.5q-83 0 -158 -31l-61 80l450 463h-610v129h770v-129l-391 -404q21 6 74 6q81 0 148 -30t103 -66 q44 -48 69 -101.5t34.5 -122t9.5 -132.5q0 -90 -18 -168t-52.5 -135t-74.5 -94q-54 -50 -123.5 -74.5t-159.5 -24.5q-111 0 -189 26.5t-130.5 75t-81.5 117t-41 152.5z" />
<glyph unicode="4" d="M102 315v119l596 1024h138v-1016h147v-127h-147v-315h-142v315h-592zM244 442h450v775z" />
<glyph unicode="5" d="M125 328l141 14q22 -128 91.5 -189t181.5 -61q54 0 97.5 13t74.5 42q65 60 82.5 146.5t17.5 189.5q0 82 -18 146.5t-60 109.5q-37 39 -84.5 54.5t-109.5 15.5q-75 0 -127 -22t-84.5 -58t-55.5 -78l-112 15l47 776h684v-129h-557l-27 -475q80 63 143 77.5t140 14.5 q90 0 155 -23t111 -71q75 -82 95 -174.5t20 -192.5q0 -96 -17.5 -174.5t-51 -136.5t-73.5 -95q-54 -49 -119 -72.5t-155 -23.5q-102 0 -178 26t-128.5 73.5t-83 114t-40.5 147.5z" />
<glyph unicode="6" d="M115 715q0 239 34 404t121 253q53 51 126.5 77t172.5 26q198 0 291 -95q75 -75 90 -188l-139 -33q-12 42 -26.5 75.5t-39.5 57.5q-60 62 -182 62q-112 0 -178 -66q-68 -66 -94.5 -200t-26.5 -345q42 58 83 94.5t105 59.5t140 23q62 0 113.5 -10t95 -34t71.5 -53 q68 -71 93.5 -170.5t25.5 -201.5q0 -133 -32 -225.5t-95 -155.5q-54 -53 -131 -78t-174 -25q-91 0 -162.5 23t-124.5 76q-59 56 -95.5 150.5t-49 220t-12.5 278.5zM287 465q0 -183 66.5 -280t213.5 -97q107 0 167.5 50t80 136t19.5 175q0 146 -39.5 230.5t-98.5 108 t-116 23.5q-76 0 -131.5 -29t-91.5 -77t-53 -110.5t-17 -129.5z" />
<glyph unicode="7" d="M135 1114v328h813v-129l-475 -1313h-158l482 1305h-525v-191h-137z" />
<glyph unicode="8" d="M94 389q0 65 12 126.5t42 112.5t80.5 88t127.5 54q-61 17 -101.5 51t-64.5 79.5t-33.5 90.5t-10.5 70.5t-1 44.5q0 74 21 141t68.5 117.5t123.5 80.5t187 30q155 0 249.5 -61.5t122 -147.5t27.5 -160q0 -50 -10 -102.5t-34.5 -101.5t-67.5 -82.5t-99 -49.5 q109 -25 169.5 -91.5t76.5 -145.5t16 -144q0 -118 -35 -199t-95.5 -130.5t-143 -71t-176.5 -21.5q-95 0 -177 21.5t-143 71t-96 130.5t-35 199zM248 397q0 -98 23.5 -158t64 -94t94.5 -45.5t115 -11.5q107 0 172.5 32t95 105.5t29.5 171.5q0 118 -44.5 188t-113.5 91.5 t-139 21.5q-71 0 -126 -17t-93 -53.5t-58 -93.5t-20 -137zM293 1100q0 -143 64 -211t188 -68t188 68t64 211q0 135 -67 197.5t-185 62.5q-119 0 -185.5 -62.5t-66.5 -197.5z" />
<glyph unicode="9" d="M98 993q0 133 32 228.5t95 158.5q54 53 131 74t174 21q91 0 163 -22t124 -75q59 -60 93.5 -144t49.5 -216t15 -285q0 -188 -19.5 -326t-56 -216t-80.5 -121q-105 -103 -299 -103q-99 0 -171.5 24t-119.5 70q-37 38 -59.5 85.5t-30.5 103.5l140 33q12 -42 26 -75.5 t39 -57.5q62 -62 182 -62q113 0 179 66q68 66 94 197t26 329q-44 -60 -85.5 -96t-105 -58t-136.5 -22q-38 0 -76 4.5t-74 16t-69.5 31t-61.5 48.5q-54 56 -86.5 152.5t-32.5 236.5zM256 995q0 -104 18.5 -175t51.5 -114.5t80 -63t104 -19.5q76 0 131.5 28.5t91.5 76.5 t53 110t17 129q0 196 -66.5 291.5t-214.5 95.5q-73 0 -123.5 -21.5t-82 -66t-46 -112t-14.5 -159.5z" />
<glyph unicode=":" horiz-adv-x="586" d="M197 0v231h192v-231h-192zM197 809v231h192v-231h-192z" />
<glyph unicode=";" horiz-adv-x="586" d="M178 -219q44 11 66 33q24 24 32.5 60t8.5 85v41h-88v229h192v-270q0 -152 -72 -219q-26 -26 -60.5 -40t-78.5 -17v98zM197 809v231h192v-231h-192z" />
<glyph unicode="&#x3c;" d="M158 668v139l723 403l51 -108l-668 -365l668 -364l-49 -109z" />
<glyph unicode="=" d="M96 473v119h897v-119h-897zM96 885v119h897v-119h-897z" />
<glyph unicode="&#x3e;" d="M158 373l667 364l-667 365l49 108l725 -403v-139l-723 -404z" />
<glyph unicode="?" horiz-adv-x="971" d="M82 1116q11 94 42 152.5t69 95.5q34 34 82.5 60.5t105.5 38.5t111 12q196 0 294 -103q42 -43 64 -100t22 -129t-24 -136t-55 -101t-58 -64l-77 -75q-39 -37 -71 -82t-52.5 -102t-20.5 -134v-64h-149v57q0 133 45.5 228.5t101.5 151.5l96 93q38 38 61.5 74t34.5 76.5 t11 81.5q0 89 -51 145q-28 29 -68.5 46.5t-103.5 17.5q-65 0 -111 -18t-80 -52q-32 -32 -51 -80t-27 -110zM344 0v217h188v-217h-188z" />
<glyph unicode="@" horiz-adv-x="1759" d="M119 627q0 82 16.5 179t53.5 194.5t97.5 189t149 162t207 113t272.5 42.5q168 0 302.5 -54.5t228.5 -147t144 -215.5t50 -261q0 -154 -43.5 -280t-115 -216t-163.5 -139t-190 -49q-46 0 -74.5 12t-44.5 30.5t-22 40t-6 40.5q0 37 12 78q-18 -38 -46 -74.5t-65 -64.5 t-81.5 -45t-95.5 -17q-50 0 -93.5 16.5t-79.5 51.5q-40 40 -61.5 102t-21.5 152q0 128 22 240q28 137 71.5 232t100.5 157q48 51 109.5 75.5t132.5 24.5q78 0 130.5 -27.5t77 -67.5t37.5 -75l29 145h129l-168 -798q-8 -39 -8 -66q0 -26 16 -35.5t50 -9.5q71 0 169.5 86.5 t137.5 215t39 249.5q0 119 -39.5 225t-115.5 186t-188 126.5t-257 46.5q-137 0 -241.5 -39t-181 -103t-127.5 -146.5t-81.5 -169t-43.5 -170.5t-13 -151q0 -90 14.5 -167.5t40.5 -143.5t62.5 -121t80.5 -100q73 -73 167.5 -120t178 -63t142.5 -16q125 0 241 36.5t197.5 94 t132.5 119.5l88 -78q-32 -34 -61 -62t-59.5 -52t-64.5 -44.5t-75 -39.5q-179 -84 -399 -84q-168 0 -310.5 55t-249.5 160q-114 111 -178.5 270t-64.5 365zM590 492q0 -76 14 -121t39 -68q22 -22 50.5 -30.5t60.5 -8.5q75 0 142 74.5t108 184t59 210.5l6 35q8 58 8 84 q0 70 -26 123.5t-69.5 76.5t-86.5 23t-83.5 -17t-68.5 -46q-45 -45 -79 -127t-56 -207q-18 -111 -18 -186z" />
<glyph unicode="A" horiz-adv-x="1188" d="M18 0l476 1475h165l510 -1475h-170l-141 422h-553l-133 -422h-154zM346 553h467l-240 717z" />
<glyph unicode="B" horiz-adv-x="1200" d="M170 0v1475h500q131 0 224.5 -53t131 -140.5t37.5 -183.5q0 -116 -49.5 -202t-167.5 -136q106 -31 165 -91.5t75 -135.5t16 -142q0 -81 -24.5 -152t-75 -124t-128.5 -84t-186 -31h-518zM324 127h307q83 0 140.5 18t93 54t51.5 90.5t16 128.5q0 103 -45 166t-117 83.5 t-145 20.5h-301v-561zM324 815h319q80 0 143.5 41.5t89 107t25.5 130.5q0 88 -34 147t-98 83t-136 24h-309v-533z" />
<glyph unicode="C" horiz-adv-x="1167" d="M119 737q0 209 35.5 355.5t104.5 238.5t170 134t233 42q176 0 281.5 -76t150.5 -214l-154 -58q-37 116 -105 165.5t-173 49.5q-92 0 -161 -34t-115 -109.5t-69.5 -197t-23.5 -296.5q0 -159 19.5 -278.5t63.5 -199t114 -119.5t172 -40q76 0 138.5 29t100.5 86.5t57 126.5 l146 -55q-21 -72 -56 -131t-88.5 -101t-126 -65t-167.5 -23q-152 0 -256 51.5t-169 150t-93.5 242t-28.5 326.5z" />
<glyph unicode="D" horiz-adv-x="1253" d="M170 0v1475h334q172 0 287.5 -42t189.5 -118q84 -88 119 -220.5t35 -310.5q0 -158 -20.5 -284.5t-65.5 -215.5t-103 -145q-66 -63 -163.5 -101t-237.5 -38h-375zM328 131h153q84 0 148 11.5t108 36t76 54.5q53 53 88 138.5t47.5 194t12.5 218.5q0 158 -28 266.5 t-91 176.5q-59 61 -145.5 88.5t-215.5 27.5h-153v-1212z" />
<glyph unicode="E" horiz-adv-x="1047" d="M170 0v1475h780v-138h-622v-510h594v-137h-594v-553h639v-137h-797z" />
<glyph unicode="F" horiz-adv-x="987" d="M170 0v1475h752v-138h-594v-489h565v-137h-565v-711h-158z" />
<glyph unicode="G" horiz-adv-x="1221" d="M119 737q0 131 15 234.5t38 175.5q37 125 109 209t171.5 117.5t206.5 33.5q177 0 282.5 -76t150.5 -214l-154 -58q-19 51 -41 89.5t-51 64.5q-37 32 -82.5 46.5t-104.5 14.5q-80 0 -143 -27.5t-101 -72.5t-57 -96q-47 -131 -56 -221.5t-9 -215.5q0 -126 9 -215.5t23 -138 t31 -90.5q41 -102 119 -149.5t180 -47.5q92 0 162.5 35.5t101.5 103t31 148.5v178h-297v137h453v-702h-137l-2 100q-57 -62 -135.5 -97.5t-180.5 -35.5q-106 0 -184.5 26.5t-136 74t-96.5 113.5t-64 145q-28 88 -39.5 191t-11.5 220z" />
<glyph unicode="H" horiz-adv-x="1274" d="M170 0v1475h158v-607h618v607h158v-1475h-158v729h-618v-729h-158z" />
<glyph unicode="I" horiz-adv-x="498" d="M170 0v1475h158v-1475h-158z" />
<glyph unicode="J" horiz-adv-x="995" d="M35 233l147 58q15 -55 39 -91.5t54.5 -58.5t68.5 -31.5t82 -9.5q54 0 97 15.5t69 40.5q57 52 70.5 155t13.5 217v947h158v-938q0 -148 -9.5 -231t-36 -140t-63.5 -94q-50 -50 -119.5 -77.5t-171.5 -27.5q-79 0 -146.5 17.5t-102.5 41.5t-58 48q-29 29 -52 68t-40 91z" />
<glyph unicode="K" horiz-adv-x="1155" d="M170 0v1475h158v-762l602 762h170l-445 -564l492 -911h-186l-414 776l-219 -280v-496h-158z" />
<glyph unicode="L" horiz-adv-x="981" d="M170 0v1475h158v-1338h618v-137h-776z" />
<glyph unicode="M" horiz-adv-x="1477" d="M170 0v1475h201l368 -887l377 887h191v-1475h-150v1255l-348 -845h-147l-343 841v-1251h-149z" />
<glyph unicode="N" horiz-adv-x="1262" d="M170 0v1475h188l582 -1227v1227h152v-1475h-177l-593 1247v-1247h-152z" />
<glyph unicode="O" horiz-adv-x="1331" d="M119 737q0 72 6 154.5t18 145t27 110.5q38 127 111.5 210.5t174.5 116.5t210 33q104 0 186 -26.5t143 -74.5t102 -114t64 -145q25 -88 38 -200t13 -210q0 -109 -13 -218t-38 -191q-39 -128 -113.5 -211t-176.5 -116.5t-205 -33.5q-109 0 -191.5 26.5t-142.5 74.5 t-99.5 114.5t-62.5 145.5q-26 88 -38.5 199.5t-12.5 209.5zM293 737q0 -166 14 -255t49 -183q20 -52 52 -89.5t72.5 -62t87.5 -36t98 -11.5q78 0 145 27.5t106 73.5t58 98q38 106 50.5 210t12.5 228q0 164 -14.5 253.5t-48.5 185.5q-28 74 -84.5 120.5t-115.5 62t-109 15.5 q-81 0 -145.5 -26.5t-105 -73.5t-59.5 -98q-45 -121 -54 -216t-9 -223z" />
<glyph unicode="P" horiz-adv-x="1110" d="M170 0v1475h440q156 0 253.5 -69t130 -171t32.5 -195q0 -98 -25.5 -178t-80 -137.5t-141.5 -89t-210 -31.5h-243v-604h-156zM326 731h245q137 0 211 77t74 234q0 119 -41.5 187.5t-113.5 93.5t-156 25h-219v-617z" />
<glyph unicode="Q" horiz-adv-x="1331" d="M119 737q0 72 6 154.5t18 145t27 110.5q38 127 111.5 210.5t174.5 116.5t210 33q104 0 186 -26.5t143 -74.5t102 -114t64 -145q25 -88 38 -200t13 -210q0 -109 -13 -218t-38 -191q-17 -54 -41.5 -103.5t-58.5 -89.5l166 -145l-92 -107l-181 158q-57 -35 -128 -54.5 t-160 -19.5q-109 0 -191.5 26.5t-142.5 74.5t-99.5 114.5t-62.5 145.5q-26 88 -38.5 199.5t-12.5 209.5zM293 737q0 -166 14 -255t49 -183q20 -52 52 -89.5t72.5 -62t87.5 -36t98 -11.5q48 0 91.5 10.5t84.5 30.5l-156 138l92 106l168 -147q19 34 29 61q38 106 50.5 210 t12.5 228q0 164 -14.5 253.5t-48.5 185.5q-28 74 -84.5 120.5t-115.5 62t-109 15.5q-81 0 -145.5 -26.5t-105 -73.5t-59.5 -98q-45 -121 -54 -216t-9 -223z" />
<glyph unicode="R" horiz-adv-x="1145" d="M170 0v1475h465q108 0 186.5 -32t129.5 -89t75.5 -135.5t24.5 -171.5q0 -96 -27 -179t-82.5 -136t-128.5 -81l291 -651h-184l-265 618q-14 -2 -29 -2h-32h-268v-616h-156zM326 743h270q135 0 210 74.5t75 231.5q0 114 -41 182.5t-114 92.5t-157 24h-243v-605z" />
<glyph unicode="S" horiz-adv-x="1157" d="M80 268l143 68q24 -50 55 -93t72 -75t94.5 -50t122.5 -18q71 0 139 19.5t117 66.5q31 29 48.5 71.5t17.5 100.5q0 66 -24.5 114t-60 73.5t-67.5 40.5q-19 9 -58 25l-82 31l-78 30l-50 18q-116 45 -185 90.5t-104 91.5q-35 47 -52 106t-17 118q0 36 3.5 69t18.5 81 t55.5 102.5t103 91t139 52t159.5 15.5q167 0 275.5 -65t170.5 -193l-139 -71q-41 82 -96 128t-112.5 59t-108.5 13q-81 0 -145.5 -22t-106.5 -72q-34 -41 -45 -84.5t-11 -97.5q0 -57 28 -102t79 -81.5t121.5 -66.5t154.5 -57q128 -43 205 -85.5t105.5 -75t42.5 -54.5 q28 -49 39.5 -101t11.5 -106q0 -119 -60.5 -217t-174 -143.5t-249.5 -45.5q-101 0 -180 21.5t-139.5 61.5t-103.5 95t-72 123z" />
<glyph unicode="T" horiz-adv-x="1036" d="M25 1337v138h987v-138h-414v-1337h-158v1337h-415z" />
<glyph unicode="U" horiz-adv-x="1237" d="M152 451v1024h157v-1024q0 -183 78.5 -265t228.5 -82q154 0 233 82t79 265v1024h157v-1024q0 -136 -32.5 -228.5t-93 -149.5t-147.5 -81.5t-196 -24.5q-107 0 -193 24.5t-146 81.5t-92.5 149.5t-32.5 228.5z" />
<glyph unicode="V" horiz-adv-x="1106" d="M18 1475h170l365 -1262l379 1262h155l-452 -1475h-166z" />
<glyph unicode="W" horiz-adv-x="1583" d="M18 1475h170l250 -1252l281 1252h160l266 -1252l264 1252h156l-340 -1475h-166l-268 1182l-269 -1182h-166z" />
<glyph unicode="X" horiz-adv-x="1044" d="M18 0l422 782l-368 693h170l282 -539l287 539h160l-367 -682l422 -793h-170l-338 641l-340 -641h-160z" />
<glyph unicode="Y" horiz-adv-x="1053" d="M18 1475h162l344 -736l355 736h155l-440 -875v-600h-158v600z" />
<glyph unicode="Z" horiz-adv-x="952" d="M29 0v127l704 1210h-680v138h846v-129l-702 -1209h727v-137h-895z" />
<glyph unicode="[" horiz-adv-x="604" d="M152 -393v1868h403v-127h-254v-1614h254v-127h-403z" />
<glyph unicode="\" horiz-adv-x="621" d="M18 1475h129l455 -1475h-129z" />
<glyph unicode="]" horiz-adv-x="604" d="M49 -266h254v1614h-254v127h404v-1868h-404v127z" />
<glyph unicode="^" horiz-adv-x="979" d="M45 889l449 618l438 -622l-92 -64l-346 490l-361 -492z" />
<glyph unicode="_" horiz-adv-x="1024" d="M0 -154h1024v-108h-1024v108z" />
<glyph unicode="`" horiz-adv-x="698" d="M137 1460h217l105 -260h-107z" />
<glyph unicode="a" horiz-adv-x="1016" d="M88 295q0 59 15.5 107t41.5 83q47 63 127 93t195 30h264v137q0 85 -40 134t-91.5 62t-95.5 13q-96 0 -154 -37t-90 -108l-127 43q40 106 132 163.5t245 57.5q100 0 173.5 -25.5t123.5 -80.5q42 -45 59 -98t17 -128v-741h-150v106q-51 -53 -105 -83.5t-109 -40t-103 -9.5 q-39 0 -77.5 7t-72.5 21t-62.5 34.5t-47.5 46.5q-31 43 -49.5 95t-18.5 118zM238 299q0 -45 11 -81t36 -62q57 -60 178 -60q78 0 144 38t96 90.5t30 101.5v174h-221q-74 0 -126 -13.5t-85 -39.5t-48 -63t-15 -85z" />
<glyph unicode="b" horiz-adv-x="1059" d="M135 0v1475h150v-543q58 70 132 105.5t181 35.5q103 0 177 -40t120 -130q32 -65 49 -157.5t17 -217.5q0 -106 -12 -186.5t-34 -142.5q-34 -96 -92 -151t-119.5 -68t-109.5 -13q-102 0 -180 41.5t-129 126.5v-135h-150zM285 395q0 -66 19 -121t53.5 -94.5t83.5 -61.5 t108 -22q103 0 159 55.5t76 149.5q7 31 14 97t7 130q0 66 -5.5 123.5t-19.5 108.5q-16 62 -47 104.5t-77.5 61t-100.5 18.5q-52 0 -101 -18.5t-86.5 -55.5t-60 -92.5t-22.5 -128.5v-254z" />
<glyph unicode="c" horiz-adv-x="905" d="M98 520q0 72 8 146t31 143q32 97 91 157t137 83.5t161 23.5q103 0 176.5 -38t110.5 -95.5t53 -112.5l-135 -47q-17 45 -37 76.5t-46 52t-59 30t-75 9.5q-74 0 -130 -34.5t-85 -106.5q-27 -66 -36 -125t-9 -162q0 -128 11.5 -182t31.5 -100q31 -76 91 -110t134 -34 q76 0 135 39t93 127l127 -49q-33 -88 -89 -144t-126 -78t-142 -22q-81 0 -144 19t-109.5 53.5t-78.5 82.5t-51 107q-23 72 -31 145.5t-8 145.5z" />
<glyph unicode="d" horiz-adv-x="1059" d="M98 528q0 125 18.5 218t55.5 159q48 88 123.5 128t177.5 40q79 0 139.5 -21t98 -54t63.5 -66v543h150v-1475h-150v135q-51 -85 -129 -126.5t-180 -41.5q-48 0 -95 11.5t-88.5 38.5t-76.5 72t-60 112q-23 62 -35 142t-12 185zM254 528q0 -74 6 -135t14 -92q10 -47 29 -85 t48 -64.5t68.5 -41t90.5 -14.5q89 0 152.5 48t87.5 116.5t24 134.5v254q0 102 -46 173.5t-109 96.5t-115 25q-79 0 -128.5 -33t-68.5 -74t-28 -77q-14 -51 -19.5 -108.5t-5.5 -123.5z" />
<glyph unicode="e" horiz-adv-x="989" d="M98 498q0 120 14 210.5t44.5 154.5t70.5 104q48 49 118.5 77.5t172.5 28.5q93 0 158 -24.5t110 -69.5q66 -66 90.5 -169.5t24.5 -246.5v-92h-653v-22q0 -103 21.5 -171.5t59 -110t89.5 -58.5t112 -17q61 0 111.5 21t79.5 51.5t47 56.5l115 -65q-38 -64 -91.5 -107.5 t-125 -62.5t-150.5 -19q-78 0 -140.5 18.5t-109 50.5t-77.5 74.5t-48 90.5q-23 65 -33 137t-10 160zM250 590h504q0 153 -34.5 236.5t-93.5 105.5t-118 22q-54 0 -99.5 -16.5t-80 -58t-55 -111.5t-23.5 -178z" />
<glyph unicode="f" horiz-adv-x="551" d="M20 926v114h136v99q0 101 21 161t59 97q46 46 106.5 64t122.5 18q73 0 110 -6v-125q-37 6 -92 6q-34 0 -69 -8.5t-64 -40.5q-20 -23 -32.5 -61.5t-12.5 -108.5v-95h238v-114h-238v-926h-149v926h-136z" />
<glyph unicode="g" horiz-adv-x="1059" d="M98 537q0 120 18 210.5t52 155.5q46 90 123 130t182 40q108 0 185.5 -39t115.5 -121v127h150v-1106q0 -90 -18 -153t-62 -111q-51 -53 -135.5 -78.5t-184.5 -25.5q-152 0 -253.5 55t-139.5 154l127 43q31 -65 97.5 -99t162.5 -34q57 0 110.5 12t90.5 49q26 27 39.5 69 t13.5 126v178q-50 -56 -102 -87t-103.5 -39.5t-101.5 -8.5q-48 0 -95 10.5t-88.5 36t-76.5 69t-60 109.5q-21 60 -34 140.5t-13 187.5zM254 537q0 -62 5.5 -120.5t14.5 -99.5q10 -47 29 -84.5t48 -64t68.5 -41t90.5 -14.5q89 0 152.5 48t87.5 116.5t24 134.5v237 q0 102 -46 173.5t-109 96.5t-115 25q-79 0 -128.5 -33t-68.5 -74t-28 -77q-14 -51 -19.5 -104t-5.5 -119z" />
<glyph unicode="h" horiz-adv-x="1047" d="M135 0v1475h148v-580q65 97 149 137.5t186 40.5q93 0 162.5 -39t101 -110.5t31.5 -157.5v-766h-149v707q0 122 -48 175.5t-151 53.5q-60 0 -111 -28t-88.5 -74t-59 -104t-21.5 -118v-612h-150z" />
<glyph unicode="i" horiz-adv-x="420" d="M135 0v1040h150v-1040h-150zM135 1303v172h150v-172h-150z" />
<glyph unicode="j" horiz-adv-x="428" d="M-55 -266q9 -2 17 -2h13q77 0 113 29.5t45.5 75.5t9.5 93v1110h150v-1132q0 -68 -15 -123.5t-53 -95.5q-35 -38 -92 -60t-143 -22q-11 0 -22.5 1t-22.5 1v125zM143 1303v172h150v-172h-150z" />
<glyph unicode="k" horiz-adv-x="909" d="M135 0v1475h150v-867l424 432h176l-334 -344l350 -696h-170l-295 580l-151 -158v-422h-150z" />
<glyph unicode="l" horiz-adv-x="420" d="M135 0v1475h150v-1475h-150z" />
<glyph unicode="m" horiz-adv-x="1610" d="M135 0v1040h148v-145q39 67 97.5 109t117.5 55.5t104 13.5t87 -9t76.5 -30.5t60.5 -57t40 -87.5q44 74 106.5 117t121.5 55t104 12q95 0 160.5 -38.5t92 -110t26.5 -158.5v-766h-150v707q0 97 -21 147.5t-64.5 66t-94.5 15.5q-79 0 -146.5 -60t-93.5 -132t-26 -132v-612 h-150v707q0 97 -21 147.5t-64.5 66t-94.5 15.5q-79 0 -146.5 -60t-93.5 -132t-26 -132v-612h-150z" />
<glyph unicode="n" horiz-adv-x="1047" d="M135 0v1040h148v-145q65 97 149 137.5t186 40.5q93 0 162.5 -39t101 -110.5t31.5 -157.5v-766h-149v707q0 122 -48 175.5t-151 53.5q-60 0 -111 -28t-88.5 -74t-59 -104t-21.5 -118v-612h-150z" />
<glyph unicode="o" horiz-adv-x="1032" d="M98 520q0 72 9 146t30 143q30 96 88 156.5t134.5 84t156.5 23.5q112 0 196 -41.5t125.5 -103t59.5 -119.5q22 -71 29.5 -144t7.5 -145t-7 -145.5t-32 -145.5q-33 -93 -91 -152.5t-134.5 -84.5t-153.5 -25q-80 0 -142.5 19t-109 53.5t-78 82.5t-49.5 107q-23 72 -31 145.5 t-8 145.5zM254 520q0 -114 10.5 -172.5t34.5 -116.5q28 -71 87 -105t130 -34q72 0 130.5 34t86.5 105q22 57 33.5 119t11.5 170t-10.5 164t-34.5 123q-19 49 -56 81.5t-81.5 45t-79.5 12.5q-71 0 -130 -33.5t-87 -105.5q-27 -66 -36 -125t-9 -162z" />
<glyph unicode="p" horiz-adv-x="1059" d="M135 -393v1433h150v-135q101 168 313 168q103 0 177 -40t120 -130q32 -65 49 -157.5t17 -217.5q0 -111 -13.5 -194.5t-36.5 -145.5q-35 -91 -92 -141.5t-117 -65t-108 -14.5q-101 0 -174.5 32t-134.5 107v-499h-150zM285 395q0 -66 19 -121t53.5 -94.5t83.5 -61.5 t108 -22q103 0 159 55.5t76 149.5q7 31 14 97t7 130q0 66 -5.5 123.5t-19.5 108.5q-16 62 -47 104.5t-77.5 61t-100.5 18.5q-52 0 -101 -18.5t-86.5 -55.5t-60 -92.5t-22.5 -128.5v-254z" />
<glyph unicode="q" horiz-adv-x="1059" d="M98 528q0 125 18.5 218t55.5 159q48 88 123.5 128t177.5 40q108 0 185.5 -39t115.5 -121v127h150v-1433h-152v495q-53 -57 -103.5 -87t-102 -39t-101.5 -9q-48 0 -95 11.5t-88.5 38.5t-76.5 72t-60 112q-23 62 -35 142t-12 185zM254 528q0 -74 6 -135t14 -92 q10 -47 29 -85t48 -64.5t68.5 -41t90.5 -14.5q89 0 152.5 48t87.5 116.5t24 134.5v254q0 102 -46 173.5t-109 96.5t-115 25q-79 0 -128.5 -33t-68.5 -74t-28 -77q-14 -51 -19.5 -108.5t-5.5 -123.5z" />
<glyph unicode="r" horiz-adv-x="643" d="M135 1040h148v-225q40 91 104 144.5t122 69t97 15.5h21v-151h-39q-90 0 -152.5 -43t-95.5 -109t-44 -135t-11 -133v-473h-150v1040z" />
<glyph unicode="s" horiz-adv-x="915" d="M92 197l121 57q27 -57 65.5 -95.5t88 -53.5t98.5 -15q71 0 124.5 20.5t77 59.5t23.5 88q0 55 -26 90.5t-76 61.5l-139 48q-34 12 -58 23q-83 32 -139 65.5t-82 67.5t-38.5 74.5t-12.5 83.5q0 32 8.5 71t28.5 77q27 48 73.5 84t111.5 52.5t140 16.5q127 0 213 -49.5 t131 -149.5l-116 -61q-21 44 -47 72t-55 44.5t-61 22.5t-65 6q-57 0 -98.5 -11.5t-73.5 -39.5q-23 -20 -36 -49t-13 -70q0 -38 19 -68t56.5 -55.5t94 -48t131.5 -45.5q123 -38 169.5 -76t68.5 -71q15 -25 28 -61t13 -95q0 -67 -19 -107.5t-49 -80.5q-43 -57 -131 -85 t-170 -28q-78 0 -140 17.5t-110 48.5q-88 61 -129 164z" />
<glyph unicode="t" horiz-adv-x="553" d="M20 926v114h136v283h149v-283h215v-114h-215v-604q0 -51 5 -90.5t22 -67t49 -41.5t86 -14q35 0 65 6v-125q-37 -6 -83 -6q-91 0 -148 24.5t-89.5 69t-44 107t-11.5 137.5v604h-136z" />
<glyph unicode="u" horiz-adv-x="1049" d="M133 274v766h150v-702q0 -64 12.5 -108t37.5 -71.5t63 -40t89 -12.5q60 0 111 28t88.5 73t58.5 103t21 118v612h149v-1040h-147v145q-65 -97 -149 -137.5t-183 -40.5q-59 0 -113.5 16t-96 52.5t-66.5 95t-25 143.5z" />
<glyph unicode="v" horiz-adv-x="920" d="M18 1040h150l297 -829l295 829h141l-373 -1040h-137z" />
<glyph unicode="w" horiz-adv-x="1327" d="M18 1040h150l215 -839l213 839h143l215 -839l213 839h142l-291 -1040h-137l-217 788l-218 -788h-137z" />
<glyph unicode="x" horiz-adv-x="866" d="M29 0l327 524l-315 516h162l233 -389l240 389h149l-313 -505l326 -535h-162l-246 410l-250 -410h-151z" />
<glyph unicode="y" horiz-adv-x="924" d="M18 1040h150l289 -794l299 794h149l-452 -1190q-29 -75 -59.5 -122.5t-65.5 -74t-75.5 -36.5t-88.5 -10h-25q-11 0 -20 2v131h37q28 2 51 9.5t42.5 23.5t36 42t31.5 66l62 164z" />
<glyph unicode="z" horiz-adv-x="739" d="M29 0v115l516 811h-490v114h652v-114l-517 -811h521v-115h-682z" />
<glyph unicode="{" horiz-adv-x="625" d="M49 467v147q37 2 72 11.5t63.5 35t42.5 74.5q17 49 17 185v167q0 70 7 145t36.5 130t95.5 84q33 14 80 21.5t112 7.5v-127q-61 0 -105 -13.5t-59.5 -60.5t-15.5 -168v-186q0 -125 -18 -203q-6 -25 -16.5 -49.5t-30 -47t-47 -42t-68.5 -37.5q57 -27 101 -68t61 -108 q18 -78 18 -203v-187q0 -71 7.5 -128.5t43 -85t129.5 -27.5v-127q-65 0 -112 6t-80 22q-45 21 -80 63t-47 110.5t-12 185.5v168q0 133 -17 184q-14 47 -48 80t-130 41z" />
<glyph unicode="|" horiz-adv-x="465" d="M170 -176v1651h123v-1651h-123z" />
<glyph unicode="}" horiz-adv-x="625" d="M49 -266q94 0 130 27.5t43 85t7 128.5v187q0 125 19 203q16 67 60 108t102 68q-41 18 -69 37.5t-47.5 42t-29.5 47t-16 49.5q-19 78 -19 203v186q0 121 -15 168t-59 60.5t-106 13.5v127q66 0 113 -7.5t80 -21.5q65 -29 95 -84t37 -130t7 -145v-167q0 -136 16 -185 q15 -49 43.5 -74.5t63.5 -35t71 -11.5v-147q-96 -8 -129.5 -41t-48.5 -80q-16 -51 -16 -184v-168q0 -117 -12.5 -185.5t-47 -110.5t-79.5 -63q-33 -16 -80 -22t-113 -6v127z" />
<glyph unicode="~" horiz-adv-x="1024" d="M39 645q31 64 82 115q38 38 85.5 62t102.5 24q37 0 91.5 -17t125.5 -49q144 -67 189 -67q32 0 59 13t51 38q36 34 74 94l86 -65q-17 -32 -38.5 -62.5t-47.5 -56.5q-38 -37 -84 -59.5t-100 -22.5q-37 0 -92.5 15.5t-126.5 49.5q-144 68 -187 68q-34 0 -62.5 -14.5 t-56.5 -42.5q-44 -56 -65 -88z" />
<glyph unicode="&#xa1;" horiz-adv-x="586" d="M199 823v217h188v-217h-188zM209 -434l16 1089h137l17 -1089h-170z" />
<glyph unicode="&#xa2;" d="M150 520q0 72 8 146t32 143q31 89 80 145t115 83t137 34v209h111v-209q125 -12 200 -73.5t109 -170.5l-131 -43q-28 78 -73.5 115t-104.5 45v-846q66 10 114.5 48.5t77.5 113.5l127 -49q-30 -80 -78.5 -133t-112.5 -78t-128 -31v-245h-111v245q-100 9 -172.5 50.5 t-107.5 99t-54 112.5q-24 72 -31 137t-7 152zM305 520q0 -120 10 -172.5t35 -109.5q25 -60 68.5 -93.5t103.5 -44.5v844q-62 -9 -102.5 -43t-65.5 -94q-23 -55 -36 -116t-13 -171z" />
<glyph unicode="&#xa3;" d="M119 127q145 127 204.5 199t71 120t11.5 91q0 37 -27 100h-242v121h164q-58 77 -93 139t-50 116t-15 101q0 82 24 144t71 108q52 53 131.5 81t187.5 28q100 0 185.5 -27.5t144.5 -93.5q37 -42 60.5 -92t31.5 -103l-150 -35q-22 81 -57 130.5t-93 71.5t-128 22 q-80 0 -127 -21t-76 -53q-51 -60 -51 -148q0 -34 8 -66t21 -63q17 -38 38.5 -71.5t43.5 -61.5q59 -78 77 -106h357v-121h-295q12 -48 12 -72q0 -102 -28 -172t-88.5 -134.5t-135.5 -129.5h662v-129h-850v127z" />
<glyph unicode="&#xa4;" d="M94 373l121 121q-38 51 -59 112.5t-21 130.5t22 132t60 116l-123 123l84 84l123 -123q51 37 113 58.5t131 21.5q62 0 122.5 -19t123.5 -61l122 123l82 -84l-123 -123q39 -53 60.5 -115t21.5 -133q0 -68 -20.5 -129.5t-59.5 -113.5l123 -121l-84 -84l-120 123 q-51 -41 -114 -62.5t-134 -21.5q-69 0 -132 21.5t-116 60.5l-121 -121zM248 737q0 -62 23.5 -116t63.5 -94t94 -63.5t116 -23.5q91 0 163.5 49t103 117.5t30.5 130.5q0 91 -49.5 163t-118.5 103t-129 31q-92 0 -166 -50.5t-102.5 -118t-28.5 -128.5z" />
<glyph unicode="&#xa5;" d="M37 1442h162l344 -719l354 719h156l-369 -719h295v-111h-352l-15 -28v-144h367v-110h-367v-330h-157v330h-344v110h344v144l-15 28h-329v111h276z" />
<glyph unicode="&#xa6;" horiz-adv-x="465" d="M170 -176v549h123v-549h-123zM170 926v549h123v-549h-123z" />
<glyph unicode="&#xa7;" horiz-adv-x="940" d="M92 -70l123 64q29 -80 74 -124.5t94.5 -57.5t93.5 -13q100 0 150.5 45.5t50.5 126.5q0 55 -37.5 104t-93.5 85.5t-105 64.5l-112 66q-58 35 -106.5 79.5t-80.5 100.5t-32 127q0 66 30 129t87.5 102t123.5 54q-67 38 -118.5 85t-75 102t-23.5 108q0 95 43.5 165.5 t125.5 101t181 30.5q135 0 216.5 -63.5t123.5 -180.5l-127 -53q-26 77 -62.5 118t-78 52.5t-80.5 11.5q-55 0 -94 -13t-63.5 -35.5t-36 -53t-11.5 -66.5q0 -42 22 -77t59 -66.5t86 -60.5l102 -60q62 -35 118 -71t98 -79t66.5 -96t24.5 -123q0 -38 -12.5 -80t-41 -81 t-73.5 -70.5t-109 -48.5q85 -55 128.5 -100t63 -101t19.5 -111q0 -65 -22.5 -118t-67 -90.5t-109.5 -57.5t-149 -20q-148 0 -243 64t-140 185zM252 606q0 -41 16 -73.5t45 -61t69.5 -55.5t90.5 -56q66 1 123.5 27t84 72t26.5 98q0 57 -33 103t-84 80t-96 61 q-70 0 -129 -24.5t-86 -70t-27 -100.5z" />
<glyph unicode="&#xa8;" horiz-adv-x="698" d="M123 1222v174h145v-174h-145zM432 1222v174h143v-174h-143z" />
<glyph unicode="&#xa9;" horiz-adv-x="1679" d="M70 737q0 164 66.5 313.5t185.5 257t254.5 153.5t263.5 46q106 0 204.5 -27.5t184.5 -77.5t156 -120t120 -156t77.5 -184.5t27.5 -204.5q0 -167 -67.5 -316t-186 -256t-255.5 -152.5t-261 -45.5q-139 0 -267.5 47.5t-230 133t-166.5 197.5t-85.5 207.5t-20.5 184.5z M186 737q0 -89 23.5 -172.5t66.5 -156t102.5 -132.5t132.5 -102.5t156 -66t173 -23.5q142 0 267 57.5t216.5 158.5t130.5 217.5t39 219.5q0 90 -23.5 173t-66 156t-102.5 132.5t-132.5 102.5t-156 66.5t-172.5 23.5q-135 0 -254 -51.5t-208 -140.5t-140.5 -208t-51.5 -254z M498 723q0 74 10 130.5t24 94.5q39 105 115 157t201 52q215 0 282 -194l-112 -41q-22 53 -51.5 82.5t-61.5 39t-57 9.5q-63 0 -109.5 -21.5t-70.5 -75.5q-22 -49 -31.5 -108t-9.5 -125q0 -110 10.5 -153.5t30.5 -75.5q28 -51 74 -74t102 -23q43 0 79 15.5t62.5 51t42.5 77.5 l109 -39q-34 -109 -107.5 -161t-193.5 -52q-119 0 -193 51.5t-113 161.5q-12 35 -22 87.5t-10 133.5z" />
<glyph unicode="&#xaa;" horiz-adv-x="670" d="M37 969q0 77 39 125q32 40 87.5 61t133.5 21h170v81q0 67 -39.5 96t-105.5 29q-68 0 -103.5 -24t-54.5 -66l-96 39q27 69 89.5 106.5t168.5 37.5q68 0 117.5 -17.5t84.5 -52.5q28 -29 40 -63t12 -82v-482h-101v68q-49 -48 -100.5 -67t-116.5 -19q-54 0 -103 17t-77 54 q-22 28 -33.5 61t-11.5 77zM154 973q0 -35 10 -57.5t29 -35.5t44.5 -18.5t57.5 -5.5q56 0 98 25t58 55t16 55v96h-141q-85 0 -128.5 -24t-43.5 -90z" />
<glyph unicode="&#xab;" horiz-adv-x="1040" d="M84 520l342 484l111 -60l-263 -424l263 -424l-111 -59zM506 520l342 484l111 -60l-263 -424l263 -424l-111 -59z" />
<glyph unicode="&#xac;" d="M96 885v119h897v-531h-119v412h-778z" />
<glyph unicode="&#xad;" horiz-adv-x="698" d="M80 453v153h538v-153h-538z" />
<glyph unicode="&#xae;" horiz-adv-x="1679" d="M70 737q0 164 66.5 313.5t185.5 257t254.5 153.5t263.5 46q106 0 204.5 -27.5t184.5 -77.5t156 -120t120 -156t77.5 -184.5t27.5 -204.5q0 -167 -67.5 -316t-186 -256t-255.5 -152.5t-261 -45.5q-139 0 -267.5 47.5t-230 133t-166.5 197.5t-85.5 207.5t-20.5 184.5z M186 737q0 -89 23.5 -172.5t66.5 -156t102.5 -132.5t132.5 -102.5t156 -66t173 -23.5q142 0 267 57.5t216.5 158.5t130.5 217.5t39 219.5q0 90 -23.5 173t-66 156t-102.5 132.5t-132.5 102.5t-156 66.5t-172.5 23.5q-135 0 -254 -51.5t-208 -140.5t-140.5 -208t-51.5 -254z M557 307v832h317q87 0 145 -38t77.5 -96t19.5 -114q0 -72 -19 -117.5t-48 -69t-56 -36.5l160 -361h-133l-141 334h-205v-334h-117zM674 743h180q68 0 102.5 34.5t34.5 113.5q0 81 -35.5 113t-115.5 32h-166v-293z" />
<glyph unicode="&#xaf;" horiz-adv-x="698" d="M37 1237v131h625v-131h-625z" />
<glyph unicode="&#xb0;" horiz-adv-x="721" d="M49 1196q0 95 51.5 171.5t123 108t136.5 31.5q95 0 172 -52t108.5 -123.5t31.5 -135.5q0 -65 -24.5 -121.5t-67 -98.5t-99.5 -66.5t-121 -24.5q-65 0 -121.5 24.5t-98.5 66.5t-66.5 98.5t-24.5 121.5zM172 1196q0 -56 31.5 -103.5t75 -66t81.5 -18.5q55 0 103.5 32t67 75 t18.5 81q0 58 -32.5 104t-75.5 65t-81 19q-59 0 -105 -32.5t-64.5 -75t-18.5 -80.5z" />
<glyph unicode="&#xb1;" d="M96 0v119h897v-119h-897zM96 680v119h389v387h119v-387h389v-119h-389v-389h-119v389h-389z" />
<glyph unicode="&#xb2;" horiz-adv-x="717" d="M57 717l267 252q80 75 120 137t44 94t4 51q0 42 -17.5 72.5t-52.5 45.5t-76 15q-40 0 -68.5 -11t-48 -32t-32 -52.5t-19.5 -72.5l-117 9q6 40 19 83.5t44.5 80.5t87.5 61t146 24q109 0 171.5 -40t78 -91t15.5 -92q0 -63 -20.5 -112.5t-68 -107t-112.5 -118.5l-189 -176 h390v-104h-566v84z" />
<glyph unicode="&#xb3;" horiz-adv-x="717" d="M66 837l118 9q11 -51 35 -84t58 -43.5t75 -10.5q63 0 101.5 29.5t50.5 77.5t12 90q0 33 -12.5 71.5t-28.5 55.5q-39 41 -119 41q-54 0 -104 -18l-49 77l270 224h-364v100h499v-107l-239 -196q15 2 34 2q41 0 87.5 -13t80.5 -42q41 -35 58.5 -83t17.5 -120 q0 -65 -21 -122.5t-75 -100.5q-37 -28 -84 -44t-107 -16q-74 0 -126 16.5t-86.5 46.5t-54 71t-27.5 89z" />
<glyph unicode="&#xb4;" horiz-adv-x="698" d="M240 1200l104 260h217l-215 -260h-106z" />
<glyph unicode="&#xb5;" horiz-adv-x="1051" d="M135 -393v1433h150v-702q0 -134 57 -184q48 -48 145 -48q86 0 155.5 56.5t96.5 131t27 134.5v612h149v-1040h-147v145q-46 -74 -97.5 -114.5t-96 -52t-80.5 -11.5q-53 0 -99 15.5t-86 52.5q-16 16 -24 31v-459h-150z" />
<glyph unicode="&#xb6;" horiz-adv-x="1169" d="M78 1057q0 65 17 124t55 111q69 104 183.5 143.5t272.5 39.5h533v-132h-109v-1736h-139v1736h-213v-1736h-139v1022h-39q-90 0 -163.5 29t-135.5 87q-123 120 -123 312z" />
<glyph unicode="&#xb7;" horiz-adv-x="586" d="M197 604v232h192v-232h-192z" />
<glyph unicode="&#xb8;" horiz-adv-x="698" d="M170 -399l6 94q60 0 98.5 6t63.5 18q45 22 45 62q0 32 -35.5 49.5t-124.5 17.5l53 175h117l-41 -119q54 -3 96.5 -20.5t62 -49t19.5 -67.5q0 -82 -81 -125q-41 -23 -99 -34t-133 -11q-21 0 -47 4z" />
<glyph unicode="&#xb9;" horiz-adv-x="717" d="M86 1339l246 135h94v-749h143v-92h-413v92h153v622l-178 -94z" />
<glyph unicode="&#xba;" horiz-adv-x="713" d="M70 1114q0 48 6.5 95t21.5 94q19 61 58 100t92 55.5t108 16.5q74 0 131 -26.5t86.5 -67t42.5 -78.5q16 -47 21.5 -94t5.5 -95t-6 -95t-23 -93q-24 -60 -66 -102t-91.5 -56t-100.5 -14q-54 0 -96.5 12.5t-74 35t-53 54t-34.5 70.5q-15 46 -21.5 93t-6.5 95zM190 1114 q0 -112 31 -184q34 -82 135 -82q57 0 89.5 22.5t46.5 59.5q30 82 30 184q0 92 -30 182q-21 52 -60.5 67t-75.5 15q-57 0 -89 -22t-46 -60q-31 -86 -31 -182z" />
<glyph unicode="&#xbb;" horiz-adv-x="1040" d="M82 96l262 424l-262 424l111 60l342 -484l-342 -483zM504 96l262 424l-262 424l111 60l342 -484l-342 -483z" />
<glyph unicode="&#xbc;" horiz-adv-x="1628" d="M86 1339l246 135h94v-749h143v-92h-413v92h153v622l-178 -94zM516 -33l475 1508h121l-475 -1508h-121zM942 149v97l383 583h119v-583h88v-97h-88v-161h-117v161h-385zM1047 246h280v428z" />
<glyph unicode="&#xbd;" horiz-adv-x="1628" d="M86 1339l246 135h94v-749h143v-92h-413v92h153v622l-178 -94zM516 -33l475 1508h121l-475 -1508h-121zM971 1v84l267 252q80 75 120 137t44 94t4 51q0 42 -17.5 72.5t-52.5 45.5t-76 15q-40 0 -68.5 -11t-48 -32t-32 -52.5t-19.5 -72.5l-117 9q6 40 19 83.5t44.5 80.5 t87.5 61t146 24q109 0 171.5 -40t78 -91t15.5 -92q0 -63 -20.5 -112.5t-68 -107t-112.5 -118.5l-189 -176h390v-104h-566z" />
<glyph unicode="&#xbe;" horiz-adv-x="1628" d="M66 837l118 9q11 -51 35 -84t58 -43.5t75 -10.5q63 0 101.5 29.5t50.5 77.5t12 90q0 33 -12.5 71.5t-28.5 55.5q-39 41 -119 41q-54 0 -104 -18l-49 77l270 224h-364v100h499v-107l-239 -196q15 2 34 2q41 0 87.5 -13t80.5 -42q41 -35 58.5 -83t17.5 -120 q0 -65 -21 -122.5t-75 -100.5q-37 -28 -84 -44t-107 -16q-74 0 -126 16.5t-86.5 46.5t-54 71t-27.5 89zM536 -33l475 1508h121l-475 -1508h-121zM944 149v97l383 583h119v-583h88v-97h-88v-161h-117v161h-385zM1049 246h280v428z" />
<glyph unicode="&#xbf;" horiz-adv-x="971" d="M98 -102q0 77 24.5 137.5t55.5 98.5t58 65l77 74q39 37 71 82t52.5 102t20.5 135v63h149v-57q0 -134 -46 -229.5t-103 -151.5l-95 -92q-64 -64 -85 -119t-21 -112q0 -92 51 -146q28 -29 68.5 -46t103.5 -17q65 0 111 17.5t80 51.5q32 32 51 80.5t27 110.5l141 -21 q-14 -90 -43.5 -149t-67.5 -99q-49 -47 -122 -78.5t-177 -31.5q-195 0 -295 102q-42 44 -64 100.5t-22 129.5zM438 823v217h189v-217h-189z" />
<glyph unicode="&#xc0;" horiz-adv-x="1188" d="M18 0l476 1475h165l510 -1475h-170l-141 422h-553l-133 -422h-154zM330 1808h217l105 -260h-107zM346 553h467l-240 717z" />
<glyph unicode="&#xc1;" horiz-adv-x="1188" d="M18 0l476 1475h165l510 -1475h-170l-141 422h-553l-133 -422h-154zM346 553h467l-240 717zM506 1548l104 260h217l-215 -260h-106z" />
<glyph unicode="&#xc2;" horiz-adv-x="1188" d="M18 0l476 1475h165l510 -1475h-170l-141 422h-553l-133 -422h-154zM307 1546l194 260h162l189 -260h-150l-119 170l-125 -170h-151zM346 553h467l-240 717z" />
<glyph unicode="&#xc3;" horiz-adv-x="1188" d="M18 0l476 1475h165l510 -1475h-170l-141 422h-553l-133 -422h-154zM287 1579q0 106 43 145q23 22 47 31.5t53 9.5q25 0 63.5 -9.5t88.5 -31.5q42 -18 69 -26.5t39 -8.5q20 0 34.5 16.5t20.5 61.5h101q0 -95 -39 -141q-20 -23 -44 -35t-54 -12q-28 0 -64.5 9.5t-81.5 29.5 q-89 39 -115 39q-23 0 -38 -16.5t-21 -61.5h-102zM346 553h467l-240 717z" />
<glyph unicode="&#xc4;" horiz-adv-x="1188" d="M18 0l476 1475h165l510 -1475h-170l-141 422h-553l-133 -422h-154zM346 553h467l-240 717zM361 1570v174h145v-174h-145zM670 1570v174h143v-174h-143z" />
<glyph unicode="&#xc5;" horiz-adv-x="1188" d="M18 0l459 1421q-40 25 -63 63.5t-23 88.5q0 37 13.5 69t39.5 58q29 28 63 40.5t75 12.5q37 0 70 -12.5t61 -38.5q57 -51 57 -129q0 -37 -12.5 -69t-40.5 -58q-20 -18 -37 -29l489 -1417h-170l-141 422h-557l-133 -422h-150zM342 553h471l-242 723zM477 1571q0 -42 30 -69 t75 -27q33 0 58 17t35.5 38t10.5 41q0 21 -8.5 39t-22.5 30q-32 31 -73 31t-76 -31q-14 -12 -21.5 -30t-7.5 -39z" />
<glyph unicode="&#xc6;" horiz-adv-x="1706" d="M8 0l778 1475h824v-138h-598v-510h569v-137h-569v-553h614v-137h-772v438h-469l-227 -438h-150zM455 569h399v768z" />
<glyph unicode="&#xc7;" horiz-adv-x="1167" d="M119 737q0 209 35.5 355.5t104.5 238.5t170 134t233 42q176 0 281.5 -76t150.5 -214l-154 -58q-37 116 -105 165.5t-173 49.5q-92 0 -161 -34t-115 -109.5t-69.5 -197t-23.5 -296.5q0 -159 19.5 -278.5t63.5 -199t114 -119.5t172 -40q76 0 138.5 29t100.5 86.5t57 126.5 l146 -55q-21 -72 -56 -131t-88.5 -101t-126.5 -65q-61 -19 -139 -22l-22 -64q54 -3 96.5 -20.5t62 -49t19.5 -67.5q0 -82 -81 -125q-41 -23 -99 -34t-133 -11q-21 0 -47 4l6 94q60 0 98.5 6t63.5 18q45 22 45 62q0 32 -35.5 49.5t-124.5 17.5l37 124q-97 10 -170 46 q-104 52 -169 150.5t-93.5 242t-28.5 326.5z" />
<glyph unicode="&#xc8;" horiz-adv-x="1047" d="M170 0v1475h780v-138h-622v-510h594v-137h-594v-553h639v-137h-797zM370 1808h217l105 -260h-107z" />
<glyph unicode="&#xc9;" horiz-adv-x="1047" d="M170 0v1475h780v-138h-622v-510h594v-137h-594v-553h639v-137h-797zM486 1548l104 260h217l-215 -260h-106z" />
<glyph unicode="&#xca;" horiz-adv-x="1047" d="M170 0v1475h780v-138h-622v-510h594v-137h-594v-553h639v-137h-797zM293 1546l194 260h162l189 -260h-150l-119 170l-125 -170h-151z" />
<glyph unicode="&#xcb;" horiz-adv-x="1047" d="M170 0v1475h780v-138h-622v-510h594v-137h-594v-553h639v-137h-797zM332 1570v174h145v-174h-145zM641 1570v174h143v-174h-143z" />
<glyph unicode="&#xcc;" horiz-adv-x="498" d="M42 1808h217l105 -260h-107zM170 0v1475h158v-1475h-158z" />
<glyph unicode="&#xcd;" horiz-adv-x="498" d="M155 1548l104 260h217l-215 -260h-106zM170 0v1475h158v-1475h-158z" />
<glyph unicode="&#xce;" horiz-adv-x="498" d="M-19 1546l194 260h162l189 -260h-150l-119 170l-125 -170h-151zM170 0v1475h158v-1475h-158z" />
<glyph unicode="&#xcf;" horiz-adv-x="498" d="M22 1570v174h145v-174h-145zM170 0v1475h158v-1475h-158zM331 1570v174h143v-174h-143z" />
<glyph unicode="&#xd0;" horiz-adv-x="1253" d="M35 694v129h135v652h334q172 0 287.5 -42t189.5 -118q84 -88 119 -220.5t35 -310.5q0 -158 -20.5 -284.5t-65.5 -215.5t-103 -145q-66 -63 -163.5 -101t-237.5 -38h-375v694h-135zM328 131h153q84 0 148 11.5t108 36t76 54.5q53 53 88 138.5t47.5 194t12.5 218.5 q0 158 -28 266.5t-91 176.5q-59 61 -145.5 88.5t-215.5 27.5h-153v-520h301v-129h-301v-563z" />
<glyph unicode="&#xd1;" horiz-adv-x="1262" d="M170 0v1475h188l582 -1227v1227h152v-1475h-177l-593 1247v-1247h-152zM355 1579q0 106 43 145q23 22 47 31.5t53 9.5q25 0 63.5 -9.5t88.5 -31.5q42 -18 69 -26.5t39 -8.5q20 0 34.5 16.5t20.5 61.5h101q0 -95 -39 -141q-20 -23 -44 -35t-54 -12q-28 0 -64.5 9.5 t-81.5 29.5q-89 39 -115 39q-23 0 -38 -16.5t-21 -61.5h-102z" />
<glyph unicode="&#xd2;" horiz-adv-x="1331" d="M119 737q0 72 6 154.5t18 145t27 110.5q38 127 111.5 210.5t174.5 116.5t210 33q104 0 186 -26.5t143 -74.5t102 -114t64 -145q25 -88 38 -200t13 -210q0 -109 -13 -218t-38 -191q-39 -128 -113.5 -211t-176.5 -116.5t-205 -33.5q-109 0 -191.5 26.5t-142.5 74.5 t-99.5 114.5t-62.5 145.5q-26 88 -38.5 199.5t-12.5 209.5zM293 737q0 -166 14 -255t49 -183q20 -52 52 -89.5t72.5 -62t87.5 -36t98 -11.5q78 0 145 27.5t106 73.5t58 98q38 106 50.5 210t12.5 228q0 164 -14.5 253.5t-48.5 185.5q-28 74 -84.5 120.5t-115.5 62t-109 15.5 q-81 0 -145.5 -26.5t-105 -73.5t-59.5 -98q-45 -121 -54 -216t-9 -223zM477 1808h217l105 -260h-107z" />
<glyph unicode="&#xd3;" horiz-adv-x="1331" d="M119 737q0 72 6 154.5t18 145t27 110.5q38 127 111.5 210.5t174.5 116.5t210 33q104 0 186 -26.5t143 -74.5t102 -114t64 -145q25 -88 38 -200t13 -210q0 -109 -13 -218t-38 -191q-39 -128 -113.5 -211t-176.5 -116.5t-205 -33.5q-109 0 -191.5 26.5t-142.5 74.5 t-99.5 114.5t-62.5 145.5q-26 88 -38.5 199.5t-12.5 209.5zM293 737q0 -166 14 -255t49 -183q20 -52 52 -89.5t72.5 -62t87.5 -36t98 -11.5q78 0 145 27.5t106 73.5t58 98q38 106 50.5 210t12.5 228q0 164 -14.5 253.5t-48.5 185.5q-28 74 -84.5 120.5t-115.5 62t-109 15.5 q-81 0 -145.5 -26.5t-105 -73.5t-59.5 -98q-45 -121 -54 -216t-9 -223zM559 1548l104 260h217l-215 -260h-106z" />
<glyph unicode="&#xd4;" horiz-adv-x="1331" d="M119 737q0 72 6 154.5t18 145t27 110.5q38 127 111.5 210.5t174.5 116.5t210 33q104 0 186 -26.5t143 -74.5t102 -114t64 -145q25 -88 38 -200t13 -210q0 -109 -13 -218t-38 -191q-39 -128 -113.5 -211t-176.5 -116.5t-205 -33.5q-109 0 -191.5 26.5t-142.5 74.5 t-99.5 114.5t-62.5 145.5q-26 88 -38.5 199.5t-12.5 209.5zM293 737q0 -166 14 -255t49 -183q20 -52 52 -89.5t72.5 -62t87.5 -36t98 -11.5q78 0 145 27.5t106 73.5t58 98q38 106 50.5 210t12.5 228q0 164 -14.5 253.5t-48.5 185.5q-28 74 -84.5 120.5t-115.5 62t-109 15.5 q-81 0 -145.5 -26.5t-105 -73.5t-59.5 -98q-45 -121 -54 -216t-9 -223zM391 1546l194 260h162l189 -260h-150l-119 170l-125 -170h-151z" />
<glyph unicode="&#xd5;" horiz-adv-x="1331" d="M119 737q0 72 6 154.5t18 145t27 110.5q38 127 111.5 210.5t174.5 116.5t210 33q104 0 186 -26.5t143 -74.5t102 -114t64 -145q25 -88 38 -200t13 -210q0 -109 -13 -218t-38 -191q-39 -128 -113.5 -211t-176.5 -116.5t-205 -33.5q-109 0 -191.5 26.5t-142.5 74.5 t-99.5 114.5t-62.5 145.5q-26 88 -38.5 199.5t-12.5 209.5zM293 737q0 -166 14 -255t49 -183q20 -52 52 -89.5t72.5 -62t87.5 -36t98 -11.5q78 0 145 27.5t106 73.5t58 98q38 106 50.5 210t12.5 228q0 164 -14.5 253.5t-48.5 185.5q-28 74 -84.5 120.5t-115.5 62t-109 15.5 q-81 0 -145.5 -26.5t-105 -73.5t-59.5 -98q-45 -121 -54 -216t-9 -223zM398 1579q0 106 43 145q23 22 47 31.5t53 9.5q25 0 63.5 -9.5t88.5 -31.5q42 -18 69 -26.5t39 -8.5q20 0 34.5 16.5t20.5 61.5h101q0 -95 -39 -141q-20 -23 -44 -35t-54 -12q-28 0 -64.5 9.5 t-81.5 29.5q-89 39 -115 39q-23 0 -38 -16.5t-21 -61.5h-102z" />
<glyph unicode="&#xd6;" horiz-adv-x="1331" d="M119 737q0 72 6 154.5t18 145t27 110.5q38 127 111.5 210.5t174.5 116.5t210 33q104 0 186 -26.5t143 -74.5t102 -114t64 -145q25 -88 38 -200t13 -210q0 -109 -13 -218t-38 -191q-39 -128 -113.5 -211t-176.5 -116.5t-205 -33.5q-109 0 -191.5 26.5t-142.5 74.5 t-99.5 114.5t-62.5 145.5q-26 88 -38.5 199.5t-12.5 209.5zM293 737q0 -166 14 -255t49 -183q20 -52 52 -89.5t72.5 -62t87.5 -36t98 -11.5q78 0 145 27.5t106 73.5t58 98q38 106 50.5 210t12.5 228q0 164 -14.5 253.5t-48.5 185.5q-28 74 -84.5 120.5t-115.5 62t-109 15.5 q-81 0 -145.5 -26.5t-105 -73.5t-59.5 -98q-45 -121 -54 -216t-9 -223zM445 1570v174h145v-174h-145zM754 1570v174h143v-174h-143z" />
<glyph unicode="&#xd7;" d="M176 424l289 315l-289 316l84 84l285 -312l284 312l84 -84l-288 -316l288 -315l-84 -84l-284 311l-285 -311z" />
<glyph unicode="&#xd8;" horiz-adv-x="1331" d="M119 -31l123 199q-23 35 -41.5 75t-30.5 85q-26 88 -38.5 199.5t-12.5 209.5q0 72 6 154.5t18 145t27 110.5q38 127 111.5 210.5t174.5 116.5t210 33q111 0 196 -29t148 -83l106 172l96 -60l-125 -200q50 -71 74 -160q25 -88 38 -200t13 -210q0 -109 -13 -218t-38 -191 q-39 -128 -113.5 -211t-176.5 -116.5t-205 -33.5q-115 0 -200 29t-147 82l-106 -170zM293 737q0 -78 3.5 -138t10 -107t16 -85.5t21.5 -74.5l582 930q-48 57 -115.5 84.5t-144.5 27.5q-81 0 -145.5 -26.5t-105 -73.5t-59.5 -98q-45 -121 -54 -216t-9 -223zM403 215 q48 -60 116 -87.5t147 -27.5q78 0 145 27.5t106 73.5t58 98q38 106 50.5 210t12.5 228q0 134 -12 229.5t-41 178.5z" />
<glyph unicode="&#xd9;" horiz-adv-x="1237" d="M152 451v1024h157v-1024q0 -183 78.5 -265t228.5 -82q154 0 233 82t79 265v1024h157v-1024q0 -136 -32.5 -228.5t-93 -149.5t-147.5 -81.5t-196 -24.5q-107 0 -193 24.5t-146 81.5t-92.5 149.5t-32.5 228.5zM383 1808h217l105 -260h-107z" />
<glyph unicode="&#xda;" horiz-adv-x="1237" d="M152 451v1024h157v-1024q0 -183 78.5 -265t228.5 -82q154 0 233 82t79 265v1024h157v-1024q0 -136 -32.5 -228.5t-93 -149.5t-147.5 -81.5t-196 -24.5q-107 0 -193 24.5t-146 81.5t-92.5 149.5t-32.5 228.5zM527 1548l104 260h217l-215 -260h-106z" />
<glyph unicode="&#xdb;" horiz-adv-x="1237" d="M152 451v1024h157v-1024q0 -183 78.5 -265t228.5 -82q154 0 233 82t79 265v1024h157v-1024q0 -136 -32.5 -228.5t-93 -149.5t-147.5 -81.5t-196 -24.5q-107 0 -193 24.5t-146 81.5t-92.5 149.5t-32.5 228.5zM340 1546l194 260h162l189 -260h-150l-119 170l-125 -170h-151 z" />
<glyph unicode="&#xdc;" horiz-adv-x="1237" d="M152 451v1024h157v-1024q0 -183 78.5 -265t228.5 -82q154 0 233 82t79 265v1024h157v-1024q0 -136 -32.5 -228.5t-93 -149.5t-147.5 -81.5t-196 -24.5q-107 0 -193 24.5t-146 81.5t-92.5 149.5t-32.5 228.5zM387 1570v174h145v-174h-145zM696 1570v174h143v-174h-143z " />
<glyph unicode="&#xdd;" horiz-adv-x="1053" d="M18 1475h162l344 -736l355 736h155l-440 -875v-600h-158v600zM469 1548l104 260h217l-215 -260h-106z" />
<glyph unicode="&#xde;" horiz-adv-x="1130" d="M170 0v1475h156v-256h305q156 0 253.5 -69t130 -170.5t32.5 -195.5q0 -98 -25.5 -178t-80 -137.5t-141.5 -89t-210 -31.5h-264v-348h-156zM326 475h266q135 0 210 77.5t75 233.5q0 117 -42 186.5t-114 94.5t-156 25h-239v-617z" />
<glyph unicode="&#xdf;" horiz-adv-x="1059" d="M135 0v1110q0 81 22.5 149t73.5 119q48 47 117.5 74t169.5 27q102 0 171.5 -25t113.5 -70q42 -43 60 -101.5t18 -129.5q0 -87 -21 -148.5t-63 -103.5q-25 -25 -57 -43.5t-72 -32.5q65 -8 114 -27t84 -55q48 -49 71.5 -131t23.5 -209q0 -122 -33 -201.5t-82 -125.5 q-39 -36 -88 -57t-86 -26t-64 -5q-77 0 -118 7t-87 21l25 125q31 -14 66 -22t77 -8q51 0 92 11.5t70 39.5q35 35 53.5 97t18.5 159q0 88 -16.5 154.5t-59.5 109.5q-35 34 -89 52t-134 18h-82v125h39q63 0 113 14.5t86 48.5q32 32 49.5 82t17.5 121q0 57 -13 97.5t-38 66.5 q-28 29 -70 43t-96 14q-48 0 -92 -13.5t-76 -47.5q-28 -29 -43.5 -72.5t-15.5 -106.5v-1124h-150z" />
<glyph unicode="&#xe0;" horiz-adv-x="1016" d="M88 295q0 59 15.5 107t41.5 83q47 63 127 93t195 30h264v137q0 85 -40 134t-91.5 62t-95.5 13q-96 0 -154 -37t-90 -108l-127 43q40 106 132 163.5t245 57.5q100 0 173.5 -25.5t123.5 -80.5q42 -45 59 -98t17 -128v-741h-150v106q-51 -53 -105 -83.5t-109 -40t-103 -9.5 q-39 0 -77.5 7t-72.5 21t-62.5 34.5t-47.5 46.5q-31 43 -49.5 95t-18.5 118zM238 299q0 -45 11 -81t36 -62q57 -60 178 -60q78 0 144 38t96 90.5t30 101.5v174h-221q-74 0 -126 -13.5t-85 -39.5t-48 -63t-15 -85zM346 1460h217l105 -260h-107z" />
<glyph unicode="&#xe1;" horiz-adv-x="1016" d="M88 295q0 59 15.5 107t41.5 83q47 63 127 93t195 30h264v137q0 85 -40 134t-91.5 62t-95.5 13q-96 0 -154 -37t-90 -108l-127 43q40 106 132 163.5t245 57.5q100 0 173.5 -25.5t123.5 -80.5q42 -45 59 -98t17 -128v-741h-150v106q-51 -53 -105 -83.5t-109 -40t-103 -9.5 q-39 0 -77.5 7t-72.5 21t-62.5 34.5t-47.5 46.5q-31 43 -49.5 95t-18.5 118zM238 299q0 -45 11 -81t36 -62q57 -60 178 -60q78 0 144 38t96 90.5t30 101.5v174h-221q-74 0 -126 -13.5t-85 -39.5t-48 -63t-15 -85zM437 1200l104 260h217l-215 -260h-106z" />
<glyph unicode="&#xe2;" horiz-adv-x="1016" d="M88 295q0 59 15.5 107t41.5 83q47 63 127 93t195 30h264v137q0 85 -40 134t-91.5 62t-95.5 13q-96 0 -154 -37t-90 -108l-127 43q40 106 132 163.5t245 57.5q100 0 173.5 -25.5t123.5 -80.5q42 -45 59 -98t17 -128v-741h-150v106q-51 -53 -105 -83.5t-109 -40t-103 -9.5 q-39 0 -77.5 7t-72.5 21t-62.5 34.5t-47.5 46.5q-31 43 -49.5 95t-18.5 118zM238 299q0 -45 11 -81t36 -62q57 -60 178 -60q78 0 144 38t96 90.5t30 101.5v174h-221q-74 0 -126 -13.5t-85 -39.5t-48 -63t-15 -85zM262 1198l194 260h162l189 -260h-150l-119 170l-125 -170 h-151z" />
<glyph unicode="&#xe3;" horiz-adv-x="1016" d="M88 295q0 59 15.5 107t41.5 83q47 63 127 93t195 30h264v137q0 85 -40 134t-91.5 62t-95.5 13q-96 0 -154 -37t-90 -108l-127 43q40 106 132 163.5t245 57.5q100 0 173.5 -25.5t123.5 -80.5q42 -45 59 -98t17 -128v-741h-150v106q-51 -53 -105 -83.5t-109 -40t-103 -9.5 q-39 0 -77.5 7t-72.5 21t-62.5 34.5t-47.5 46.5q-31 43 -49.5 95t-18.5 118zM238 299q0 -45 11 -81t36 -62q57 -60 178 -60q78 0 144 38t96 90.5t30 101.5v174h-221q-74 0 -126 -13.5t-85 -39.5t-48 -63t-15 -85zM258 1231q0 106 43 145q23 22 47 31.5t53 9.5 q25 0 63.5 -9.5t88.5 -31.5q42 -18 69 -26.5t39 -8.5q20 0 34.5 16.5t20.5 61.5h101q0 -95 -39 -141q-20 -23 -44 -35t-54 -12q-28 0 -64.5 9.5t-81.5 29.5q-89 39 -115 39q-23 0 -38 -16.5t-21 -61.5h-102z" />
<glyph unicode="&#xe4;" horiz-adv-x="1016" d="M88 295q0 59 15.5 107t41.5 83q47 63 127 93t195 30h264v137q0 85 -40 134t-91.5 62t-95.5 13q-96 0 -154 -37t-90 -108l-127 43q40 106 132 163.5t245 57.5q100 0 173.5 -25.5t123.5 -80.5q42 -45 59 -98t17 -128v-741h-150v106q-51 -53 -105 -83.5t-109 -40t-103 -9.5 q-39 0 -77.5 7t-72.5 21t-62.5 34.5t-47.5 46.5q-31 43 -49.5 95t-18.5 118zM238 299q0 -45 11 -81t36 -62q57 -60 178 -60q78 0 144 38t96 90.5t30 101.5v174h-221q-74 0 -126 -13.5t-85 -39.5t-48 -63t-15 -85zM307 1222v174h145v-174h-145zM616 1222v174h143v-174h-143z " />
<glyph unicode="&#xe5;" horiz-adv-x="1016" d="M88 295q0 59 15.5 107t41.5 83q47 63 127 93t195 30h264v137q0 85 -40 134t-91.5 62t-95.5 13q-96 0 -154 -37t-90 -108l-127 43q40 106 132 163.5t245 57.5q100 0 173.5 -25.5t123.5 -80.5q42 -45 59 -98t17 -128v-741h-150v106q-51 -53 -105 -83.5t-109 -40t-103 -9.5 q-39 0 -77.5 7t-72.5 21t-62.5 34.5t-47.5 46.5q-31 43 -49.5 95t-18.5 118zM238 299q0 -45 11 -81t36 -62q57 -60 178 -60q78 0 144 38t96 90.5t30 101.5v174h-221q-74 0 -126 -13.5t-85 -39.5t-48 -63t-15 -85zM342 1333q0 74 53 127q29 28 63 40.5t74 12.5q37 0 70 -12.5 t61 -38.5q58 -52 58 -129q0 -76 -54 -127q-29 -28 -63 -40.5t-72 -12.5q-40 0 -74.5 14t-60 38t-40.5 57t-15 71zM428 1331q0 -42 29.5 -69t74.5 -27q34 0 59 17t35.5 38t10.5 41q0 22 -8.5 39.5t-22.5 30.5q-36 31 -74 31q-37 0 -76 -31q-28 -26 -28 -70z" />
<glyph unicode="&#xe6;" horiz-adv-x="1624" d="M88 295q0 59 15.5 107t41.5 83q47 63 127 93t195 30h272v148q0 78 -39 124.5t-94 60t-98 13.5q-96 0 -156 -37t-92 -108l-127 43q40 106 134 163.5t247 57.5q41 0 81.5 -5t78 -17t71 -30.5t60.5 -45.5q30 -34 41 -55q34 57 89.5 93t115 48t106.5 12q93 0 157 -25.5 t109 -70.5q48 -49 72.5 -120.5t32.5 -153t8 -148.5v-55h-645v-76q0 -94 21 -157.5t58 -102.5t88 -55.5t111 -16.5q61 0 111.5 22t78 52t44.5 55l115 -65q-39 -66 -89.5 -108t-122.5 -61.5t-151 -19.5q-76 0 -132.5 16t-97.5 40t-68 53.5t-44 56.5l-14 -14 q-67 -67 -133.5 -100t-124.5 -39.5t-107 -6.5q-96 0 -168 29.5t-110 79.5q-32 42 -50 94.5t-18 118.5zM238 299q0 -45 12 -81t37 -62q29 -29 73.5 -44.5t106.5 -15.5q84 0 151.5 38t95 90.5t27.5 101.5v174h-229q-74 0 -126 -13.5t-85 -39.5t-48 -63t-15 -85zM893 608h496 q0 140 -34 218.5t-91 103t-117 24.5q-54 0 -99 -18t-78.5 -58.5t-53.5 -106.5t-23 -163z" />
<glyph unicode="&#xe7;" horiz-adv-x="905" d="M98 520q0 72 8 146t31 143q32 97 91 157t137 83.5t161 23.5q103 0 176.5 -38t110.5 -95.5t53 -112.5l-135 -47q-17 45 -37 76.5t-46 52t-59 30t-75 9.5q-74 0 -130 -34.5t-85 -106.5q-27 -66 -36 -125t-9 -162q0 -128 11.5 -182t31.5 -100q31 -76 91 -110t134 -34 q76 0 135 39t93 127l127 -49q-33 -88 -89 -144t-126 -78q-68 -21 -137 -22l-21 -63q54 -3 96.5 -20.5t62 -49t19.5 -67.5q0 -82 -81 -125q-41 -23 -99 -34t-133 -11q-21 0 -47 4l6 94q60 0 98.5 6t63.5 18q45 22 45 62q0 32 -35.5 49.5t-124.5 17.5l39 129q-20 4 -38 9 q-63 19 -109.5 53.5t-78.5 82.5t-51 107q-23 72 -31 145.5t-8 145.5z" />
<glyph unicode="&#xe8;" horiz-adv-x="989" d="M98 498q0 120 14 210.5t44.5 154.5t70.5 104q48 49 118.5 77.5t172.5 28.5q93 0 158 -24.5t110 -69.5q66 -66 90.5 -169.5t24.5 -246.5v-92h-653v-22q0 -103 21.5 -171.5t59 -110t89.5 -58.5t112 -17q61 0 111.5 21t79.5 51.5t47 56.5l115 -65q-38 -64 -91.5 -107.5 t-125 -62.5t-150.5 -19q-78 0 -140.5 18.5t-109 50.5t-77.5 74.5t-48 90.5q-23 65 -33 137t-10 160zM250 590h504q0 153 -34.5 236.5t-93.5 105.5t-118 22q-54 0 -99.5 -16.5t-80 -58t-55 -111.5t-23.5 -178zM319 1460h217l105 -260h-107z" />
<glyph unicode="&#xe9;" horiz-adv-x="989" d="M98 498q0 120 14 210.5t44.5 154.5t70.5 104q48 49 118.5 77.5t172.5 28.5q93 0 158 -24.5t110 -69.5q66 -66 90.5 -169.5t24.5 -246.5v-92h-653v-22q0 -103 21.5 -171.5t59 -110t89.5 -58.5t112 -17q61 0 111.5 21t79.5 51.5t47 56.5l115 -65q-38 -64 -91.5 -107.5 t-125 -62.5t-150.5 -19q-78 0 -140.5 18.5t-109 50.5t-77.5 74.5t-48 90.5q-23 65 -33 137t-10 160zM250 590h504q0 153 -34.5 236.5t-93.5 105.5t-118 22q-54 0 -99.5 -16.5t-80 -58t-55 -111.5t-23.5 -178zM414 1200l104 260h217l-215 -260h-106z" />
<glyph unicode="&#xea;" horiz-adv-x="989" d="M98 498q0 120 14 210.5t44.5 154.5t70.5 104q48 49 118.5 77.5t172.5 28.5q93 0 158 -24.5t110 -69.5q66 -66 90.5 -169.5t24.5 -246.5v-92h-653v-22q0 -103 21.5 -171.5t59 -110t89.5 -58.5t112 -17q61 0 111.5 21t79.5 51.5t47 56.5l115 -65q-38 -64 -91.5 -107.5 t-125 -62.5t-150.5 -19q-78 0 -140.5 18.5t-109 50.5t-77.5 74.5t-48 90.5q-23 65 -33 137t-10 160zM250 590h504q0 153 -34.5 236.5t-93.5 105.5t-118 22q-54 0 -99.5 -16.5t-80 -58t-55 -111.5t-23.5 -178zM252 1198l194 260h162l189 -260h-150l-119 170l-125 -170h-151z " />
<glyph unicode="&#xeb;" horiz-adv-x="989" d="M98 498q0 120 14 210.5t44.5 154.5t70.5 104q48 49 118.5 77.5t172.5 28.5q93 0 158 -24.5t110 -69.5q66 -66 90.5 -169.5t24.5 -246.5v-92h-653v-22q0 -103 21.5 -171.5t59 -110t89.5 -58.5t112 -17q61 0 111.5 21t79.5 51.5t47 56.5l115 -65q-38 -64 -91.5 -107.5 t-125 -62.5t-150.5 -19q-78 0 -140.5 18.5t-109 50.5t-77.5 74.5t-48 90.5q-23 65 -33 137t-10 160zM250 590h504q0 153 -34.5 236.5t-93.5 105.5t-118 22q-54 0 -99.5 -16.5t-80 -58t-55 -111.5t-23.5 -178zM289 1222v174h145v-174h-145zM598 1222v174h143v-174h-143z" />
<glyph unicode="&#xec;" horiz-adv-x="420" d="M-24 1460h217l105 -260h-107zM135 0v1040h150v-1040h-150z" />
<glyph unicode="&#xed;" horiz-adv-x="420" d="M135 0v1040h150v-1040h-150zM153 1200l104 260h217l-215 -260h-106z" />
<glyph unicode="&#xee;" horiz-adv-x="420" d="M-56 1198l194 260h162l189 -260h-150l-119 170l-125 -170h-151zM135 0v1040h150v-1040h-150z" />
<glyph unicode="&#xef;" horiz-adv-x="420" d="M-13 1222v174h145v-174h-145zM135 0v1040h150v-1040h-150zM296 1222v174h143v-174h-143z" />
<glyph unicode="&#xf0;" horiz-adv-x="1032" d="M98 489q0 87 8.5 141.5t30.5 117.5q28 89 83.5 150.5t123 85.5t133.5 24q74 0 130.5 -20t82.5 -42q-29 82 -73 146t-97 118l-151 -127l-58 64l144 121q-45 35 -93 62.5t-98 47.5l41 101q63 -20 125 -50t125 -75l135 114l58 -63l-123 -105l51 -49q86 -86 147 -208.5 t86 -252.5t25 -249q0 -125 -11.5 -193.5t-27.5 -118.5q-33 -93 -91 -152.5t-134.5 -84.5t-153.5 -25q-80 0 -142 19t-108.5 53.5t-78 82.5t-50.5 107q-26 75 -32.5 129t-6.5 131zM254 489q0 -137 45 -258q13 -35 35.5 -61.5t51 -43.5t62 -25.5t68.5 -8.5q72 0 130.5 34 t86.5 105q22 56 33.5 115t11.5 143q0 102 -10.5 152.5t-28.5 101.5q-29 72 -88 107t-133 35q-72 0 -131.5 -33.5t-87.5 -107t-33 -91.5t-8.5 -62t-3.5 -102z" />
<glyph unicode="&#xf1;" horiz-adv-x="1047" d="M135 0v1040h148v-145q65 97 149 137.5t186 40.5q93 0 162.5 -39t101 -110.5t31.5 -157.5v-766h-149v707q0 122 -48 175.5t-151 53.5q-60 0 -111 -28t-88.5 -74t-59 -104t-21.5 -118v-612h-150zM258 1231q0 106 43 145q23 22 47 31.5t53 9.5q25 0 63.5 -9.5t88.5 -31.5 q42 -18 69 -26.5t39 -8.5q20 0 34.5 16.5t20.5 61.5h101q0 -95 -39 -141q-20 -23 -44 -35t-54 -12q-28 0 -64.5 9.5t-81.5 29.5q-89 39 -115 39q-23 0 -38 -16.5t-21 -61.5h-102z" />
<glyph unicode="&#xf2;" horiz-adv-x="1032" d="M98 520q0 72 9 146t30 143q30 96 88 156.5t134.5 84t156.5 23.5q112 0 196 -41.5t125.5 -103t59.5 -119.5q22 -71 29.5 -144t7.5 -145t-7 -145.5t-32 -145.5q-33 -93 -91 -152.5t-134.5 -84.5t-153.5 -25q-80 0 -142.5 19t-109 53.5t-78 82.5t-49.5 107q-23 72 -31 145.5 t-8 145.5zM254 520q0 -114 10.5 -172.5t34.5 -116.5q28 -71 87 -105t130 -34q72 0 130.5 34t86.5 105q22 57 33.5 119t11.5 170t-10.5 164t-34.5 123q-19 49 -56 81.5t-81.5 45t-79.5 12.5q-71 0 -130 -33.5t-87 -105.5q-27 -66 -36 -125t-9 -162zM323 1460h217l105 -260 h-107z" />
<glyph unicode="&#xf3;" horiz-adv-x="1032" d="M98 520q0 72 9 146t30 143q30 96 88 156.5t134.5 84t156.5 23.5q112 0 196 -41.5t125.5 -103t59.5 -119.5q22 -71 29.5 -144t7.5 -145t-7 -145.5t-32 -145.5q-33 -93 -91 -152.5t-134.5 -84.5t-153.5 -25q-80 0 -142.5 19t-109 53.5t-78 82.5t-49.5 107q-23 72 -31 145.5 t-8 145.5zM254 520q0 -114 10.5 -172.5t34.5 -116.5q28 -71 87 -105t130 -34q72 0 130.5 34t86.5 105q22 57 33.5 119t11.5 170t-10.5 164t-34.5 123q-19 49 -56 81.5t-81.5 45t-79.5 12.5q-71 0 -130 -33.5t-87 -105.5q-27 -66 -36 -125t-9 -162zM424 1200l104 260h217 l-215 -260h-106z" />
<glyph unicode="&#xf4;" horiz-adv-x="1032" d="M98 520q0 72 9 146t30 143q30 96 88 156.5t134.5 84t156.5 23.5q112 0 196 -41.5t125.5 -103t59.5 -119.5q22 -71 29.5 -144t7.5 -145t-7 -145.5t-32 -145.5q-33 -93 -91 -152.5t-134.5 -84.5t-153.5 -25q-80 0 -142.5 19t-109 53.5t-78 82.5t-49.5 107q-23 72 -31 145.5 t-8 145.5zM244 1198l194 260h162l189 -260h-150l-119 170l-125 -170h-151zM254 520q0 -114 10.5 -172.5t34.5 -116.5q28 -71 87 -105t130 -34q72 0 130.5 34t86.5 105q22 57 33.5 119t11.5 170t-10.5 164t-34.5 123q-19 49 -56 81.5t-81.5 45t-79.5 12.5q-71 0 -130 -33.5 t-87 -105.5q-27 -66 -36 -125t-9 -162z" />
<glyph unicode="&#xf5;" horiz-adv-x="1032" d="M98 520q0 72 9 146t30 143q30 96 88 156.5t134.5 84t156.5 23.5q112 0 196 -41.5t125.5 -103t59.5 -119.5q22 -71 29.5 -144t7.5 -145t-7 -145.5t-32 -145.5q-33 -93 -91 -152.5t-134.5 -84.5t-153.5 -25q-80 0 -142.5 19t-109 53.5t-78 82.5t-49.5 107q-23 72 -31 145.5 t-8 145.5zM236 1231q0 106 43 145q23 22 47 31.5t53 9.5q25 0 63.5 -9.5t88.5 -31.5q42 -18 69 -26.5t39 -8.5q20 0 34.5 16.5t20.5 61.5h101q0 -95 -39 -141q-20 -23 -44 -35t-54 -12q-28 0 -64.5 9.5t-81.5 29.5q-89 39 -115 39q-23 0 -38 -16.5t-21 -61.5h-102zM254 520 q0 -114 10.5 -172.5t34.5 -116.5q28 -71 87 -105t130 -34q72 0 130.5 34t86.5 105q22 57 33.5 119t11.5 170t-10.5 164t-34.5 123q-19 49 -56 81.5t-81.5 45t-79.5 12.5q-71 0 -130 -33.5t-87 -105.5q-27 -66 -36 -125t-9 -162z" />
<glyph unicode="&#xf6;" horiz-adv-x="1032" d="M98 520q0 72 9 146t30 143q30 96 88 156.5t134.5 84t156.5 23.5q112 0 196 -41.5t125.5 -103t59.5 -119.5q22 -71 29.5 -144t7.5 -145t-7 -145.5t-32 -145.5q-33 -93 -91 -152.5t-134.5 -84.5t-153.5 -25q-80 0 -142.5 19t-109 53.5t-78 82.5t-49.5 107q-23 72 -31 145.5 t-8 145.5zM254 520q0 -114 10.5 -172.5t34.5 -116.5q28 -71 87 -105t130 -34q72 0 130.5 34t86.5 105q22 57 33.5 119t11.5 170t-10.5 164t-34.5 123q-19 49 -56 81.5t-81.5 45t-79.5 12.5q-71 0 -130 -33.5t-87 -105.5q-27 -66 -36 -125t-9 -162zM287 1222v174h145v-174 h-145zM596 1222v174h143v-174h-143z" />
<glyph unicode="&#xf7;" d="M96 680v119h897v-119h-897zM446 416q0 28 17 53t39.5 35t42.5 10q28 0 52 -17t35 -39t11 -42q0 -30 -17 -54t-39 -34.5t-42 -10.5q-30 0 -54.5 17t-34.5 39.5t-10 42.5zM446 1063q0 28 17 53t39 35t43 10q28 0 52 -17t35 -39t11 -42q0 -29 -17 -53t-39 -34.5t-42 -10.5 q-30 0 -55 17t-34.5 39t-9.5 42z" />
<glyph unicode="&#xf8;" horiz-adv-x="1032" d="M98 -33l95 148q-19 26 -32.5 54.5t-23.5 59.5q-23 72 -31 145.5t-8 145.5t9 146t30 143q30 96 88 156.5t134.5 84t156.5 23.5q77 0 139.5 -19t110.5 -55l82 127l86 -53l-94 -147q36 -53 57 -117q22 -71 29.5 -144t7.5 -145t-7 -145.5t-32 -145.5q-33 -93 -91 -152.5 t-134.5 -84.5t-153.5 -25q-80 0 -142.5 19t-109.5 53l-80 -125zM254 520q0 -109 8.5 -163t26.5 -97l399 621q-32 32 -76.5 48.5t-95.5 16.5q-71 0 -130 -33.5t-87 -105.5q-27 -66 -36 -125t-9 -162zM344 160q34 -34 78.5 -51t93.5 -17q72 0 130.5 34t86.5 105 q22 57 33.5 119t11.5 170q0 79 -8.5 142.5t-26.5 117.5z" />
<glyph unicode="&#xf9;" horiz-adv-x="1049" d="M133 274v766h150v-702q0 -64 12.5 -108t37.5 -71.5t63 -40t89 -12.5q60 0 111 28t88.5 73t58.5 103t21 118v612h149v-1040h-147v145q-65 -97 -149 -137.5t-183 -40.5q-59 0 -113.5 16t-96 52.5t-66.5 95t-25 143.5zM301 1460h217l105 -260h-107z" />
<glyph unicode="&#xfa;" horiz-adv-x="1049" d="M133 274v766h150v-702q0 -64 12.5 -108t37.5 -71.5t63 -40t89 -12.5q60 0 111 28t88.5 73t58.5 103t21 118v612h149v-1040h-147v145q-65 -97 -149 -137.5t-183 -40.5q-59 0 -113.5 16t-96 52.5t-66.5 95t-25 143.5zM437 1200l104 260h217l-215 -260h-106z" />
<glyph unicode="&#xfb;" horiz-adv-x="1049" d="M133 274v766h150v-702q0 -64 12.5 -108t37.5 -71.5t63 -40t89 -12.5q60 0 111 28t88.5 73t58.5 103t21 118v612h149v-1040h-147v145q-65 -97 -149 -137.5t-183 -40.5q-59 0 -113.5 16t-96 52.5t-66.5 95t-25 143.5zM226 1198l194 260h162l189 -260h-150l-119 170 l-125 -170h-151z" />
<glyph unicode="&#xfc;" horiz-adv-x="1049" d="M133 274v766h150v-702q0 -64 12.5 -108t37.5 -71.5t63 -40t89 -12.5q60 0 111 28t88.5 73t58.5 103t21 118v612h149v-1040h-147v145q-65 -97 -149 -137.5t-183 -40.5q-59 0 -113.5 16t-96 52.5t-66.5 95t-25 143.5zM289 1222v174h145v-174h-145zM598 1222v174h143v-174 h-143z" />
<glyph unicode="&#xfd;" horiz-adv-x="924" d="M18 1040h150l289 -794l299 794h149l-452 -1190q-29 -75 -59.5 -122.5t-65.5 -74t-75.5 -36.5t-88.5 -10h-25q-11 0 -20 2v131h37q28 2 51 9.5t42.5 23.5t36 42t31.5 66l62 164zM404 1200l104 260h217l-215 -260h-106z" />
<glyph unicode="&#xfe;" horiz-adv-x="1059" d="M135 -393v1868h150v-570q101 168 313 168q103 0 177 -40t120 -130q32 -65 49 -157.5t17 -217.5q0 -111 -13.5 -194.5t-36.5 -145.5q-35 -91 -92 -141.5t-117 -65t-108 -14.5q-101 0 -174.5 32t-134.5 107v-499h-150zM285 395q0 -66 19 -121t53.5 -94.5t83.5 -61.5 t108 -22q103 0 159 55.5t76 149.5q7 31 14 97t7 130q0 66 -5.5 123.5t-19.5 108.5q-16 62 -47 104.5t-77.5 61t-100.5 18.5q-52 0 -101 -18.5t-86.5 -55.5t-60 -92.5t-22.5 -128.5v-254z" />
<glyph unicode="&#xff;" horiz-adv-x="924" d="M18 1040h150l289 -794l299 794h149l-452 -1190q-29 -75 -59.5 -122.5t-65.5 -74t-75.5 -36.5t-88.5 -10h-25q-11 0 -20 2v131h37q28 2 51 9.5t42.5 23.5t36 42t31.5 66l62 164zM236 1222v174h145v-174h-145zM545 1222v174h143v-174h-143z" />
<glyph unicode="&#x152;" horiz-adv-x="1800" d="M119 737q0 105 9.5 202t41.5 202q24 79 63.5 144.5t98 112.5t137 73t180.5 26q100 0 176.5 -24t122.5 -64v66h756v-138h-598v-510h569v-137h-569v-553h614v-137h-772v76q-79 -59 -158.5 -79t-156.5 -20q-97 0 -172.5 26t-132.5 73.5t-96 113t-62 144.5q-28 97 -39.5 202 t-11.5 201zM293 737q0 -165 13.5 -248.5t49.5 -179.5q20 -52 50.5 -89.5t69.5 -61.5t84.5 -35.5t96.5 -11.5q73 0 136.5 27.5t115.5 78.5q21 21 39 45v946q-16 32 -47 64q-48 49 -113 70.5t-133 21.5q-80 0 -142.5 -27t-100.5 -73.5t-56 -98.5q-46 -121 -54.5 -210.5 t-8.5 -217.5z" />
<glyph unicode="&#x153;" horiz-adv-x="1669" d="M98 520q0 72 9 146t30 143q30 96 88 156.5t134.5 84t156.5 23.5q122 0 206.5 -50.5t133.5 -141.5q34 68 85.5 111t120 62t136.5 19q93 0 158 -24.5t110 -69.5q66 -66 90.5 -169.5t24.5 -246.5v-92h-653v-47q0 -94 21.5 -157.5t59 -102.5t89.5 -55.5t112 -16.5 q61 0 111.5 21t80 52t46.5 56l115 -65q-38 -64 -91.5 -107.5t-125 -62.5t-150.5 -19q-130 0 -217 48.5t-133 129.5q-44 -65 -95.5 -105t-113.5 -56.5t-121 -16.5q-80 0 -142.5 19t-109 53.5t-78 82.5t-49.5 107q-23 72 -31 145.5t-8 145.5zM254 520q0 -92 9.5 -160 t35.5 -129q28 -71 87 -105t130 -34q72 0 130.5 34t86.5 105q22 57 33.5 119t11.5 170t-10.5 164t-34.5 123q-19 50 -57.5 84t-81 44.5t-78.5 10.5q-71 0 -130 -33.5t-87 -105.5q-27 -66 -36 -125t-9 -162zM930 590h504q0 153 -34.5 236.5t-93 105.5t-118.5 22 q-54 0 -100 -16.5t-80 -58t-54.5 -111.5t-23.5 -178z" />
<glyph unicode="&#x178;" horiz-adv-x="1053" d="M18 1475h162l344 -736l355 736h155l-440 -875v-600h-158v600zM295 1570v174h145v-174h-145zM604 1570v174h143v-174h-143z" />
<glyph unicode="&#x2c6;" horiz-adv-x="698" d="M76 1198l194 260h162l189 -260h-150l-119 170l-125 -170h-151z" />
<glyph unicode="&#x2dc;" horiz-adv-x="698" d="M70 1231q0 106 43 145q23 22 47 31.5t53 9.5q25 0 63.5 -9.5t88.5 -31.5q42 -18 69 -26.5t39 -8.5q20 0 34.5 16.5t20.5 61.5h101q0 -95 -39 -141q-20 -23 -44 -35t-54 -12q-28 0 -64.5 9.5t-81.5 29.5q-89 39 -115 39q-23 0 -38 -16.5t-21 -61.5h-102z" />
<glyph unicode="&#x2013;" horiz-adv-x="1024" d="M0 465v108h1024v-108h-1024z" />
<glyph unicode="&#x2014;" horiz-adv-x="2048" d="M0 465v108h2048v-108h-2048z" />
<glyph unicode="&#x2018;" horiz-adv-x="586" d="M197 928v270q0 151 71 219q26 26 61 40t79 18v-99q-46 -12 -66 -33q-25 -24 -33 -59.5t-8 -85.5v-41h88v-229h-192z" />
<glyph unicode="&#x2019;" horiz-adv-x="586" d="M178 928v98q44 11 66 33q24 25 32.5 60.5t8.5 84.5v41h-88v230h192v-271q0 -152 -72 -219q-26 -26 -60.5 -40t-78.5 -17z" />
<glyph unicode="&#x201a;" horiz-adv-x="586" d="M178 -219q44 11 66 33q24 24 32.5 60t8.5 85v41h-88v229h192v-270q0 -152 -72 -219q-26 -26 -60.5 -40t-78.5 -17v98z" />
<glyph unicode="&#x201c;" horiz-adv-x="909" d="M197 928v270q0 151 71 219q26 26 61 40t79 18v-99q-46 -12 -66 -33q-25 -24 -33 -59.5t-8 -85.5v-41h88v-229h-192zM520 928v270q0 150 72 219q26 26 61 40t78 18v-99q-45 -12 -65 -33q-25 -24 -33 -59.5t-8 -85.5v-41h88v-229h-193z" />
<glyph unicode="&#x201d;" horiz-adv-x="909" d="M178 928v98q44 11 66 33q24 25 32.5 60.5t8.5 84.5v41h-88v230h192v-271q0 -152 -72 -219q-26 -26 -60.5 -40t-78.5 -17zM502 1026q46 12 65 33q25 25 33 60.5t8 84.5v41h-88v230h193v-271q0 -150 -72 -219q-51 -51 -139 -57v98z" />
<glyph unicode="&#x201e;" horiz-adv-x="909" d="M178 -219q44 11 66 33q24 24 32.5 60t8.5 85v41h-88v229h192v-270q0 -152 -72 -219q-26 -26 -60.5 -40t-78.5 -17v98zM502 -219q46 12 65 33q25 24 33 60t8 85v41h-88v229h193v-270q0 -150 -72 -219q-51 -51 -139 -57v98z" />
<glyph unicode="&#x2022;" horiz-adv-x="885" d="M193 731q0 109 75 178q75 72 174 72q101 0 176 -72q74 -70 74 -178q0 -103 -74 -176q-71 -74 -176 -74q-102 0 -176 74q-73 70 -73 176z" />
<glyph unicode="&#x2026;" horiz-adv-x="2048" d="M242 0v231h200v-231h-200zM924 0v231h200v-231h-200zM1606 0v231h200v-231h-200z" />
<glyph unicode="&#x2039;" horiz-adv-x="618" d="M84 520l342 484l111 -60l-263 -424l263 -424l-111 -59z" />
<glyph unicode="&#x203a;" horiz-adv-x="618" d="M82 96l262 424l-262 424l111 60l342 -484l-342 -483z" />
<glyph unicode="&#x20ac;" d="M37 539l49 118h84v64v50q0 25 2 50h-135l49 119h94q17 139 56.5 241.5t105.5 168.5q59 60 142 92.5t202 32.5q106 0 188.5 -35.5t124.5 -79.5t60 -76l-76 -137q-40 69 -78.5 111.5t-99 65t-129.5 22.5q-72 0 -121.5 -22t-87.5 -62q-56 -61 -83 -143.5t-38 -178.5h565 l-49 -119h-524q-2 -23 -2 -48v-52v-64h457l-50 -118h-399q8 -121 40.5 -216.5t92.5 -152.5q73 -70 191 -70q94 0 165 52t103 151l131 -59q-34 -90 -88 -152t-140 -93.5t-188 -31.5q-94 0 -166.5 28t-128.5 79q-77 74 -120.5 190.5t-57.5 274.5h-141z" />
<glyph unicode="&#x2122;" horiz-adv-x="1591" d="M20 1366v109h623v-109h-250v-743h-121v743h-252zM756 623v852h137l221 -480l225 480h131v-852h-114v661l-193 -434h-102l-191 432v-659h-114z" />
<glyph unicode="&#xe000;" horiz-adv-x="1040" d="M0 1040h1040v-1040h-1040v1040z" />
<glyph unicode="&#xfb01;" horiz-adv-x="963" d="M20 926v114h136v99q0 101 21 161t59 97q46 46 106.5 64t122.5 18q73 0 110 -6v-125q-37 6 -92 6q-34 0 -69 -8.5t-64 -40.5q-20 -23 -32.5 -61.5t-12.5 -108.5v-95h238v-114h-238v-926h-149v926h-136zM678 0v1040h150v-1040h-150zM678 1303v172h150v-172h-150z" />
<glyph unicode="&#xfb02;" horiz-adv-x="963" d="M20 926v114h136v99q0 101 21 161t59 97q46 46 106.5 64t122.5 18q73 0 110 -6v-125q-37 6 -92 6q-34 0 -69 -8.5t-64 -40.5q-20 -23 -32.5 -61.5t-12.5 -108.5v-95h238v-114h-238v-926h-149v926h-136zM678 0v1475h150v-1475h-150z" />
<glyph unicode="&#xfb03;" horiz-adv-x="1496" d="M20 926v114h136v99q0 101 21 161t59 97q46 46 106.5 64t122.5 18q73 0 110 -6v-125q-37 6 -92 6q-34 0 -69 -8.5t-64 -40.5q-20 -23 -32.5 -61.5t-12.5 -108.5v-95h384v99q0 101 21 161t59 97q46 46 106.5 64t122.5 18q73 0 110 -6v-125q-37 6 -92 6q-34 0 -69 -8.5 t-64 -40.5q-20 -23 -32.5 -61.5t-12.5 -108.5v-95h238v-114h-238v-926h-149v926h-384v-926h-149v926h-136zM1211 0v1040h150v-1040h-150zM1211 1303v172h150v-172h-150z" />
<glyph unicode="&#xfb04;" horiz-adv-x="1496" d="M20 926v114h136v99q0 101 21 161t59 97q46 46 106.5 64t122.5 18q73 0 110 -6v-125q-37 6 -92 6q-34 0 -69 -8.5t-64 -40.5q-20 -23 -32.5 -61.5t-12.5 -108.5v-95h384v99q0 101 21 161t59 97q46 46 106.5 64t122.5 18q73 0 110 -6v-125q-37 6 -92 6q-34 0 -69 -8.5 t-64 -40.5q-20 -23 -32.5 -61.5t-12.5 -108.5v-95h238v-114h-238v-926h-149v926h-384v-926h-149v926h-136zM1211 0v1475h150v-1475h-150z" />
</font>
</defs>
</svg>
