<?xml version="1.0" standalone="no"?>
<!DOCTYPE svg PUBLIC "-//W3C//DTD SVG 1.1//EN" "http://www.w3.org/Graphics/SVG/1.1/DTD/svg11.dtd" >
<svg xmlns="http://www.w3.org/2000/svg">
<metadata>
This is a custom SVG webfont generated by Font Squirrel.
Copyright   : DaltonMaag Ltd Copyright c Dalton Maag Ltd 19992007 All rights reserved These fonts are for use by ThyssenKrupp and in conjunction with ThyssenKrupp related material only
Designer    : Dalton Maag Ltd
Foundry     : DaltonMaag Ltd
Foundry URL : httpwwwdaltonmaagcom
</metadata>
<defs>
<font id="TKTypeBoldRegular" horiz-adv-x="1159" >
<font-face units-per-em="2048" ascent="1638" descent="-410" />
<missing-glyph horiz-adv-x="532" />
<glyph unicode=" "  horiz-adv-x="532" />
<glyph unicode="&#x09;" horiz-adv-x="532" />
<glyph unicode="&#xa0;" horiz-adv-x="532" />
<glyph unicode="!" horiz-adv-x="606" d="M156 0v301h295v-301h-295zM156 1475h293l-23 -1035h-248z" />
<glyph unicode="&#x22;" horiz-adv-x="895" d="M111 1292v183h276v-183l-47 -364h-182zM506 1292v183h276v-183l-47 -364h-182z" />
<glyph unicode="#" horiz-adv-x="1071" d="M31 395v174h196l64 287h-160v174h197l86 395h198l-86 -395h154l86 395h199l-86 -395h161v-174h-198l-64 -287h162v-174h-199l-86 -395h-198l86 395h-154l-86 -395h-199l86 395h-159zM426 569h154l63 287h-154z" />
<glyph unicode="$" d="M57 313l217 99q36 -94 88 -151.5t134 -74.5v435q-36 13 -45 18q-91 34 -167.5 76t-125.5 108q-31 42 -48.5 96.5t-17.5 129.5q0 53 11.5 111t36.5 105t59 81q45 48 116.5 81.5t180.5 42.5v127h155v-127q115 -11 199 -54.5t129.5 -106.5t69.5 -123l-213 -111 q-36 82 -80.5 125t-104.5 57v-436l13 -4l12 -4q97 -38 151 -66t101 -67.5t73 -79.5q27 -41 42.5 -89.5t15.5 -123.5q0 -68 -20.5 -136.5t-68.5 -126.5t-126 -99.5t-193 -53.5v-209h-155v207q-112 11 -192.5 50t-137.5 102q-35 40 -62.5 88.5t-46.5 103.5zM340 1061 q0 -46 24.5 -83t60 -59t71.5 -38v381q-83 -17 -121 -74q-35 -50 -35 -127zM651 186q34 7 61 18t46 29q47 42 47 125q0 65 -32 112.5t-109 82.5l-13 6v-373z" />
<glyph unicode="%" horiz-adv-x="1841" d="M47 1024q0 61 6 132t37 142.5t88 114.5q40 29 95 45.5t130 16.5q76 0 130.5 -16.5t95 -46t72 -83t45.5 -128t14 -177.5q0 -61 -6.5 -132.5t-33 -136t-79.5 -108.5q-45 -38 -104 -56t-134 -18t-130 16.5t-95 45.5q-40 30 -65.5 71.5t-40 91.5t-20 107t-5.5 119zM274 1024 q0 -76 5.5 -123.5t13.5 -75t17.5 -40t17.5 -19.5q12 -11 30.5 -17t44.5 -6t45 6t31 17q22 19 37.5 71t15.5 187q0 75 -7.5 131.5t-18 82.5t-27.5 42q-26 23 -76 23q-49 0 -75 -23q-24 -21 -39 -74t-15 -182zM555 -33l508 1508h225l-508 -1508h-225zM1081 418q0 61 6 132 t37 142.5t88 114.5q41 29 95.5 45t130.5 16q75 0 130 -16t95 -45.5t71.5 -83t45.5 -128t14 -177.5q0 -61 -5 -130t-32.5 -136t-81.5 -111q-45 -38 -104 -56t-133 -18q-76 0 -130.5 16.5t-95.5 45.5q-40 30 -65.5 71.5t-40 91.5t-20 107t-5.5 119zM1309 418q0 -76 5.5 -123.5 t13.5 -75t17 -40t17 -19.5q25 -23 76 -23q50 0 75 23q23 20 38.5 71.5t15.5 186.5q0 75 -8 132.5t-18.5 82.5t-27.5 41q-25 22 -75 22q-51 0 -76 -22q-8 -7 -20 -24.5t-22.5 -73.5t-10.5 -158z" />
<glyph unicode="&#x26;" horiz-adv-x="1333" d="M72 379q0 78 16 140t51 114.5t90 100t133 97.5q-58 78 -91 148.5t-33 150.5q0 77 25 139t71.5 106t112.5 67.5t147 23.5q80 0 145.5 -20.5t112.5 -60t72.5 -97t25.5 -131.5q0 -84 -36.5 -153.5t-99.5 -125t-128 -100.5q57 -77 227 -276q34 103 45 231l232 -59 q-19 -102 -47 -195t-68 -172l45 -45q23 -23 48 -37t46 -22q23 -8 50 -12.5t59 -4.5v-196q-20 -2 -40 -2h-36q-73 0 -130.5 16t-100 45t-78.5 66q-69 -64 -145.5 -97t-138 -42t-107.5 -9q-123 0 -212.5 34.5t-148 91.5t-86.5 131.5t-28 154.5zM324 383q0 -36 14 -73 t43.5 -66.5t75.5 -48.5t110 -19q38 0 82 14t79 38.5t63 56.5q-92 104 -299 372q-81 -54 -118.5 -106.5t-43.5 -94.5t-6 -73zM469 1145q0 -51 23 -96.5t63 -98.5q67 46 104 89.5t46.5 73.5t9.5 50q0 56 -35 84.5t-86 28.5q-53 0 -89 -30.5t-36 -100.5z" />
<glyph unicode="'" horiz-adv-x="500" d="M113 1292v183h274v-183l-45 -364h-182z" />
<glyph unicode="(" horiz-adv-x="698" d="M111 559q0 171 47 342t135 325.5t190 280.5l195 -141q-76 -99 -132.5 -196.5t-93 -195t-55 -199.5t-18.5 -216q0 -113 18.5 -216.5t55 -203t93 -196t132.5 -195.5l-195 -141q-102 127 -172.5 249.5t-114.5 241.5t-64.5 234.5t-20.5 226.5z" />
<glyph unicode=")" horiz-adv-x="698" d="M21 -252q76 99 132.5 195.5t93 196t55 203t18.5 216.5q0 114 -18.5 216t-55 199.5t-93 195t-132.5 196.5l195 141q102 -126 190 -280.5t135 -325.5t47 -342q0 -111 -20.5 -226.5t-64.5 -234.5t-114.5 -241.5t-172.5 -249.5z" />
<glyph unicode="*" horiz-adv-x="889" d="M80 1139l65 184l84 -29l142 -73l-27 163v91h197v-91l-21 -165l146 73l84 29l59 -182l-84 -31l-158 -29l119 -114l53 -74l-159 -113l-52 74l-82 141l-73 -141l-51 -74l-158 113l51 72l113 116l-164 29z" />
<glyph unicode="+" d="M131 639v201h348v346h201v-346h348v-201h-348v-348h-201v348h-348z" />
<glyph unicode="," horiz-adv-x="502" d="M96 -313v143q39 6 64 18q29 14 43 39.5t14 73.5v39h-104v279h276v-287q0 -100 -28 -161t-80 -93q-36 -23 -82.5 -34.5t-102.5 -16.5z" />
<glyph unicode="-" horiz-adv-x="750" d="M72 416v227h606v-227h-606z" />
<glyph unicode="." horiz-adv-x="502" d="M113 0v276h276v-276h-276z" />
<glyph unicode="/" horiz-adv-x="735" d="M10 0l490 1475h225l-489 -1475h-226z" />
<glyph unicode="0" d="M92 721q0 92 3.5 186t20 180.5t50.5 161t96 127.5q54 47 131.5 73t186.5 26q108 0 185.5 -26t131.5 -73q84 -74 121.5 -194t43 -244.5t5.5 -216.5q0 -188 -13 -305t-54.5 -207t-102.5 -143q-54 -47 -131.5 -73t-185.5 -26q-109 0 -186.5 26t-131.5 73q-62 53 -96 127.5 t-50.5 161t-20 180.5t-3.5 186zM360 721q0 -166 12 -273t34 -152t47 -67q20 -18 49.5 -30.5t77.5 -12.5t77.5 12.5t49.5 30.5q36 34 57.5 103.5t28 172.5t6.5 216q0 181 -12.5 277t-34 143t-45.5 71q-20 19 -49.5 31t-77.5 12t-77.5 -12t-49.5 -31q-38 -35 -59.5 -104 t-27.5 -171.5t-6 -215.5z" />
<glyph unicode="1" d="M182 1204l418 254h178v-1247h215v-211h-700v211h229v938l-229 -131z" />
<glyph unicode="2" d="M98 1010q8 96 27 163t47 109t57 72q51 51 113 77t127.5 34t118.5 8q173 0 274 -66t129.5 -157t28.5 -169q0 -101 -36 -195.5t-115 -198.5t-175 -208l-233 -250h559v-229h-914v213l45 45l71 71l89 90l97 104l99 110q48 56 89.5 109.5t73.5 102.5t49 89q33 86 33 145 q0 51 -20.5 93t-64 63.5t-98.5 21.5q-62 0 -101 -21t-62 -56q-28 -42 -39 -96t-17 -105z" />
<glyph unicode="3" d="M96 406l244 22q11 -62 28.5 -107.5t44 -75.5t63 -44.5t85.5 -14.5q47 0 81 12t58 33q45 42 59.5 109t14.5 147q0 63 -13 114t-44 83q-50 53 -150 53q-71 0 -174 -39l-102 131l387 388h-522v225h825v-201l-299 -307q37 -3 63 -12q69 -16 118.5 -48.5t84.5 -78.5 q48 -62 69 -144t21 -176q0 -98 -22.5 -181.5t-59.5 -139t-79 -91.5q-54 -45 -128 -70.5t-171 -25.5q-122 0 -206.5 30t-140.5 87t-88 138.5t-47 183.5z" />
<glyph unicode="4" d="M104 281v198l564 979h243v-964h140v-213h-138v-281h-254v281h-555zM354 494h303v526z" />
<glyph unicode="5" d="M106 395l248 25q13 -126 64.5 -180t146.5 -54q44 0 76 13.5t53 36.5q34 36 50 102.5t16 159.5q0 62 -13 111t-42 81q-25 29 -60.5 44.5t-83.5 15.5q-59 0 -100.5 -20t-69.5 -56t-47 -72l-197 23l54 817h745v-225h-522l-18 -308q38 23 70.5 34.5t73.5 16.5t87 5 q91 0 158.5 -25.5t115.5 -73.5q60 -63 88.5 -159.5t28.5 -221.5q0 -85 -20 -171.5t-57.5 -146.5t-78.5 -97q-54 -48 -125.5 -75.5t-168.5 -27.5q-120 0 -207 32t-144 89t-86.5 135.5t-34.5 171.5z" />
<glyph unicode="6" d="M117 709q0 93 5.5 188t24 182.5t54 163t96.5 129.5q53 48 128.5 75.5t178.5 27.5q119 0 201 -30.5t135 -90.5q37 -44 59 -100.5t33 -129.5l-244 -51q-22 90 -40 123q-20 31 -55 49.5t-95 18.5q-38 0 -68 -12t-53 -33q-44 -40 -67.5 -114t-28.5 -140.5t-6 -114.5 q57 54 124 81t160 27t162 -25t119 -73q62 -60 90.5 -154t28.5 -219q0 -131 -32.5 -235.5t-104.5 -173.5q-56 -53 -136.5 -82t-191.5 -29q-97 0 -168.5 24.5t-124.5 69.5q-61 52 -97 125.5t-55.5 159t-25.5 178.5t-6 185zM393 481q0 -69 11 -125t36 -95.5t65 -61t97 -21.5 q79 0 124.5 43.5t57 112t11.5 133.5q0 115 -26 184t-70 87t-85 18q-60 0 -102 -24t-68.5 -63t-38.5 -88t-12 -100z" />
<glyph unicode="7" d="M131 1055v387h881v-213l-471 -1229h-254l463 1208h-402v-153h-217z" />
<glyph unicode="8" d="M96 410q0 88 23 160.5t71.5 123.5t108.5 80q-51 33 -82 75.5t-47.5 85t-21.5 81.5t-5 65q0 78 25 149t78 125.5t135.5 87t198.5 32.5q115 0 197.5 -32.5t135.5 -87t78 -125.5t25 -149q0 -58 -16 -116t-52.5 -108t-87.5 -83q85 -42 132.5 -110.5t59 -134.5t11.5 -119 q0 -124 -40.5 -208.5t-107.5 -136.5t-154.5 -75t-180.5 -23q-94 0 -181 23t-154.5 75t-108 136.5t-40.5 208.5zM354 418q0 -66 15 -111.5t44 -73.5t71 -40.5t96 -12.5q81 0 134.5 29.5t72 86t18.5 122.5q0 81 -29 135.5t-82.5 76t-113.5 21.5q-61 0 -104 -17t-70 -47.5 t-39.5 -73.5t-12.5 -95zM395 1075q0 -100 43.5 -155.5t141.5 -55.5q71 0 113 31.5t55 80.5t14 99v8q0 85 -42 135q-43 52 -140 52t-141 -52t-44 -143z" />
<glyph unicode="9" d="M100 948q0 143 31 247.5t102 172.5q56 53 137.5 80t192.5 27q100 0 173.5 -23.5t125.5 -67.5q79 -67 121.5 -183t50.5 -242t8 -226q0 -174 -16.5 -299t-59.5 -218.5t-104 -147.5q-54 -47 -129 -74t-178 -27q-119 0 -202.5 30.5t-137.5 90.5q-37 42 -60 99.5t-34 129.5 l250 52q21 -92 41 -123t54.5 -49.5t94.5 -18.5q38 0 68.5 12t52.5 33q41 38 65.5 106.5t30 137t6.5 113.5q-56 -54 -123 -81.5t-161 -27.5q-93 0 -162 24t-117 72q-62 59 -91.5 154.5t-29.5 226.5zM365 969v-13q0 -74 11 -127q12 -56 35.5 -90.5t57.5 -49.5t76 -15 q82 0 136 50.5t69.5 114.5t15.5 115q0 69 -11 126.5t-36 98t-64.5 63t-97.5 22.5q-81 0 -124.5 -45.5t-55 -115t-12.5 -134.5z" />
<glyph unicode=":" horiz-adv-x="502" d="M113 0v276h276v-276h-276zM113 788v277h276v-277h-276z" />
<glyph unicode=";" horiz-adv-x="502" d="M96 -313v143q39 6 64 18q29 14 43 39.5t14 73.5v39h-104v279h276v-287q0 -100 -28 -161t-80 -93q-36 -23 -82.5 -34.5t-102.5 -16.5zM113 788v277h276v-277h-276z" />
<glyph unicode="&#x3c;" d="M186 647v180l705 402l82 -185l-551 -307l551 -307l-82 -184z" />
<glyph unicode="=" d="M131 440v201h897v-201h-897zM131 836v200h897v-200h-897z" />
<glyph unicode="&#x3e;" d="M186 430l551 307l-551 307l82 185l705 -402v-180l-705 -401z" />
<glyph unicode="?" horiz-adv-x="975" d="M18 1051q13 78 30.5 134t47.5 100t62 73q57 51 138.5 84t197.5 33q229 0 346 -123q42 -44 64 -107t22 -137q0 -97 -40.5 -171.5t-111.5 -143.5l-78 -73q-38 -33 -66 -70t-44.5 -82.5t-16.5 -108.5v-19h-256v23q0 122 42.5 213.5t95.5 141.5l94 85q49 45 74 75t37 63.5 t12 66.5q0 37 -10.5 65t-28.5 48q-47 45 -135 45q-63 0 -103.5 -19.5t-64.5 -50.5q-28 -37 -40 -84.5t-18 -95.5zM293 0v301h293v-301h-293z" />
<glyph unicode="@" horiz-adv-x="1706" d="M61 627q0 80 17 176.5t55.5 194.5t101 189.5t154.5 162.5t216 114t284 43q174 0 314 -54.5t238.5 -148t151 -218t52.5 -263.5q0 -153 -45 -276.5t-120.5 -210.5t-173.5 -134.5t-204 -47.5q-59 0 -94.5 16t-55.5 41q-18 26 -24 55q-47 -48 -110 -80t-140 -32 q-124 0 -193 69q-51 48 -72.5 119t-21.5 162q0 82 12 172q17 93 35 147q22 66 53.5 126.5t77.5 107.5q41 43 84 67.5t92.5 32.5t94.5 8q60 0 114.5 -24.5t81.5 -56t37 -56.5l25 115h190l-164 -746q-8 -35 -8 -57q0 -14 35 -14q32 0 87 27.5t110.5 87.5t86.5 157.5t31 208.5 q0 109 -37 206t-109 170t-178.5 115.5t-244.5 42.5q-189 0 -326 -80t-211 -205.5t-97 -240t-23 -197.5q0 -84 14 -155.5t39.5 -132.5t60 -111.5t76.5 -91.5q73 -71 163.5 -113.5t167.5 -56.5t134 -14q121 0 232 34t195 94t140 126l135 -115q-86 -89 -149.5 -137.5 t-140.5 -83.5q-185 -84 -412 -84q-178 0 -322.5 55t-250.5 154q-125 117 -193 281t-68 360zM594 518q0 -49 8 -92.5t37 -69.5q31 -28 88 -28q76 0 138 73t92.5 157.5t41.5 146.5q5 20 5 28q6 37 6 70q0 84 -36.5 135t-115.5 51q-49 0 -85 -16.5t-62 -44.5 q-43 -48 -62.5 -109t-36.5 -147q-18 -94 -18 -154z" />
<glyph unicode="A" horiz-adv-x="1214" d="M10 0l447 1475h262l485 -1475h-280l-101 340h-458l-95 -340h-260zM430 575h324l-168 564z" />
<glyph unicode="B" horiz-adv-x="1249" d="M162 0v1475h512q93 0 174.5 -24.5t141.5 -74t95 -125.5t35 -178q0 -94 -44 -175t-128 -132q80 -36 129.5 -98t65.5 -129.5t16 -124.5q0 -85 -28.5 -160t-86 -131.5t-145.5 -89.5t-207 -33h-530zM420 858h227q66 0 115 31t70.5 80t21.5 100q0 70 -25 112.5t-77.5 59 t-114.5 16.5h-217v-399zM420 217h215q106 0 162.5 28.5t72 81.5t15.5 111q0 107 -62.5 156t-193.5 49h-209v-426z" />
<glyph unicode="C" horiz-adv-x="1212" d="M111 737q0 97 8.5 191.5t31.5 180t63.5 158.5t103.5 126.5t152 83.5t210 30q141 0 239.5 -50t151 -133t78.5 -167l-246 -94q-24 89 -57 136t-80.5 66t-101.5 19q-81 0 -133.5 -39.5t-83.5 -111t-43.5 -172.5t-12.5 -224q0 -269 67 -405.5t204 -136.5q75 0 122.5 29.5 t74 87t44.5 124.5l254 -96q-35 -133 -105.5 -218t-175.5 -120t-223 -35q-112 0 -195.5 31.5t-143.5 86.5t-99.5 129t-62.5 159.5t-32 178.5t-9 185z" />
<glyph unicode="D" horiz-adv-x="1296" d="M162 0v1475h360q146 0 243.5 -22t159 -61t105.5 -83q86 -89 121 -222t35 -307q0 -156 -20 -278t-67.5 -214t-111.5 -149q-64 -56 -125.5 -86.5t-133 -41.5t-146.5 -11h-420zM424 233h80q79 0 133.5 10.5t85 28.5t55.5 41q46 42 75.5 111.5t40.5 162t11 193.5 q0 107 -13.5 182t-38 118.5t-50.5 70.5q-37 36 -77.5 55t-100 27t-121.5 8h-80v-1008z" />
<glyph unicode="E" horiz-adv-x="1090" d="M162 0v1475h839v-242h-577v-354h549v-242h-549v-395h594v-242h-856z" />
<glyph unicode="F" horiz-adv-x="1030" d="M162 0v1475h811v-242h-549v-336h520v-242h-518v-655h-264z" />
<glyph unicode="G" horiz-adv-x="1264" d="M111 737q0 107 10.5 214.5t44.5 203.5q40 120 114.5 202t180 116t219.5 34q192 0 307.5 -85.5t169.5 -266.5l-256 -84q-6 39 -24.5 80t-42.5 68q-35 35 -76 49t-90 14q-62 0 -100.5 -16t-67.5 -45q-44 -43 -70.5 -126.5t-32.5 -176t-6 -177.5q0 -180 22 -302.5t85 -184.5 q31 -29 72.5 -46.5t97.5 -17.5q81 0 134.5 30t76 89.5t22.5 130.5v86h-252v228h508v-756h-215l-14 115q-47 -51 -95.5 -83t-102.5 -47.5t-114 -15.5q-185 0 -297 94.5t-161 270.5q-25 85 -36 186t-11 219z" />
<glyph unicode="H" horiz-adv-x="1341" d="M162 0v1475h262v-555h494v555h262v-1475h-262v676h-494v-676h-262z" />
<glyph unicode="I" horiz-adv-x="586" d="M162 0v1475h262v-1475h-262z" />
<glyph unicode="J" horiz-adv-x="1081" d="M31 297l243 90q16 -79 51.5 -125.5t76.5 -57.5t77 -11q45 0 77.5 10t55.5 30q37 32 50.5 93t13.5 159v990h262v-926q0 -146 -8 -227.5t-36.5 -143.5t-70.5 -102q-59 -56 -143 -82.5t-186 -26.5q-119 0 -205.5 31t-145.5 90q-40 40 -70 92t-42 117z" />
<glyph unicode="K" horiz-adv-x="1260" d="M162 0v1475h262v-621l496 621h301l-480 -582l508 -893h-309l-371 682l-145 -176v-506h-262z" />
<glyph unicode="L" horiz-adv-x="1026" d="M162 0v1475h262v-1233h575v-242h-837z" />
<glyph unicode="M" horiz-adv-x="1546" d="M162 0v1475h289l323 -773l332 773h278v-1475h-254v995l-251 -612h-217l-244 606v-989h-256z" />
<glyph unicode="N" horiz-adv-x="1327" d="M162 0v1475h274l475 -988v988h254v-1475h-262l-487 1006v-1006h-254z" />
<glyph unicode="O" horiz-adv-x="1356" d="M111 737q0 113 11 218t42 198q25 78 66.5 143.5t103.5 112t147 72.5t197 26q160 0 271 -55t163.5 -138t79.5 -161q31 -93 42 -198t11 -218q0 -112 -11 -217.5t-42 -197.5q-26 -78 -67 -143.5t-103 -112.5t-147 -73t-197 -26t-197 26t-147 73t-103.5 112.5t-66.5 143.5 q-31 92 -42 197.5t-11 217.5zM389 737q0 -99 4.5 -179.5t15 -124t23.5 -75.5q25 -70 66.5 -110t88.5 -50t91 -10q68 0 115.5 20t78 60t50.5 90q23 60 33 148.5t10 230.5q0 137 -10 225.5t-33 149.5q-28 71 -68.5 110t-87 49.5t-88.5 10.5q-69 0 -120 -21t-80 -60.5 t-46 -88.5q-28 -70 -35.5 -157.5t-7.5 -217.5z" />
<glyph unicode="P" d="M162 1475h461q174 0 282.5 -75.5t143 -180t34.5 -199.5q0 -101 -28 -184.5t-88.5 -144.5t-155.5 -94.5t-229 -33.5h-158v-563h-262v1475zM428 780h152q111 0 168 57t57 185q0 90 -29.5 144.5t-90 72.5t-132.5 18h-125v-477z" />
<glyph unicode="Q" horiz-adv-x="1356" d="M111 737q0 113 11 218t42 198q25 78 66.5 143.5t103.5 112t147 72.5t197 26q160 0 271 -55t163.5 -138t79.5 -161q31 -93 42 -198t11 -218q0 -100 -9 -194t-32 -181q-14 -49 -33 -95.5t-45 -86.5l158 -141l-139 -156l-170 152q-57 -32 -130 -50t-167 -18q-112 0 -197 26 t-147 73t-103.5 112.5t-66.5 143.5q-31 92 -42 197.5t-11 217.5zM389 737q0 -99 4.5 -179.5t15 -124t23.5 -75.5q25 -70 66.5 -110t88.5 -50t91 -10q61 0 104 17l-129 114l140 156l129 -117v2q23 60 33 148t10 229q0 137 -10 225.5t-33 149.5q-28 71 -68.5 110t-87 49.5 t-88.5 10.5q-69 0 -120 -21t-80 -60.5t-46 -88.5q-28 -70 -35.5 -157.5t-7.5 -217.5z" />
<glyph unicode="R" horiz-adv-x="1219" d="M162 0v1475h475q120 0 208.5 -34t146.5 -94.5t86 -142.5t28 -178q0 -49 -9 -104t-34 -108.5t-68 -100.5t-110 -80l301 -633h-299l-262 575h-201v-575h-262zM422 793h176q56 0 99 13t72.5 41t44.5 72.5t15 108.5q0 92 -31 142.5t-92.5 68.5t-134.5 18h-149v-464z" />
<glyph unicode="S" horiz-adv-x="1188" d="M72 322l223 100q22 -59 50 -104t64.5 -75t83.5 -45.5t107 -15.5q63 0 110.5 15t77.5 43q23 21 36.5 52t13.5 75q0 66 -33.5 114.5t-112.5 83.5q-66 29 -131 53l-127 50l-80 36q-39 18 -73.5 41t-63.5 50t-51 61q-28 42 -42.5 95t-14.5 122q0 66 13.5 125.5t51 121.5 t106 107t151 62.5t173.5 17.5q144 0 246 -44t155 -113.5t80 -137.5l-217 -112q-35 80 -79.5 125t-96.5 58t-102 13q-62 0 -110 -18t-77 -55q-20 -26 -30.5 -60t-10.5 -78q0 -55 31 -93.5t82 -67.5t117 -53l133 -48q82 -33 140.5 -62t103.5 -68.5t69 -78.5q22 -33 35.5 -69.5 t19 -72t5.5 -77.5q0 -68 -20.5 -136t-67 -128t-118 -98t-146 -52t-154.5 -14q-109 0 -193.5 25t-148 71.5t-107.5 112t-71 146.5z" />
<glyph unicode="T" horiz-adv-x="1073" d="M23 1231v244h1028v-244h-383v-1231h-262v1231h-383z" />
<glyph unicode="U" horiz-adv-x="1303" d="M143 469v1006h263v-994q0 -77 14.5 -129.5t44 -85t75.5 -47t109 -14.5q97 0 152.5 33.5t74.5 99.5t19 143v994h264v-1006q0 -139 -35.5 -235t-101.5 -155t-160.5 -85.5t-212.5 -26.5q-117 0 -211 26.5t-159.5 85.5t-100.5 155t-35 235z" />
<glyph unicode="V" horiz-adv-x="1130" d="M10 1475h279l276 -1082l289 1082h266l-424 -1475h-264z" />
<glyph unicode="W" horiz-adv-x="1624" d="M10 1475h279l186 -1033l217 1033h256l203 -1033l199 1033h264l-330 -1475h-268l-205 975l-205 -975h-268z" />
<glyph unicode="X" horiz-adv-x="1133" d="M10 0l418 766l-377 709h289l233 -455l242 455h268l-376 -691l415 -784h-286l-275 528l-282 -528h-269z" />
<glyph unicode="Y" horiz-adv-x="1141" d="M10 1475h281l280 -623l291 623h268l-440 -877v-598h-262v598z" />
<glyph unicode="Z" horiz-adv-x="997" d="M31 0v225l610 1008h-586v242h887v-224l-612 -1009h637v-242h-936z" />
<glyph unicode="[" horiz-adv-x="686" d="M143 -393v1868h502v-211h-256v-1446h256v-211h-502z" />
<glyph unicode="\" horiz-adv-x="743" d="M10 1475h234l489 -1475h-233z" />
<glyph unicode="]" horiz-adv-x="686" d="M41 -182h256v1446h-256v211h502v-1868h-502v211z" />
<glyph unicode="^" horiz-adv-x="1094" d="M37 915l516 623l504 -629l-172 -104l-334 416l-350 -420z" />
<glyph unicode="_" horiz-adv-x="1044" d="M-2 -127h1049v-162h-1049v162z" />
<glyph unicode="`" horiz-adv-x="702" d="M162 1460h268l111 -260h-152z" />
<glyph unicode="a" horiz-adv-x="1069" d="M80 328q0 63 15.5 112.5t43.5 87.5q53 70 141.5 102t196.5 32h215v71q0 82 -45 116t-119 34q-61 0 -99.5 -15t-57.5 -39t-31 -49l-225 72q41 120 144.5 183t279.5 63q103 0 188 -28.5t137 -90.5q46 -54 63 -112t17 -134v-733h-237l-7 92q-31 -38 -75.5 -66t-97.5 -42.5 t-101 -14.5q-91 0 -161 32.5t-115 94.5q-70 91 -70 232zM338 334q0 -66 37 -103q20 -18 50.5 -28t80.5 -10q54 0 102 27t67 61.5t19 66.5v123h-170q-78 0 -120.5 -20.5t-54 -53t-11.5 -63.5z" />
<glyph unicode="b" horiz-adv-x="1116" d="M127 0v1475h258v-506q32 42 76 72.5t95 43.5t99 13q118 0 194 -43.5t118 -128.5q37 -75 48 -172t11 -222q0 -109 -9.5 -191t-31.5 -142q-23 -68 -70.5 -123t-115 -82t-146.5 -27q-54 0 -97.5 15t-78 37.5t-61 48t-45.5 47.5l-6 -115h-238zM383 406q0 -75 31 -128 t76 -71.5t88 -18.5q74 0 117.5 43t56.5 121q3 20 7.5 72t4.5 108q0 57 -3 111t-11 86q-11 48 -35.5 81.5t-60 48.5t-74.5 15q-61 0 -109.5 -30.5t-68 -80t-19.5 -104.5v-253z" />
<glyph unicode="c" horiz-adv-x="969" d="M90 532q0 81 9 157t34 145q21 57 54.5 105.5t83.5 84t118.5 55t159.5 19.5q162 0 263 -78t130 -223l-233 -74q-22 88 -64.5 124t-107.5 36t-102.5 -33.5t-57.5 -89.5q-16 -47 -21.5 -105t-5.5 -123t4 -112t12 -82t20.5 -59.5t29.5 -42.5q18 -22 48.5 -36t67.5 -14 q54 0 89.5 17t57.5 54.5t36 86.5l233 -78q-40 -145 -142 -222t-263 -77q-90 0 -158 19.5t-117.5 54.5t-82 83t-52.5 105q-25 68 -34 145.5t-9 157.5z" />
<glyph unicode="d" horiz-adv-x="1116" d="M90 532q0 124 11 222t49 172q42 85 117.5 128.5t193.5 43.5q70 0 127.5 -23t92 -55t54.5 -59v514h254v-1475h-237l-7 117q-32 -44 -74.5 -79t-98 -53t-109.5 -18q-79 0 -136 23t-96.5 57.5t-63.5 75t-36 76.5q-22 60 -31.5 142t-9.5 191zM352 532q0 -56 4.5 -110t8.5 -70 q12 -78 55.5 -121t118.5 -43q62 0 109 31.5t66 83.5t19 103v253q0 78 -34.5 129.5t-79.5 68.5t-82 17q-57 0 -95.5 -25t-53.5 -58t-21 -62q-8 -32 -11.5 -86t-3.5 -111z" />
<glyph unicode="e" horiz-adv-x="1044" d="M90 510q0 170 30.5 288.5t102.5 190.5q54 54 134.5 81.5t195.5 27.5q105 0 176.5 -28t118.5 -73q51 -51 77 -117.5t33 -146t7 -149.5v-131h-619v-35q0 -66 15.5 -110t43.5 -71t67 -38t87 -11q62 0 102 22t60.5 50.5t28.5 46.5l206 -100q-35 -80 -91 -134t-138.5 -80 t-181.5 -26q-155 0 -255.5 54t-150.5 176q-49 117 -49 313zM348 635h365q0 104 -26.5 163t-69 76t-82.5 17q-41 0 -74.5 -12t-57.5 -41.5t-38.5 -78.5t-16.5 -124z" />
<glyph unicode="f" horiz-adv-x="645" d="M12 862v203h135v68q0 188 105 274q89 74 258 74q45 0 90.5 -3.5t73.5 -7.5v-180q-83 8 -125 8q-40 0 -67.5 -10.5t-41.5 -25.5q-20 -23 -27 -54t-7 -82v-61h235v-203h-235v-862h-256v862h-138z" />
<glyph unicode="g" horiz-adv-x="1116" d="M90 551q0 92 6 167t20 122.5t34 85.5q42 85 117.5 128.5t193.5 43.5q72 0 129.5 -23.5t96 -60t58.5 -66.5l7 117h237v-1112q0 -69 -8.5 -121t-29.5 -92t-48 -68q-54 -55 -144 -80.5t-206 -25.5q-173 0 -282.5 55t-151.5 152l227 86q25 -32 54.5 -52.5t66.5 -29t80 -8.5 q113 0 158 57q20 26 24 64t4 87v146q-36 -40 -75.5 -68t-90 -41.5t-104.5 -13.5q-79 0 -136 20.5t-96.5 52.5t-63.5 70.5t-36 73.5q-22 60 -31.5 142.5t-9.5 191.5zM352 551q0 -54 4.5 -107t12.5 -90q14 -66 54.5 -99.5t115.5 -33.5q62 0 108.5 31.5t66 83t19.5 102.5v221 q0 78 -34.5 129.5t-79.5 68.5t-82 17q-57 0 -95.5 -25t-53.5 -58t-21 -62q-15 -60 -15 -178z" />
<glyph unicode="h" horiz-adv-x="1124" d="M127 1475h256v-523q36 45 80.5 79.5t102 50.5t118.5 16q92 0 166.5 -38t111.5 -116t37 -178v-766h-256v721q0 65 -39.5 104t-113.5 39q-66 0 -116 -39.5t-70.5 -94t-20.5 -101.5v-629h-256v1475z" />
<glyph unicode="i" horiz-adv-x="510" d="M127 0v1065h256v-1065h-256zM127 1235v240h256v-240h-256z" />
<glyph unicode="j" horiz-adv-x="518" d="M-63 -176h26q86 0 122.5 21t43 60.5t6.5 84.5v1075h256v-1098q0 -88 -16.5 -155t-65.5 -113q-46 -43 -112 -67.5t-154 -24.5q-52 0 -106 4v213zM135 1233v242h256v-242h-256z" />
<glyph unicode="k" horiz-adv-x="1065" d="M127 0v1475h256v-754l336 344h309l-334 -334l361 -731h-287l-258 547l-127 -127v-420h-256z" />
<glyph unicode="l" horiz-adv-x="510" d="M127 0v1475h256v-1475h-256z" />
<glyph unicode="m" horiz-adv-x="1651" d="M127 0v1065h238l6 -119q36 50 77.5 84t96.5 51t117 17q37 0 74.5 -7t72 -24t63 -46t48.5 -73q40 50 84 83t103.5 50t125.5 17q91 0 160 -38.5t101 -116t32 -177.5v-766h-256v721q0 52 -16 83.5t-47 45.5t-68 14q-65 0 -110 -40.5t-60 -94t-15 -100.5v-629h-256v721 q0 52 -16 83.5t-47 45.5t-68 14q-64 0 -109 -40.5t-60 -94t-15 -100.5v-629h-256z" />
<glyph unicode="n" horiz-adv-x="1104" d="M127 0v1065h238l6 -119q42 52 84 85t99.5 50t119.5 17q52 0 106 -14.5t98.5 -52t72.5 -101.5t28 -164v-766h-256v721q0 65 -34.5 104t-108.5 39q-44 0 -80 -19t-62 -51.5t-40.5 -75t-14.5 -89.5v-629h-256z" />
<glyph unicode="o" horiz-adv-x="1090" d="M90 532q0 85 10 161.5t33 142.5q32 91 95.5 153t146.5 85.5t172 23.5q126 0 213 -40t131 -102t65 -120q23 -66 33 -143t10 -161q0 -85 -10 -162t-33 -143q-33 -91 -95.5 -152t-144.5 -84.5t-169 -23.5q-88 0 -155.5 19t-118 53t-85 82t-55.5 106q-23 66 -33 143t-10 162z M350 532q0 -77 7.5 -133t21.5 -96q23 -65 65.5 -91t102.5 -26q75 0 117 39t58.5 122.5t16.5 184.5q0 78 -7 134t-21 96q-23 66 -64 91.5t-100 25.5q-60 0 -102.5 -25t-65.5 -90q-14 -40 -21.5 -97t-7.5 -135z" />
<glyph unicode="p" horiz-adv-x="1116" d="M127 1065h238l6 -117q32 49 78.5 84.5t100 50.5t105.5 15q118 0 194 -43.5t118 -128.5q37 -75 48 -172t11 -222q0 -109 -9.5 -191t-31.5 -142q-23 -68 -70.5 -123t-115 -82t-146.5 -27q-77 0 -133.5 22.5t-87 50.5t-49.5 50v-483h-256v1458zM383 406q0 -75 31 -128 t76 -71.5t88 -18.5q74 0 117.5 43t56.5 121q3 20 7.5 72t4.5 108q0 57 -3 111t-11 86q-11 48 -35.5 81.5t-60 48.5t-74.5 15q-61 0 -109.5 -30.5t-68 -80t-19.5 -104.5v-253z" />
<glyph unicode="q" horiz-adv-x="1116" d="M90 532q0 124 11 222t49 172q42 85 117.5 128.5t193.5 43.5q72 0 129.5 -23.5t96 -60t58.5 -66.5l7 117h237v-1458h-256v483q-36 -40 -75.5 -67.5t-90 -41.5t-104.5 -14q-79 0 -136 23t-96.5 57.5t-63.5 75t-36 76.5q-22 60 -31.5 142t-9.5 191zM352 532q0 -56 4.5 -110 t8.5 -70q12 -78 55.5 -121t118.5 -43q62 0 109 31.5t66 83.5t19 103v253q0 78 -34.5 129.5t-79.5 68.5t-82 17q-57 0 -95.5 -25t-53.5 -58t-21 -62q-8 -32 -11.5 -86t-3.5 -111z" />
<glyph unicode="r" horiz-adv-x="717" d="M127 0v1065h238l6 -217q18 38 43.5 77t62 70.5t85 51.5t112.5 20h33v-258q-57 6 -76 6q-72 0 -119.5 -27t-76 -71.5t-40.5 -101.5t-12 -117v-498h-256z" />
<glyph unicode="s" horiz-adv-x="995" d="M84 213l215 92q27 -45 61 -73t70 -39t76 -11q61 0 99 14.5t53.5 39t15.5 53.5q0 35 -16.5 56.5t-48 37.5t-79 29.5t-108.5 33.5q-71 25 -111 46q-42 20 -71 42.5t-47 45.5q-22 26 -36.5 65t-18 68t-3.5 47q0 38 8.5 82.5t30.5 85.5q28 53 81 92.5t127.5 58.5t152.5 19 q148 0 249.5 -54t143.5 -165l-207 -95q-9 22 -23.5 42t-36.5 35.5t-52 24.5t-70 9q-85 0 -125 -33q-37 -27 -37 -82q0 -37 35 -66t95 -48.5t118 -34.5q81 -23 134.5 -51t81.5 -56t40 -47q18 -31 30.5 -75t12.5 -103q0 -77 -21 -123.5t-51 -85.5q-30 -37 -85 -66t-120.5 -43 t-128.5 -14q-74 0 -130.5 11t-91 26.5t-60.5 30.5q-53 31 -92.5 78t-59.5 100z" />
<glyph unicode="t" horiz-adv-x="662" d="M20 862v203h136v258h258v-258h217v-203h-217v-495q0 -90 31 -130t108 -40q44 0 88 4v-209q-11 -2 -27 -3t-34.5 -2.5t-38 -2t-37.5 -0.5q-102 0 -169 26.5t-106.5 75.5t-55 119.5t-15.5 159.5v497h-138z" />
<glyph unicode="u" horiz-adv-x="1112" d="M125 301v764h256v-719q0 -65 38.5 -104t112.5 -39q62 0 110 38.5t67.5 94t19.5 102.5v627h256v-1065h-237l-7 119q-39 -49 -80 -81.5t-101.5 -50.5t-121.5 -18q-52 0 -107.5 14.5t-101 52t-75 101.5t-29.5 164z" />
<glyph unicode="v" horiz-adv-x="1026" d="M10 1065h264l246 -721l246 721h250l-379 -1065h-248z" />
<glyph unicode="w" horiz-adv-x="1475" d="M10 1065h264l175 -721l174 721h243l174 -721l174 721h250l-307 -1065h-248l-172 647l-172 -647h-248z" />
<glyph unicode="x" horiz-adv-x="995" d="M20 0l340 539l-325 526h282l187 -326l188 326h273l-326 -520l336 -545h-283l-196 344l-201 -344h-275z" />
<glyph unicode="y" horiz-adv-x="1024" d="M10 1065h266l234 -657l250 657h254l-445 -1149q-52 -133 -111.5 -202.5t-122.5 -88t-120 -18.5q-66 0 -98 8v225q27 -6 59 -6q44 0 73.5 14.5t54 47.5t40.5 75l33 84z" />
<glyph unicode="z" horiz-adv-x="860" d="M31 0v180l473 682h-447v203h758v-180l-473 -682h487v-203h-798z" />
<glyph unicode="{" horiz-adv-x="707" d="M41 429v221q74 6 110.5 17t49 28.5t22.5 42.5q10 29 11.5 69.5t1.5 92.5v161q0 141 24.5 224t72.5 119t103 50q45 12 101.5 16.5t128.5 4.5v-211q-64 0 -100 -5.5t-54 -23.5t-22.5 -55t-4.5 -103v-177q0 -113 -14 -181q-12 -53 -38.5 -99t-78.5 -81q52 -35 77.5 -81 t37.5 -99q14 -68 14 -180v-178q0 -65 4.5 -102t22.5 -55.5t55 -22.5t101 -6v-211q-111 0 -168.5 8t-91.5 23q-60 24 -92.5 62t-49 87t-21.5 108.5t-5 125.5v161q0 121 -15 162q-16 45 -49 61t-133 27z" />
<glyph unicode="|" horiz-adv-x="549" d="M164 -176v1651h221v-1651h-221z" />
<glyph unicode="}" horiz-adv-x="707" d="M41 -396v211q102 2 136 15t40 59.5t6 111.5v178q0 114 15 180q12 53 37.5 99t76.5 81q-51 35 -77.5 81t-38.5 99q-15 66 -15 181v177q0 107 -14 139.5t-58.5 40t-107.5 7.5v211q72 0 128 -4.5t101 -16.5q86 -24 129 -75.5t57.5 -137.5t14.5 -180v-161q0 -125 12 -162 q11 -35 32.5 -52.5t62 -24.5t88.5 -11v-221q-82 -9 -115 -19t-46 -28.5t-22 -40.5q-14 -43 -14 -162v-161q0 -66 -4 -125.5t-21.5 -108.5t-51.5 -87t-91 -62q-37 -17 -94 -24t-166 -7z" />
<glyph unicode="~" horiz-adv-x="1124" d="M31 631q20 40 43.5 77.5t52.5 69.5q43 51 100 83t131 32q51 0 107.5 -19.5t112.5 -44.5q158 -71 186 -71q29 0 56 19.5t48 45.5t70 103l156 -121q-31 -60 -57.5 -97.5t-55.5 -66.5q-43 -42 -97 -69t-120 -27q-53 0 -109 19t-110 44q-161 72 -187 72q-20 0 -40.5 -10 t-43.5 -33q-25 -33 -88 -125z" />
<glyph unicode="&#xa1;" horiz-adv-x="606" d="M156 764v301h295v-301h-295zM158 -410l22 1035h248l23 -1035h-293z" />
<glyph unicode="&#xa2;" d="M145 532q0 138 26.5 251.5t98.5 191.5q47 48 112.5 78t156.5 41v186h153v-186q100 -14 172.5 -58.5t109.5 -107.5t50 -125l-223 -70q-16 57 -40 94t-69 50v-684q44 15 70 48t43 93l217 -74q-35 -124 -119 -196t-211 -91v-249h-153v247q-90 11 -155 38.5t-110 72.5 q-75 74 -102 189t-27 261zM397 532q0 -75 5 -130t18 -95q15 -54 44.5 -81.5t74.5 -41.5v697q-45 -11 -73.5 -42.5t-43.5 -80.5q-14 -45 -19.5 -101t-5.5 -125z" />
<glyph unicode="&#xa3;" d="M106 186q145 120 202 180.5t72 96.5t15 86q0 27 -8 47h-262v186h137q-24 32 -47.5 67t-42 73t-30 80t-11.5 88q0 89 29 156.5t82 115.5q63 57 154.5 85t199.5 28q131 0 227 -36t156 -110q37 -45 63.5 -103t38.5 -130l-254 -52q-11 48 -27.5 86t-41.5 66q-29 32 -71 50 t-105 18q-50 0 -86 -14t-62 -40q-21 -21 -33 -49.5t-12 -60.5q0 -44 15.5 -82.5t39.5 -75.5q1 -3 44.5 -59t51.5 -65.5t27 -35.5h99h266v-186h-283v-18q0 -88 -22 -152t-63 -115t-91 -98h586v-213h-953v186z" />
<glyph unicode="&#xa4;" d="M115 399l114 117q-63 98 -63 221q0 62 17 119t48 107l-116 118l125 125l116 -119q48 31 104 48.5t118 17.5q57 0 112 -17t111 -49l119 119l122 -125l-116 -118q31 -48 48 -105.5t17 -120.5q0 -120 -63 -221l116 -117l-124 -125l-115 117q-100 -65 -227 -65q-62 0 -119 17 t-107 48l-114 -117zM336 737q0 -50 19 -94t52 -76.5t77 -51.5t94 -19q71 0 132.5 39t86 95.5t24.5 106.5q0 74 -40 133.5t-96 84t-107 24.5q-50 0 -94 -19t-77 -52t-52 -77t-19 -94z" />
<glyph unicode="&#xa5;" d="M10 1442h279l286 -608l297 608h277l-361 -670h248v-180h-336v-166h336v-180h-336v-246h-262v246h-317v180h317v166h-317v180h233z" />
<glyph unicode="&#xa6;" horiz-adv-x="549" d="M164 -174v549h221v-549h-221zM164 926v549h221v-549h-221z" />
<glyph unicode="&#xa7;" horiz-adv-x="1012" d="M82 -23l194 82q22 -61 48.5 -98.5t56.5 -58.5t63.5 -28t69.5 -7q63 0 99.5 20.5t48.5 52t12 60.5t-17 56.5t-44.5 52t-62.5 47.5t-71 43l-70 38q-34 18 -59 33q-46 28 -89 61t-76.5 73t-53.5 88t-20 106q0 63 27 123t73.5 97t99.5 54q-55 39 -98.5 90t-60.5 101t-17 100 q0 93 50 169.5t136.5 109.5t188.5 33q161 0 258 -71t141 -224l-196 -66q-14 50 -29 80t-37 51q-26 26 -61 37.5t-70 11.5q-64 0 -102.5 -22t-49 -52t-10.5 -55q0 -37 24.5 -67.5t64.5 -58t91 -54.5l105 -57q105 -61 166.5 -113.5t93 -119.5t31.5 -136q0 -58 -27.5 -115.5 t-73 -95.5t-96.5 -59q80 -54 126 -125t46 -174q0 -63 -22 -115t-64 -90q-52 -51 -129.5 -77.5t-173.5 -26.5q-161 0 -268 71t-166 225zM334 604q0 -43 27 -77.5t70.5 -62t92.5 -54.5q54 1 99 22t64.5 55.5t19.5 69.5q0 55 -41 95.5t-142 99.5q-64 -2 -108.5 -23t-63 -54 t-18.5 -71z" />
<glyph unicode="&#xa8;" horiz-adv-x="702" d="M74 1212v203h225v-203h-225zM403 1212v203h226v-203h-226z" />
<glyph unicode="&#xa9;" horiz-adv-x="1663" d="M61 737q0 142 48 269t133 228t194 164.5t208 86t187 22.5q106 0 205 -27.5t184.5 -77.5t156 -120t120.5 -156t77.5 -184.5t27.5 -204.5q0 -139 -48 -267.5t-132 -228.5t-194 -164.5t-209.5 -87t-187.5 -22.5q-106 0 -204.5 27.5t-184 77.5t-156 120t-120.5 156 t-77.5 184.5t-27.5 204.5zM233 737q0 -123 47.5 -231.5t129 -190t190 -129t231.5 -47.5t232 47.5t190.5 129t129 190t47.5 231.5q0 82 -21.5 158t-61 142.5t-94 121.5t-121 94t-143 60.5t-158.5 21.5q-125 0 -242 -52t-200.5 -145.5t-119.5 -196.5t-36 -204zM459 723 q0 63 9.5 121.5t31.5 109.5q30 72 83 119t120 65.5t137 18.5q116 0 196.5 -53t124.5 -174l-170 -58q-25 57 -52 86t-52.5 36t-46.5 7q-59 0 -96 -16.5t-56 -54.5q-39 -87 -39 -207q0 -50 6 -102.5t29 -94.5q20 -34 56 -55.5t96 -21.5q36 0 67 14t55.5 48t42.5 79l166 -55 q-44 -131 -127.5 -188.5t-212.5 -57.5q-69 0 -122.5 15.5t-93.5 43t-67.5 65.5t-45.5 83q-22 51 -30.5 109t-8.5 118z" />
<glyph unicode="&#xaa;" horiz-adv-x="758" d="M66 981q0 90 51 143q30 30 64.5 46t88 23t105.5 7h121v25q0 112 -107 112q-44 0 -72 -10.5t-42.5 -30t-26.5 -41.5l-154 56q38 92 112.5 128t186.5 36q116 0 178 -37.5t80.5 -94t18.5 -110.5v-457h-156l-6 47q-42 -34 -87 -48.5t-99 -14.5q-63 0 -115 19t-86 55 q-26 27 -40.5 64t-14.5 83zM244 977q0 -40 28 -58t80 -18q45 0 81.5 17t49.5 39t13 38v70h-111q-78 0 -109.5 -22.5t-31.5 -65.5z" />
<glyph unicode="&#xab;" horiz-adv-x="1182" d="M72 520l385 496l190 -92l-270 -404l270 -403l-190 -92zM535 520l385 496l190 -92l-270 -404l270 -403l-190 -92z" />
<glyph unicode="&#xac;" d="M129 836v200h897l4 -594h-201v394h-700z" />
<glyph unicode="&#xad;" horiz-adv-x="750" d="M72 416v227h606v-227h-606z" />
<glyph unicode="&#xae;" horiz-adv-x="1663" d="M61 737q0 142 48 269t133 228t194 164.5t208 86t187 22.5q106 0 205 -27.5t184.5 -77.5t156 -120t120.5 -156t77.5 -184.5t27.5 -204.5q0 -139 -48 -267.5t-132 -228.5t-194 -164.5t-209.5 -87t-187.5 -22.5q-106 0 -204.5 27.5t-184 77.5t-156 120t-120.5 156 t-77.5 184.5t-27.5 204.5zM233 737q0 -123 47.5 -231.5t129 -190t190 -129t231.5 -47.5t232 47.5t190.5 129t129 190t47.5 231.5q0 82 -21.5 158t-61 142.5t-94 121.5t-121 94t-143 60.5t-158.5 21.5q-125 0 -242 -52t-200.5 -145.5t-119.5 -196.5t-36 -204zM518 307v832 h348q101 0 165.5 -41.5t86 -101.5t21.5 -117q0 -88 -31 -139.5t-84 -80.5l168 -352h-201l-141 311h-154v-311h-178zM696 770h150q54 0 80 23.5t26 85.5q0 48 -15 71.5t-43 30t-63 6.5h-135v-217z" />
<glyph unicode="&#xaf;" horiz-adv-x="702" d="M39 1217v192h625v-192h-625z" />
<glyph unicode="&#xb0;" horiz-adv-x="725" d="M51 1196q0 95 51.5 171.5t123 108t136.5 31.5q96 0 172 -51.5t108 -123.5t32 -136q0 -65 -24.5 -121.5t-66.5 -98.5t-99 -66.5t-122 -24.5t-121.5 24.5t-98.5 66.5t-66.5 98.5t-24.5 121.5zM225 1196q0 -28 11 -53t30 -43.5t44 -29.5t52 -11q39 0 74 22t49.5 54.5 t14.5 60.5q0 41 -23 74.5t-55.5 48t-59.5 14.5q-41 0 -75 -23.5t-48 -54.5t-14 -59z" />
<glyph unicode="&#xb1;" d="M131 0v205h897v-205h-897zM131 645v205h348v336h201v-336h348v-205h-348v-336h-201v336h-348z" />
<glyph unicode="&#xb2;" horiz-adv-x="807" d="M61 592v139l293 252q80 69 116.5 119t42 77t5.5 42q0 29 -12.5 48t-39 29.5t-58.5 10.5q-60 0 -93 -40.5t-43 -123.5l-211 12q3 51 20 107t57 103t108.5 77.5t175.5 30.5q129 0 204.5 -44t97 -103.5t21.5 -106.5q0 -101 -66 -187.5t-149 -149.5l-145 -110h360v-182h-684z " />
<glyph unicode="&#xb3;" horiz-adv-x="807" d="M37 864l215 15q6 -48 23.5 -79t46 -43t61.5 -12q69 0 102 38.5t33 107.5q0 56 -31 91.5t-94 35.5q-57 0 -127 -35l-69 111l280 204h-387v158h615v-162l-209 -151q123 -3 186 -72.5t63 -187.5q0 -77 -25.5 -135t-71 -97t-109.5 -58.5t-142 -19.5q-88 0 -151.5 18t-106 54 t-67 90.5t-35.5 128.5z" />
<glyph unicode="&#xb4;" horiz-adv-x="702" d="M162 1200l110 260h269l-228 -260h-151z" />
<glyph unicode="&#xb5;" horiz-adv-x="1114" d="M127 -393v1458h256v-703q0 -84 42.5 -121.5t109.5 -37.5q70 0 117.5 39.5t63 94t15.5 101.5v627h256v-1065h-237l-7 119q-24 -51 -57 -85t-75 -49.5t-85 -15.5q-46 0 -84.5 23t-64.5 51v-436h-250z" />
<glyph unicode="&#xb6;" horiz-adv-x="1262" d="M70 1034q0 65 20 127.5t57.5 116t91 94.5t121.5 64q65 18 134 28q81 11 157 11h588v-213h-111v-1655h-213v1655h-194v-1655h-215v977q-9 0 -19.5 1t-19.5 1q-93 11 -164.5 46t-122.5 91q-54 60 -82 139t-28 172z" />
<glyph unicode="&#xb7;" horiz-adv-x="502" d="M113 582v276h276v-276h-276z" />
<glyph unicode="&#xb8;" horiz-adv-x="702" d="M145 -397l9 127h21q30 0 69 3.5t61 8.5q23 6 38 16t15 27q0 11 -14.5 19.5t-54 13t-99.5 4.5l62 178h170l-33 -86q54 -7 93.5 -27.5t57 -50.5t17.5 -65q0 -44 -24.5 -77t-69.5 -54q-89 -43 -244 -43q-28 0 -74 6z" />
<glyph unicode="&#xb9;" horiz-adv-x="807" d="M90 1327l297 148h154v-719h151v-164h-522v164h162v489l-164 -71z" />
<glyph unicode="&#xba;" horiz-adv-x="758" d="M61 1114q0 53 8.5 102t26.5 93q25 57 68.5 96.5t99.5 54.5t115 15q84 0 143 -25t91.5 -64.5t48.5 -76.5q18 -44 26 -93t8 -102q0 -45 -6 -91.5t-24 -92.5q-25 -61 -71.5 -103t-103 -57.5t-112.5 -15.5q-58 0 -103.5 12t-80 34t-59 52.5t-40.5 67.5q-18 43 -26.5 92 t-8.5 102zM244 1114q0 -62 8 -102q6 -26 14 -47t22.5 -36t36 -23.5t54.5 -8.5q60 0 86.5 28.5t40.5 86.5q8 40 8 102q0 60 -8 100q-10 41 -24.5 66t-42.5 37t-60 12q-44 0 -72 -17.5t-39 -45t-16 -52.5q-8 -40 -8 -100z" />
<glyph unicode="&#xbb;" horiz-adv-x="1182" d="M72 117l270 403l-270 404l190 92l385 -496l-385 -495zM535 117l270 403l-270 404l190 92l385 -496l-385 -495z" />
<glyph unicode="&#xbc;" horiz-adv-x="1841" d="M23 1327l297 148h154v-719h151v-164h-522v164h162v489l-164 -71zM534 -33l508 1508h225l-507 -1508h-226zM1001 144v146l422 584h207v-576h80v-154h-80v-153h-205v153h-424zM1214 298h219v318z" />
<glyph unicode="&#xbd;" horiz-adv-x="1841" d="M23 1327l297 148h154v-719h151v-164h-522v164h162v489l-164 -71zM514 -33l508 1508h225l-507 -1508h-226zM1056 -9v139l293 252q80 69 116.5 119t42 77t5.5 42q0 29 -12.5 48t-39 29.5t-58.5 10.5q-60 0 -93 -40.5t-43 -123.5l-211 12q3 51 20 107t57 103t108.5 77.5 t175.5 30.5q129 0 204.5 -44t97 -103.5t21.5 -106.5q0 -101 -66 -187.5t-149 -148.5l-145 -111h360v-182h-684z" />
<glyph unicode="&#xbe;" horiz-adv-x="1841" d="M25 864l215 15q6 -48 23.5 -79t46 -43t61.5 -12q69 0 102 38.5t33 107.5q0 56 -31 91.5t-94 35.5q-57 0 -127 -35l-69 111l280 204h-387v158h615v-162l-209 -151q123 -3 186 -72.5t63 -187.5q0 -77 -25.5 -135t-71 -97t-109.5 -58.5t-142 -19.5q-88 0 -151.5 18t-106 54 t-67 90.5t-35.5 128.5zM562 -33l508 1508h225l-507 -1508h-226zM1021 144v146l422 584h207v-576h80v-154h-80v-153h-205v153h-424zM1234 298h219v318z" />
<glyph unicode="&#xbf;" horiz-adv-x="975" d="M49 -43q0 73 25.5 137.5t61.5 107.5t65 70l78 72q38 34 66 71t44.5 82.5t16.5 108.5v19h256v-23q0 -124 -44 -215.5t-97 -141.5l-91 -83q-45 -40 -74 -75t-39 -66t-10 -64q0 -37 10.5 -65t28.5 -48q46 -45 135 -45q63 0 103 19.5t65 50.5q28 37 39.5 84.5t18.5 95.5 l249 -35q-15 -94 -45 -172t-94 -135q-57 -50 -139 -83.5t-197 -33.5q-229 0 -346 123q-42 44 -64 107t-22 137zM389 764v301h293v-301h-293z" />
<glyph unicode="&#xc0;" horiz-adv-x="1214" d="M10 0l447 1475h262l485 -1475h-280l-101 340h-458l-95 -340h-260zM326 1808h268l111 -260h-152zM430 575h324l-168 564z" />
<glyph unicode="&#xc1;" horiz-adv-x="1214" d="M10 0l447 1475h262l485 -1475h-280l-101 340h-458l-95 -340h-260zM430 575h324l-168 564zM490 1548l110 260h269l-228 -260h-151z" />
<glyph unicode="&#xc2;" horiz-adv-x="1214" d="M10 0l447 1475h262l485 -1475h-280l-101 340h-458l-95 -340h-260zM289 1546l225 260h178l218 -260h-226l-82 100l-86 -100h-227zM430 575h324l-168 564z" />
<glyph unicode="&#xc3;" horiz-adv-x="1214" d="M10 0l447 1475h262l485 -1475h-280l-101 340h-458l-95 -340h-260zM286 1542v47q0 85 25 132.5t61.5 61t73.5 13.5q51 0 133 -31q72 -35 90 -35q23 0 35.5 14.5t20.5 59.5h141v-47q0 -59 -11.5 -98t-33.5 -64t-51 -35t-64 -10q-37 0 -68 9t-59 20q-82 37 -96 37 q-18 0 -29 -8t-16.5 -24.5t-9.5 -41.5h-142zM430 575h324l-168 564z" />
<glyph unicode="&#xc4;" horiz-adv-x="1214" d="M10 0l447 1475h262l485 -1475h-280l-101 340h-458l-95 -340h-260zM314 1560v203h225v-203h-225zM430 575h324l-168 564zM643 1560v203h226v-203h-226z" />
<glyph unicode="&#xc5;" horiz-adv-x="1214" d="M10 0l432 1430q-21 23 -34 54t-13 66q0 39 14.5 71.5t39.5 55.5q26 25 61 39.5t76 14.5q37 0 71 -13.5t60 -38.5q26 -24 41.5 -57t15.5 -72q0 -48 -22 -90q-18 -22 -21 -24l473 -1436h-280l-105 340h-452l-97 -340h-260zM434 575h314l-162 533zM504 1548q0 -31 22.5 -52 t59.5 -21q25 0 44 11.5t28.5 29t9.5 32.5q0 33 -23 54q-30 24 -59 24q-36 0 -60 -22q-22 -24 -22 -56z" />
<glyph unicode="&#xc6;" horiz-adv-x="1745" d="M10 0l772 1475h875v-226h-574v-379h545v-225h-545v-420h590v-225h-844v369h-366l-187 -369h-266zM567 578h262v520z" />
<glyph unicode="&#xc7;" horiz-adv-x="1212" d="M111 737q0 97 8.5 191.5t31.5 180t63.5 158.5t103.5 126.5t152 83.5t210 30q141 0 239.5 -50t151 -133t78.5 -167l-246 -94q-24 89 -57 136t-80.5 66t-101.5 19q-81 0 -133.5 -39.5t-83.5 -111t-43.5 -172.5t-12.5 -224q0 -269 67 -405.5t204 -136.5q75 0 122.5 29.5 t74 87t44.5 124.5l254 -96q-35 -133 -105.5 -218t-175.5 -120t-223 -35q-112 0 -195.5 31.5t-143.5 86.5t-99.5 129t-62.5 159.5t-32 178.5t-9 185zM442 -397l9 127h21q30 0 69 3.5t61 8.5q23 6 38 16t15 27q0 11 -14.5 19.5t-54 13t-99.5 4.5l62 178h170l-33 -86 q54 -7 93.5 -27.5t57 -50.5t17.5 -65q0 -44 -24.5 -77t-69.5 -54q-89 -43 -244 -43q-28 0 -74 6z" />
<glyph unicode="&#xc8;" horiz-adv-x="1090" d="M162 0v1475h839v-242h-577v-354h549v-242h-549v-395h594v-242h-856zM326 1808h268l111 -260h-152z" />
<glyph unicode="&#xc9;" horiz-adv-x="1090" d="M162 0v1475h839v-242h-577v-354h549v-242h-549v-395h594v-242h-856zM490 1548l110 260h269l-228 -260h-151z" />
<glyph unicode="&#xca;" horiz-adv-x="1090" d="M162 0v1475h839v-242h-577v-354h549v-242h-549v-395h594v-242h-856zM266 1546l225 260h178l218 -260h-226l-82 100l-86 -100h-227z" />
<glyph unicode="&#xcb;" horiz-adv-x="1090" d="M162 0v1475h839v-242h-577v-354h549v-242h-549v-395h594v-242h-856zM293 1560v203h225v-203h-225zM622 1560v203h226v-203h-226z" />
<glyph unicode="&#xcc;" horiz-adv-x="586" d="M42 1808h268l111 -260h-152zM162 0v1475h262v-1475h-262z" />
<glyph unicode="&#xcd;" horiz-adv-x="586" d="M162 0v1475h262v-1475h-262zM172 1548l110 260h269l-228 -260h-151z" />
<glyph unicode="&#xce;" horiz-adv-x="586" d="M-11 1546l225 260h178l218 -260h-226l-82 100l-86 -100h-227zM162 0v1475h262v-1475h-262z" />
<glyph unicode="&#xcf;" horiz-adv-x="586" d="M20 1560v203h225v-203h-225zM162 0v1475h262v-1475h-262zM349 1560v203h226v-203h-226z" />
<glyph unicode="&#xd0;" horiz-adv-x="1296" d="M37 670v178h125v627h360q146 0 243.5 -22t159 -61t105.5 -83q86 -89 121 -222t35 -307q0 -156 -20 -278t-67.5 -214t-111.5 -149q-64 -56 -125.5 -86.5t-133 -41.5t-146.5 -11h-420v670h-125zM424 233h80q79 0 133.5 10.5t85 28.5t55.5 41q46 42 75.5 111.5t40.5 162 t11 193.5q0 107 -13.5 182t-38 118.5t-50.5 70.5q-37 36 -77.5 55t-100 27t-121.5 8h-80v-393h207v-178h-207v-437z" />
<glyph unicode="&#xd1;" horiz-adv-x="1327" d="M162 0v1475h274l475 -988v988h254v-1475h-262l-487 1006v-1006h-254zM372 1542v47q0 85 25 132.5t61.5 61t73.5 13.5q51 0 133 -31q72 -35 90 -35q23 0 35.5 14.5t20.5 59.5h141v-47q0 -59 -11.5 -98t-33.5 -64t-51 -35t-64 -10q-37 0 -68 9t-59 20q-82 37 -96 37 q-18 0 -29 -8t-16.5 -24.5t-9.5 -41.5h-142z" />
<glyph unicode="&#xd2;" horiz-adv-x="1356" d="M111 737q0 113 11 218t42 198q25 78 66.5 143.5t103.5 112t147 72.5t197 26q160 0 271 -55t163.5 -138t79.5 -161q31 -93 42 -198t11 -218q0 -112 -11 -217.5t-42 -197.5q-26 -78 -67 -143.5t-103 -112.5t-147 -73t-197 -26t-197 26t-147 73t-103.5 112.5t-66.5 143.5 q-31 92 -42 197.5t-11 217.5zM389 737q0 -99 4.5 -179.5t15 -124t23.5 -75.5q25 -70 66.5 -110t88.5 -50t91 -10q68 0 115.5 20t78 60t50.5 90q23 60 33 148.5t10 230.5q0 137 -10 225.5t-33 149.5q-28 71 -68.5 110t-87 49.5t-88.5 10.5q-69 0 -120 -21t-80 -60.5 t-46 -88.5q-28 -70 -35.5 -157.5t-7.5 -217.5zM449 1808h268l111 -260h-152z" />
<glyph unicode="&#xd3;" horiz-adv-x="1356" d="M111 737q0 113 11 218t42 198q25 78 66.5 143.5t103.5 112t147 72.5t197 26q160 0 271 -55t163.5 -138t79.5 -161q31 -93 42 -198t11 -218q0 -112 -11 -217.5t-42 -197.5q-26 -78 -67 -143.5t-103 -112.5t-147 -73t-197 -26t-197 26t-147 73t-103.5 112.5t-66.5 143.5 q-31 92 -42 197.5t-11 217.5zM389 737q0 -99 4.5 -179.5t15 -124t23.5 -75.5q25 -70 66.5 -110t88.5 -50t91 -10q68 0 115.5 20t78 60t50.5 90q23 60 33 148.5t10 230.5q0 137 -10 225.5t-33 149.5q-28 71 -68.5 110t-87 49.5t-88.5 10.5q-69 0 -120 -21t-80 -60.5 t-46 -88.5q-28 -70 -35.5 -157.5t-7.5 -217.5zM551 1548l110 260h269l-228 -260h-151z" />
<glyph unicode="&#xd4;" horiz-adv-x="1356" d="M111 737q0 113 11 218t42 198q25 78 66.5 143.5t103.5 112t147 72.5t197 26q160 0 271 -55t163.5 -138t79.5 -161q31 -93 42 -198t11 -218q0 -112 -11 -217.5t-42 -197.5q-26 -78 -67 -143.5t-103 -112.5t-147 -73t-197 -26t-197 26t-147 73t-103.5 112.5t-66.5 143.5 q-31 92 -42 197.5t-11 217.5zM369 1546l225 260h178l218 -260h-226l-82 100l-86 -100h-227zM389 737q0 -99 4.5 -179.5t15 -124t23.5 -75.5q25 -70 66.5 -110t88.5 -50t91 -10q68 0 115.5 20t78 60t50.5 90q23 60 33 148.5t10 230.5q0 137 -10 225.5t-33 149.5 q-28 71 -68.5 110t-87 49.5t-88.5 10.5q-69 0 -120 -21t-80 -60.5t-46 -88.5q-28 -70 -35.5 -157.5t-7.5 -217.5z" />
<glyph unicode="&#xd5;" horiz-adv-x="1356" d="M111 737q0 113 11 218t42 198q25 78 66.5 143.5t103.5 112t147 72.5t197 26q160 0 271 -55t163.5 -138t79.5 -161q31 -93 42 -198t11 -218q0 -112 -11 -217.5t-42 -197.5q-26 -78 -67 -143.5t-103 -112.5t-147 -73t-197 -26t-197 26t-147 73t-103.5 112.5t-66.5 143.5 q-31 92 -42 197.5t-11 217.5zM378 1542v47q0 85 25 132.5t61.5 61t73.5 13.5q51 0 133 -31q72 -35 90 -35q23 0 35.5 14.5t20.5 59.5h141v-47q0 -59 -11.5 -98t-33.5 -64t-51 -35t-64 -10q-37 0 -68 9t-59 20q-82 37 -96 37q-18 0 -29 -8t-16.5 -24.5t-9.5 -41.5h-142z M389 737q0 -99 4.5 -179.5t15 -124t23.5 -75.5q25 -70 66.5 -110t88.5 -50t91 -10q68 0 115.5 20t78 60t50.5 90q23 60 33 148.5t10 230.5q0 137 -10 225.5t-33 149.5q-28 71 -68.5 110t-87 49.5t-88.5 10.5q-69 0 -120 -21t-80 -60.5t-46 -88.5q-28 -70 -35.5 -157.5 t-7.5 -217.5z" />
<glyph unicode="&#xd6;" horiz-adv-x="1356" d="M111 737q0 113 11 218t42 198q25 78 66.5 143.5t103.5 112t147 72.5t197 26q160 0 271 -55t163.5 -138t79.5 -161q31 -93 42 -198t11 -218q0 -112 -11 -217.5t-42 -197.5q-26 -78 -67 -143.5t-103 -112.5t-147 -73t-197 -26t-197 26t-147 73t-103.5 112.5t-66.5 143.5 q-31 92 -42 197.5t-11 217.5zM389 737q0 -99 4.5 -179.5t15 -124t23.5 -75.5q25 -70 66.5 -110t88.5 -50t91 -10q68 0 115.5 20t78 60t50.5 90q23 60 33 148.5t10 230.5q0 137 -10 225.5t-33 149.5q-28 71 -68.5 110t-87 49.5t-88.5 10.5q-69 0 -120 -21t-80 -60.5 t-46 -88.5q-28 -70 -35.5 -157.5t-7.5 -217.5zM402 1560v203h225v-203h-225zM731 1560v203h226v-203h-226z" />
<glyph unicode="&#xd7;" d="M197 453l260 286l-260 287l127 129l256 -281l256 281l127 -129l-261 -287l261 -286l-127 -129l-256 280l-256 -280z" />
<glyph unicode="&#xd8;" horiz-adv-x="1356" d="M109 737q0 113 12 218t41 198q26 78 67.5 143.5t103.5 112t146.5 72.5t196.5 26q103 0 183 -22t140 -64l93 148l155 -94l-119 -189q23 -34 40.5 -73t29.5 -83q26 -88 36.5 -187t10.5 -206q0 -112 -12 -217.5t-41 -197.5q-26 -78 -68 -143.5t-104 -112.5t-146.5 -73 t-195.5 -26q-102 0 -182 22t-140 62l-90 -145l-155 94l116 184q-23 35 -40 74t-31 82q-26 88 -36.5 188.5t-10.5 208.5zM387 737q0 -88 3 -155t11 -119l465 745h2q-37 42 -84 58t-106 16q-69 0 -120 -21t-80 -60.5t-46 -88.5q-27 -67 -36 -151.5t-9 -223.5zM485 260 q38 -40 85 -56t106 -16q68 0 115.5 20t78 60t50.5 90q25 63 35 155t10 224q0 82 -3.5 146t-11.5 116z" />
<glyph unicode="&#xd9;" horiz-adv-x="1303" d="M143 469v1006h263v-994q0 -77 14.5 -129.5t44 -85t75.5 -47t109 -14.5q97 0 152.5 33.5t74.5 99.5t19 143v994h264v-1006q0 -139 -35.5 -235t-101.5 -155t-160.5 -85.5t-212.5 -26.5q-117 0 -211 26.5t-159.5 85.5t-100.5 155t-35 235zM387 1808h268l111 -260h-152z" />
<glyph unicode="&#xda;" horiz-adv-x="1303" d="M143 469v1006h263v-994q0 -77 14.5 -129.5t44 -85t75.5 -47t109 -14.5q97 0 152.5 33.5t74.5 99.5t19 143v994h264v-1006q0 -139 -35.5 -235t-101.5 -155t-160.5 -85.5t-212.5 -26.5q-117 0 -211 26.5t-159.5 85.5t-100.5 155t-35 235zM551 1548l110 260h269l-228 -260 h-151z" />
<glyph unicode="&#xdb;" horiz-adv-x="1303" d="M143 469v1006h263v-994q0 -77 14.5 -129.5t44 -85t75.5 -47t109 -14.5q97 0 152.5 33.5t74.5 99.5t19 143v994h264v-1006q0 -139 -35.5 -235t-101.5 -155t-160.5 -85.5t-212.5 -26.5q-117 0 -211 26.5t-159.5 85.5t-100.5 155t-35 235zM342 1546l225 260h178l218 -260 h-226l-82 100l-86 -100h-227z" />
<glyph unicode="&#xdc;" horiz-adv-x="1303" d="M143 469v1006h263v-994q0 -77 14.5 -129.5t44 -85t75.5 -47t109 -14.5q97 0 152.5 33.5t74.5 99.5t19 143v994h264v-1006q0 -139 -35.5 -235t-101.5 -155t-160.5 -85.5t-212.5 -26.5q-117 0 -211 26.5t-159.5 85.5t-100.5 155t-35 235zM369 1560v203h225v-203h-225z M698 1560v203h226v-203h-226z" />
<glyph unicode="&#xdd;" horiz-adv-x="1141" d="M10 1475h281l280 -623l291 623h268l-440 -877v-598h-262v598zM479 1548l110 260h269l-228 -260h-151z" />
<glyph unicode="&#xde;" horiz-adv-x="1178" d="M162 0v1475h262v-238h217q175 0 283.5 -75.5t143 -180t34.5 -199.5q0 -101 -28 -184.5t-88.5 -144t-156 -94t-229.5 -33.5h-176v-326h-262zM424 543h174q111 0 168 56.5t57 184.5q0 95 -29.5 146t-90 70.5t-132.5 19.5h-147v-477z" />
<glyph unicode="&#xdf;" horiz-adv-x="1130" d="M127 0v1069q0 100 25.5 174t74.5 125q108 111 318 111q103 0 184 -25t135 -76q47 -43 72 -105t25 -147q0 -55 -13 -108.5t-47 -99.5q-17 -23 -39 -44t-51 -38q53 -19 90.5 -47t63.5 -62q42 -57 58.5 -134t16.5 -167q0 -119 -31 -204.5t-85 -139.5q-50 -48 -113 -71 t-135 -23q-59 0 -101.5 4t-80.5 12v215q62 -12 104 -12q43 0 73 9t52 28q34 29 45.5 78.5t11.5 115.5q0 76 -13 129.5t-50 85.5q-28 25 -73 37t-112 12h-38v213h24q43 0 79 14t60 42q22 26 35 63t13 86q0 38 -9 68.5t-26 50.5q-40 43 -119 43q-45 0 -73.5 -15t-47.5 -38 q-25 -31 -32 -69.5t-7 -65.5v-1094h-264z" />
<glyph unicode="&#xe0;" horiz-adv-x="1069" d="M80 328q0 63 15.5 112.5t43.5 87.5q53 70 141.5 102t196.5 32h215v71q0 82 -45 116t-119 34q-61 0 -99.5 -15t-57.5 -39t-31 -49l-225 72q41 120 144.5 183t279.5 63q103 0 188 -28.5t137 -90.5q46 -54 63 -112t17 -134v-733h-237l-7 92q-31 -38 -75.5 -66t-97.5 -42.5 t-101 -14.5q-91 0 -161 32.5t-115 94.5q-70 91 -70 232zM305 1460h268l111 -260h-152zM338 334q0 -66 37 -103q20 -18 50.5 -28t80.5 -10q54 0 102 27t67 61.5t19 66.5v123h-170q-78 0 -120.5 -20.5t-54 -53t-11.5 -63.5z" />
<glyph unicode="&#xe1;" horiz-adv-x="1069" d="M80 328q0 63 15.5 112.5t43.5 87.5q53 70 141.5 102t196.5 32h215v71q0 82 -45 116t-119 34q-61 0 -99.5 -15t-57.5 -39t-31 -49l-225 72q41 120 144.5 183t279.5 63q103 0 188 -28.5t137 -90.5q46 -54 63 -112t17 -134v-733h-237l-7 92q-31 -38 -75.5 -66t-97.5 -42.5 t-101 -14.5q-91 0 -161 32.5t-115 94.5q-70 91 -70 232zM338 334q0 -66 37 -103q20 -18 50.5 -28t80.5 -10q54 0 102 27t67 61.5t19 66.5v123h-170q-78 0 -120.5 -20.5t-54 -53t-11.5 -63.5zM428 1200l110 260h269l-228 -260h-151z" />
<glyph unicode="&#xe2;" horiz-adv-x="1069" d="M80 328q0 63 15.5 112.5t43.5 87.5q53 70 141.5 102t196.5 32h215v71q0 82 -45 116t-119 34q-61 0 -99.5 -15t-57.5 -39t-31 -49l-225 72q41 120 144.5 183t279.5 63q103 0 188 -28.5t137 -90.5q46 -54 63 -112t17 -134v-733h-237l-7 92q-31 -38 -75.5 -66t-97.5 -42.5 t-101 -14.5q-91 0 -161 32.5t-115 94.5q-70 91 -70 232zM229 1198l225 260h178l218 -260h-226l-82 100l-86 -100h-227zM338 334q0 -66 37 -103q20 -18 50.5 -28t80.5 -10q54 0 102 27t67 61.5t19 66.5v123h-170q-78 0 -120.5 -20.5t-54 -53t-11.5 -63.5z" />
<glyph unicode="&#xe3;" horiz-adv-x="1069" d="M80 328q0 63 15.5 112.5t43.5 87.5q53 70 141.5 102t196.5 32h215v71q0 82 -45 116t-119 34q-61 0 -99.5 -15t-57.5 -39t-31 -49l-225 72q41 120 144.5 183t279.5 63q103 0 188 -28.5t137 -90.5q46 -54 63 -112t17 -134v-733h-237l-7 92q-31 -38 -75.5 -66t-97.5 -42.5 t-101 -14.5q-91 0 -161 32.5t-115 94.5q-70 91 -70 232zM256 1194v47q0 85 25 132.5t61.5 61t73.5 13.5q51 0 133 -31q72 -35 90 -35q23 0 35.5 14.5t20.5 59.5h141v-47q0 -59 -11.5 -98t-33.5 -64t-51 -35t-64 -10q-37 0 -68 9t-59 20q-82 37 -96 37q-18 0 -29 -8 t-16.5 -24.5t-9.5 -41.5h-142zM338 334q0 -66 37 -103q20 -18 50.5 -28t80.5 -10q54 0 102 27t67 61.5t19 66.5v123h-170q-78 0 -120.5 -20.5t-54 -53t-11.5 -63.5z" />
<glyph unicode="&#xe4;" horiz-adv-x="1069" d="M80 328q0 63 15.5 112.5t43.5 87.5q53 70 141.5 102t196.5 32h215v71q0 82 -45 116t-119 34q-61 0 -99.5 -15t-57.5 -39t-31 -49l-225 72q41 120 144.5 183t279.5 63q103 0 188 -28.5t137 -90.5q46 -54 63 -112t17 -134v-733h-237l-7 92q-31 -38 -75.5 -66t-97.5 -42.5 t-101 -14.5q-91 0 -161 32.5t-115 94.5q-70 91 -70 232zM275 1212v203h225v-203h-225zM338 334q0 -66 37 -103q20 -18 50.5 -28t80.5 -10q54 0 102 27t67 61.5t19 66.5v123h-170q-78 0 -120.5 -20.5t-54 -53t-11.5 -63.5zM604 1212v203h226v-203h-226z" />
<glyph unicode="&#xe5;" horiz-adv-x="1069" d="M80 328q0 63 15.5 112.5t43.5 87.5q53 70 141.5 102t196.5 32h215v71q0 82 -45 116t-119 34q-61 0 -99.5 -15t-57.5 -39t-31 -49l-225 72q41 120 144.5 183t279.5 63q103 0 188 -28.5t137 -90.5q46 -54 63 -112t17 -134v-733h-237l-7 92q-31 -38 -75.5 -66t-97.5 -42.5 t-101 -14.5q-91 0 -161 32.5t-115 94.5q-70 91 -70 232zM338 334q0 -66 37 -103q20 -18 50.5 -28t80.5 -10q54 0 102 27t67 61.5t19 66.5v123h-170q-78 0 -120.5 -20.5t-54 -53t-11.5 -63.5zM375 1333q0 38 14 71t39 56q26 25 61.5 39t75.5 14q37 0 71 -13t60 -38 q26 -24 42 -57.5t16 -71.5q0 -76 -54 -127q-29 -28 -63 -40.5t-72 -12.5q-40 0 -74.5 14t-60 38t-40.5 57t-15 71zM483 1331q0 -31 22.5 -52.5t59.5 -21.5q25 0 43.5 11t28.5 29.5t10 33.5q0 34 -22 53q-31 25 -60 25q-17 0 -32.5 -6t-26.5 -17t-17 -24.5t-6 -30.5z" />
<glyph unicode="&#xe6;" horiz-adv-x="1640" d="M80 328q0 63 15.5 111t43.5 85q53 66 141.5 94.5t196.5 28.5h215v86q0 63 -25.5 96.5t-63.5 45.5t-75 12q-42 0 -72 -7t-51.5 -21t-37 -34t-27.5 -45l-225 72q41 120 144.5 183t279.5 63q74 0 139.5 -16t116.5 -56q25 -19 43 -41q103 113 311 113q105 0 176.5 -28 t118.5 -73q51 -51 77 -117.5t33 -146t7 -149.5v-113h-619v-53q0 -66 15.5 -110t43.5 -71t67 -38t87 -11q62 0 102 22t60.5 50.5t28.5 46.5l206 -100q-35 -80 -91 -134t-138.5 -80t-181.5 -26q-127 0 -215.5 39t-145.5 121q-3 -3 -6 -7t-6 -7q-68 -69 -131 -101t-116 -37.5 t-95 -5.5q-93 0 -163.5 34t-117.5 99q-31 44 -48 101t-17 125zM338 334q0 -66 37 -103q20 -18 50.5 -28t80.5 -10q54 0 102 27t67 61.5t19 66.5v123h-170q-78 0 -120.5 -20.5t-54 -53t-11.5 -63.5zM944 647h365q0 99 -27 154.5t-69 72.5t-83 17t-74 -12t-57 -40t-38.5 -75 t-16.5 -117z" />
<glyph unicode="&#xe7;" horiz-adv-x="969" d="M90 532q0 81 9 157t34 145q21 57 54.5 105.5t83.5 84t118.5 55t159.5 19.5q162 0 263 -78t130 -223l-233 -74q-22 88 -64.5 124t-107.5 36t-102.5 -33.5t-57.5 -89.5q-16 -47 -21.5 -105t-5.5 -123t4 -112t12 -82t20.5 -59.5t29.5 -42.5q18 -22 48.5 -36t67.5 -14 q54 0 89.5 17t57.5 54.5t36 86.5l233 -78q-40 -145 -142 -222t-263 -77q-90 0 -158 19.5t-117.5 54.5t-82 83t-52.5 105q-25 68 -34 145.5t-9 157.5zM309 -397l9 127h21q30 0 69 3.5t61 8.5q23 6 38 16t15 27q0 11 -14.5 19.5t-54 13t-99.5 4.5l62 178h170l-33 -86 q54 -7 93.5 -27.5t57 -50.5t17.5 -65q0 -44 -24.5 -77t-69.5 -54q-89 -43 -244 -43q-28 0 -74 6z" />
<glyph unicode="&#xe8;" horiz-adv-x="1044" d="M90 510q0 170 30.5 288.5t102.5 190.5q54 54 134.5 81.5t195.5 27.5q105 0 176.5 -28t118.5 -73q51 -51 77 -117.5t33 -146t7 -149.5v-131h-619v-35q0 -66 15.5 -110t43.5 -71t67 -38t87 -11q62 0 102 22t60.5 50.5t28.5 46.5l206 -100q-35 -80 -91 -134t-138.5 -80 t-181.5 -26q-155 0 -255.5 54t-150.5 176q-49 117 -49 313zM285 1460h268l111 -260h-152zM348 635h365q0 104 -26.5 163t-69 76t-82.5 17q-41 0 -74.5 -12t-57.5 -41.5t-38.5 -78.5t-16.5 -124z" />
<glyph unicode="&#xe9;" horiz-adv-x="1044" d="M90 510q0 170 30.5 288.5t102.5 190.5q54 54 134.5 81.5t195.5 27.5q105 0 176.5 -28t118.5 -73q51 -51 77 -117.5t33 -146t7 -149.5v-131h-619v-35q0 -66 15.5 -110t43.5 -71t67 -38t87 -11q62 0 102 22t60.5 50.5t28.5 46.5l206 -100q-35 -80 -91 -134t-138.5 -80 t-181.5 -26q-155 0 -255.5 54t-150.5 176q-49 117 -49 313zM348 635h365q0 104 -26.5 163t-69 76t-82.5 17q-41 0 -74.5 -12t-57.5 -41.5t-38.5 -78.5t-16.5 -124zM430 1200l110 260h269l-228 -260h-151z" />
<glyph unicode="&#xea;" horiz-adv-x="1044" d="M90 510q0 170 30.5 288.5t102.5 190.5q54 54 134.5 81.5t195.5 27.5q105 0 176.5 -28t118.5 -73q51 -51 77 -117.5t33 -146t7 -149.5v-131h-619v-35q0 -66 15.5 -110t43.5 -71t67 -38t87 -11q62 0 102 22t60.5 50.5t28.5 46.5l206 -100q-35 -80 -91 -134t-138.5 -80 t-181.5 -26q-155 0 -255.5 54t-150.5 176q-49 117 -49 313zM234 1198l225 260h178l218 -260h-226l-82 100l-86 -100h-227zM348 635h365q0 104 -26.5 163t-69 76t-82.5 17q-41 0 -74.5 -12t-57.5 -41.5t-38.5 -78.5t-16.5 -124z" />
<glyph unicode="&#xeb;" horiz-adv-x="1044" d="M90 510q0 170 30.5 288.5t102.5 190.5q54 54 134.5 81.5t195.5 27.5q105 0 176.5 -28t118.5 -73q51 -51 77 -117.5t33 -146t7 -149.5v-131h-619v-35q0 -66 15.5 -110t43.5 -71t67 -38t87 -11q62 0 102 22t60.5 50.5t28.5 46.5l206 -100q-35 -80 -91 -134t-138.5 -80 t-181.5 -26q-155 0 -255.5 54t-150.5 176q-49 117 -49 313zM275 1212v203h225v-203h-225zM348 635h365q0 104 -26.5 163t-69 76t-82.5 17q-41 0 -74.5 -12t-57.5 -41.5t-38.5 -78.5t-16.5 -124zM604 1212v203h226v-203h-226z" />
<glyph unicode="&#xec;" horiz-adv-x="510" d="M1 1460h268l111 -260h-152zM127 0v1065h256v-1065h-256z" />
<glyph unicode="&#xed;" horiz-adv-x="510" d="M127 0v1065h256v-1065h-256zM130 1200l110 260h269l-228 -260h-151z" />
<glyph unicode="&#xee;" horiz-adv-x="510" d="M-54 1198l225 260h178l218 -260h-226l-82 100l-86 -100h-227zM127 0v1065h256v-1065h-256z" />
<glyph unicode="&#xef;" horiz-adv-x="510" d="M-15 1212v203h225v-203h-225zM127 0v1065h256v-1065h-256zM314 1212v203h226v-203h-226z" />
<glyph unicode="&#xf0;" horiz-adv-x="1090" d="M90 494q0 63 7 133.5t30 136.5q34 95 92 153t127 76.5t129 18.5q63 0 109.5 -12t70.5 -33l-15 35q-10 23 -28.5 53t-46 65t-67.5 70l-162 -137l-72 82l146 122q-103 67 -168 93l61 141q71 -22 134.5 -49.5t117.5 -61.5l139 119l74 -80l-119 -102q143 -110 224.5 -260.5 t103.5 -280.5t22 -221q0 -102 -10 -182t-33 -146q-21 -58 -55 -106t-83.5 -82t-116.5 -53t-154 -19q-88 0 -155.5 19t-118 53t-85 82t-55.5 106q-23 66 -33 135t-10 132zM350 504q0 -56 7.5 -108.5t21.5 -92.5q23 -65 64.5 -91t102.5 -26q76 0 118.5 35t58.5 108.5t16 164.5 q0 108 -28 190q-23 66 -64 91.5t-101 25.5t-102 -25t-65 -90q-29 -81 -29 -182z" />
<glyph unicode="&#xf1;" horiz-adv-x="1104" d="M127 0v1065h238l6 -119q42 52 84 85t99.5 50t119.5 17q52 0 106 -14.5t98.5 -52t72.5 -101.5t28 -164v-766h-256v721q0 65 -34.5 104t-108.5 39q-44 0 -80 -19t-62 -51.5t-40.5 -75t-14.5 -89.5v-629h-256zM276 1194v47q0 85 25 132.5t61.5 61t73.5 13.5q51 0 133 -31 q72 -35 90 -35q23 0 35.5 14.5t20.5 59.5h141v-47q0 -59 -11.5 -98t-33.5 -64t-51 -35t-64 -10q-37 0 -68 9t-59 20q-82 37 -96 37q-18 0 -29 -8t-16.5 -24.5t-9.5 -41.5h-142z" />
<glyph unicode="&#xf2;" horiz-adv-x="1090" d="M90 532q0 85 10 161.5t33 142.5q32 91 95.5 153t146.5 85.5t172 23.5q126 0 213 -40t131 -102t65 -120q23 -66 33 -143t10 -161q0 -85 -10 -162t-33 -143q-33 -91 -95.5 -152t-144.5 -84.5t-169 -23.5q-88 0 -155.5 19t-118 53t-85 82t-55.5 106q-23 66 -33 143t-10 162z M295 1460h268l111 -260h-152zM350 532q0 -77 7.5 -133t21.5 -96q23 -65 65.5 -91t102.5 -26q75 0 117 39t58.5 122.5t16.5 184.5q0 78 -7 134t-21 96q-23 66 -64 91.5t-100 25.5q-60 0 -102.5 -25t-65.5 -90q-14 -40 -21.5 -97t-7.5 -135z" />
<glyph unicode="&#xf3;" horiz-adv-x="1090" d="M90 532q0 85 10 161.5t33 142.5q32 91 95.5 153t146.5 85.5t172 23.5q126 0 213 -40t131 -102t65 -120q23 -66 33 -143t10 -161q0 -85 -10 -162t-33 -143q-33 -91 -95.5 -152t-144.5 -84.5t-169 -23.5q-88 0 -155.5 19t-118 53t-85 82t-55.5 106q-23 66 -33 143t-10 162z M350 532q0 -77 7.5 -133t21.5 -96q23 -65 65.5 -91t102.5 -26q75 0 117 39t58.5 122.5t16.5 184.5q0 78 -7 134t-21 96q-23 66 -64 91.5t-100 25.5q-60 0 -102.5 -25t-65.5 -90q-14 -40 -21.5 -97t-7.5 -135zM449 1200l110 260h269l-228 -260h-151z" />
<glyph unicode="&#xf4;" horiz-adv-x="1090" d="M90 532q0 85 10 161.5t33 142.5q32 91 95.5 153t146.5 85.5t172 23.5q126 0 213 -40t131 -102t65 -120q23 -66 33 -143t10 -161q0 -85 -10 -162t-33 -143q-33 -91 -95.5 -152t-144.5 -84.5t-169 -23.5q-88 0 -155.5 19t-118 53t-85 82t-55.5 106q-23 66 -33 143t-10 162z M240 1198l225 260h178l218 -260h-226l-82 100l-86 -100h-227zM350 532q0 -77 7.5 -133t21.5 -96q23 -65 65.5 -91t102.5 -26q75 0 117 39t58.5 122.5t16.5 184.5q0 78 -7 134t-21 96q-23 66 -64 91.5t-100 25.5q-60 0 -102.5 -25t-65.5 -90q-14 -40 -21.5 -97t-7.5 -135z " />
<glyph unicode="&#xf5;" horiz-adv-x="1090" d="M90 532q0 85 10 161.5t33 142.5q32 91 95.5 153t146.5 85.5t172 23.5q126 0 213 -40t131 -102t65 -120q23 -66 33 -143t10 -161q0 -85 -10 -162t-33 -143q-33 -91 -95.5 -152t-144.5 -84.5t-169 -23.5q-88 0 -155.5 19t-118 53t-85 82t-55.5 106q-23 66 -33 143t-10 162z M256 1194v47q0 85 25 132.5t61.5 61t73.5 13.5q51 0 133 -31q72 -35 90 -35q23 0 35.5 14.5t20.5 59.5h141v-47q0 -59 -11.5 -98t-33.5 -64t-51 -35t-64 -10q-37 0 -68 9t-59 20q-82 37 -96 37q-18 0 -29 -8t-16.5 -24.5t-9.5 -41.5h-142zM350 532q0 -77 7.5 -133t21.5 -96 q23 -65 65.5 -91t102.5 -26q75 0 117 39t58.5 122.5t16.5 184.5q0 78 -7 134t-21 96q-23 66 -64 91.5t-100 25.5q-60 0 -102.5 -25t-65.5 -90q-14 -40 -21.5 -97t-7.5 -135z" />
<glyph unicode="&#xf6;" horiz-adv-x="1090" d="M90 532q0 85 10 161.5t33 142.5q32 91 95.5 153t146.5 85.5t172 23.5q126 0 213 -40t131 -102t65 -120q23 -66 33 -143t10 -161q0 -85 -10 -162t-33 -143q-33 -91 -95.5 -152t-144.5 -84.5t-169 -23.5q-88 0 -155.5 19t-118 53t-85 82t-55.5 106q-23 66 -33 143t-10 162z M279 1212v203h225v-203h-225zM350 532q0 -77 7.5 -133t21.5 -96q23 -65 65.5 -91t102.5 -26q75 0 117 39t58.5 122.5t16.5 184.5q0 78 -7 134t-21 96q-23 66 -64 91.5t-100 25.5q-60 0 -102.5 -25t-65.5 -90q-14 -40 -21.5 -97t-7.5 -135zM608 1212v203h226v-203h-226z" />
<glyph unicode="&#xf7;" d="M131 639v201h897v-201h-897zM446 1083q0 38 22.5 72.5t53 48t58.5 13.5q40 0 72.5 -23.5t46.5 -53.5t14 -57q0 -41 -23.5 -73.5t-53.5 -46t-56 -13.5q-27 0 -51.5 11t-42.5 29t-29 42t-11 51zM446 395q0 37 22.5 71.5t53.5 48t58 13.5q39 0 71.5 -22t47 -53t14.5 -58 q0 -41 -23.5 -73.5t-53 -46t-56.5 -13.5t-51.5 11t-42.5 29t-29 42t-11 51z" />
<glyph unicode="&#xf8;" horiz-adv-x="1090" d="M90 -20l98 143q-35 52 -57 115q-23 65 -32 139t-9 155q0 85 10 161.5t33 142.5q32 91 95.5 153t146.5 85.5t172 23.5q85 0 149.5 -18t114.5 -50l76 109l112 -78l-90 -131q34 -52 54 -115t28 -134t8 -149q0 -85 -10 -162t-33 -143q-33 -91 -95.5 -152t-144.5 -84.5 t-169 -23.5q-81 0 -145 16.5t-113 45.5l-86 -127zM340 532q0 -52 3 -94t9 -78l330 482q-26 29 -59.5 41t-75.5 12q-63 0 -107.5 -26.5t-68.5 -94.5q-31 -81 -31 -242zM418 213q25 -23 57 -33t72 -10q62 0 104.5 26.5t67.5 94.5q15 42 23 101t8 140q0 94 -9 152z" />
<glyph unicode="&#xf9;" horiz-adv-x="1112" d="M125 301v764h256v-719q0 -65 38.5 -104t112.5 -39q62 0 110 38.5t67.5 94t19.5 102.5v627h256v-1065h-237l-7 119q-39 -49 -80 -81.5t-101.5 -50.5t-121.5 -18q-52 0 -107.5 14.5t-101 52t-75 101.5t-29.5 164zM275 1460h268l111 -260h-152z" />
<glyph unicode="&#xfa;" horiz-adv-x="1112" d="M125 301v764h256v-719q0 -65 38.5 -104t112.5 -39q62 0 110 38.5t67.5 94t19.5 102.5v627h256v-1065h-237l-7 119q-39 -49 -80 -81.5t-101.5 -50.5t-121.5 -18q-52 0 -107.5 14.5t-101 52t-75 101.5t-29.5 164zM449 1200l110 260h269l-228 -260h-151z" />
<glyph unicode="&#xfb;" horiz-adv-x="1112" d="M125 301v764h256v-719q0 -65 38.5 -104t112.5 -39q62 0 110 38.5t67.5 94t19.5 102.5v627h256v-1065h-237l-7 119q-39 -49 -80 -81.5t-101.5 -50.5t-121.5 -18q-52 0 -107.5 14.5t-101 52t-75 101.5t-29.5 164zM225 1198l225 260h178l218 -260h-226l-82 100l-86 -100 h-227z" />
<glyph unicode="&#xfc;" horiz-adv-x="1112" d="M125 301v764h256v-719q0 -65 38.5 -104t112.5 -39q62 0 110 38.5t67.5 94t19.5 102.5v627h256v-1065h-237l-7 119q-39 -49 -80 -81.5t-101.5 -50.5t-121.5 -18q-52 0 -107.5 14.5t-101 52t-75 101.5t-29.5 164zM258 1212v203h225v-203h-225zM587 1212v203h226v-203h-226z " />
<glyph unicode="&#xfd;" horiz-adv-x="1024" d="M10 1065h266l234 -657l250 657h254l-445 -1149q-52 -133 -111.5 -202.5t-122.5 -88t-120 -18.5q-66 0 -98 8v225q27 -6 59 -6q44 0 73.5 14.5t54 47.5t40.5 75l33 84zM447 1200l110 260h269l-228 -260h-151z" />
<glyph unicode="&#xfe;" horiz-adv-x="1116" d="M127 -393v1868h256v-510q34 43 75 73t92.5 45t104.5 15q118 0 194 -43.5t118 -128.5q37 -75 48 -172t11 -222q0 -109 -9.5 -191t-31.5 -142q-23 -68 -70.5 -123t-115 -82t-146.5 -27q-77 0 -133.5 22.5t-87 50.5t-49.5 50v-483h-256zM383 406q0 -75 31 -128t76 -71.5 t88 -18.5q74 0 117.5 43t56.5 121q3 20 7.5 72t4.5 108q0 57 -3 111t-11 86q-11 48 -35.5 81.5t-60 48.5t-74.5 15q-61 0 -109.5 -30.5t-68 -80t-19.5 -104.5v-253z" />
<glyph unicode="&#xff;" horiz-adv-x="1024" d="M10 1065h266l234 -657l250 657h254l-445 -1149q-52 -133 -111.5 -202.5t-122.5 -88t-120 -18.5q-66 0 -98 8v225q27 -6 59 -6q44 0 73.5 14.5t54 47.5t40.5 75l33 84zM258 1212v203h225v-203h-225zM587 1212v203h226v-203h-226z" />
<glyph unicode="&#x152;" horiz-adv-x="1825" d="M111 737q0 149 15.5 272t56 212t96.5 145q63 65 142.5 98t184.5 33q121 0 192 -23.5t109 -66.5v70h830v-228h-574v-379h545v-225h-545v-420h590v-227h-844v70q-50 -37 -91 -55.5t-87.5 -27t-99.5 -8.5q-103 0 -190.5 28.5t-149.5 90.5q-57 56 -92.5 127.5t-55 154 t-26 173.5t-6.5 186zM389 737q0 -55 1.5 -121.5t12 -132t34.5 -124t69 -97.5q32 -29 76 -45t104 -16q59 0 105.5 20t87.5 55q6 6 30 33v856q-18 25 -39 45q-37 32 -84.5 49t-101.5 17q-66 0 -114.5 -21.5t-80.5 -56.5q-38 -42 -58.5 -99.5t-29.5 -120.5t-10.5 -126 t-1.5 -115z" />
<glyph unicode="&#x153;" horiz-adv-x="1688" d="M90 532q0 85 10 161.5t33 142.5q32 91 95.5 153t146.5 85.5t172 23.5q109 0 186 -36t131 -106q58 73 138 107.5t194 34.5q105 0 177 -28t118 -73q51 -51 77 -117.5t33 -146t7 -149.5v-131h-619v-35q0 -66 15.5 -110t43.5 -71t67 -38t87 -11q62 0 102 22t60.5 50.5 t28.5 46.5l206 -100q-35 -80 -91 -134t-138.5 -80t-181.5 -26q-109 0 -190 33.5t-138 105.5q-54 -68 -130.5 -103.5t-182.5 -35.5q-88 0 -155.5 19t-118 53t-85 82t-55.5 106q-23 66 -33 143t-10 162zM350 532q0 -77 7.5 -133t21.5 -96q23 -65 64.5 -91t101.5 -26h2 q75 0 117 39t58.5 122.5t16.5 184.5q0 78 -7 134t-21 96q-23 66 -64 91.5t-100 25.5h-2q-59 0 -101 -26t-65 -89q-29 -81 -29 -232zM991 635h365q0 104 -26.5 163t-69 76t-82.5 17q-41 0 -74.5 -12t-57.5 -41.5t-38.5 -78.5t-16.5 -124z" />
<glyph unicode="&#x178;" horiz-adv-x="1141" d="M10 1475h281l280 -623l291 623h268l-440 -877v-598h-262v598zM299 1560v203h225v-203h-225zM628 1560v203h226v-203h-226z" />
<glyph unicode="&#x2c6;" horiz-adv-x="702" d="M41 1198l225 260h178l218 -260h-226l-82 100l-86 -100h-227z" />
<glyph unicode="&#x2dc;" horiz-adv-x="702" d="M61 1194v47q0 85 25 132.5t61.5 61t73.5 13.5q51 0 133 -31q72 -35 90 -35q23 0 35.5 14.5t20.5 59.5h141v-47q0 -59 -11.5 -98t-33.5 -64t-51 -35t-64 -10q-37 0 -68 9t-59 20q-82 37 -96 37q-18 0 -29 -8t-16.5 -24.5t-9.5 -41.5h-142z" />
<glyph unicode="&#x2013;" horiz-adv-x="1044" d="M-2 412v215h1049v-213z" />
<glyph unicode="&#x2014;" horiz-adv-x="2068" d="M-2 412v215h2073v-213z" />
<glyph unicode="&#x2018;" horiz-adv-x="502" d="M113 1169q0 101 28 161.5t80 92.5q35 23 82 35t103 17v-144q-41 -7 -64 -18q-29 -14 -43 -39.5t-14 -73.5v-39h104v-278h-276v286z" />
<glyph unicode="&#x2019;" horiz-adv-x="502" d="M96 883v143q39 6 64 18q29 14 43 39.5t14 73.5v39h-104v279h276v-287q0 -100 -28 -161t-80 -93q-36 -23 -82.5 -34.5t-102.5 -16.5z" />
<glyph unicode="&#x201a;" horiz-adv-x="502" d="M96 -313v143q39 6 64 18q29 14 43 39.5t14 73.5v39h-104v279h276v-287q0 -100 -28 -161t-80 -93q-36 -23 -82.5 -34.5t-102.5 -16.5z" />
<glyph unicode="&#x201c;" horiz-adv-x="889" d="M113 1169q0 101 28 161.5t80 92.5q35 23 82 35t103 17v-144q-41 -7 -64 -18q-29 -14 -43 -39.5t-14 -73.5v-39h104v-278h-276v286zM500 1169q0 101 28 161.5t80 92.5q35 23 82 35t103 17v-144q-41 -7 -64 -18q-29 -14 -43 -39.5t-14 -73.5v-39h104v-278h-276v286z" />
<glyph unicode="&#x201d;" horiz-adv-x="889" d="M96 883v143q39 6 64 18q29 14 43 39.5t14 73.5v39h-104v279h276v-287q0 -100 -28 -161t-80 -93q-36 -23 -82.5 -34.5t-102.5 -16.5zM483 883v143q39 6 64 18q29 14 43 39.5t14 73.5v39h-104v279h276v-287q0 -100 -28 -161t-80 -93q-35 -23 -82 -34.5t-103 -16.5z" />
<glyph unicode="&#x201e;" horiz-adv-x="889" d="M96 -313v143q39 6 64 18q29 14 43 39.5t14 73.5v39h-104v279h276v-287q0 -100 -28 -161t-80 -93q-36 -23 -82.5 -34.5t-102.5 -16.5zM483 -170q39 6 64 18q29 14 43 39.5t14 73.5v39h-104v279h276v-287q0 -100 -28 -161t-80 -93q-35 -23 -82 -34.5t-103 -16.5v143z" />
<glyph unicode="&#x2022;" horiz-adv-x="961" d="M184 731q0 63 24 117t64 96q41 38 94 61t113 23q62 0 115.5 -23t93.5 -61q42 -42 65 -96t23 -117q0 -62 -22 -113.5t-64 -95.5q-43 -43 -95 -65.5t-114 -22.5t-115 23t-94 63q-42 42 -65 95.5t-23 115.5z" />
<glyph unicode="&#x2026;" horiz-adv-x="2068" d="M213 0v276h276v-276h-276zM895 0v276h276v-276h-276zM1579 0v276h276v-276h-276z" />
<glyph unicode="&#x2039;" horiz-adv-x="719" d="M72 520l385 496l190 -92l-270 -404l270 -403l-190 -92z" />
<glyph unicode="&#x203a;" horiz-adv-x="719" d="M72 117l270 403l-270 404l190 92l385 -496l-385 -495z" />
<glyph unicode="&#x20ac;" d="M33 815l76 170h81q40 245 156 361q66 68 157 98.5t206 30.5q116 0 204 -32t136 -76t73 -77l-123 -207q-25 55 -66 97t-93 63t-107 21q-60 0 -106.5 -14t-83.5 -52q-31 -32 -53.5 -84t-34.5 -129h528l-76 -170h-469q-2 -22 -2 -45v-49v-64h402l-76 -170h-313 q12 -102 37.5 -164t60.5 -96q28 -26 61.5 -37.5t71.5 -11.5q86 0 134.5 47.5t80.5 151.5l231 -92q-24 -65 -59 -123t-88 -101.5t-128 -68.5t-181 -25q-99 0 -178 28t-138 87q-68 66 -108.5 168.5t-59.5 236.5h-149l76 170h59v62v47q0 24 2 49h-141z" />
<glyph unicode="&#x2122;" horiz-adv-x="1626" d="M12 1317v158h643v-158h-229v-694h-182v694h-232zM758 623v852h188l191 -428l194 428h182v-852h-176v530l-131 -317h-143l-129 315v-528h-176z" />
<glyph unicode="&#xe000;" horiz-adv-x="1065" d="M0 1065h1065v-1065h-1065v1065z" />
<glyph unicode="&#xfb01;" horiz-adv-x="1143" d="M12 862v203h135v68q0 188 105 274q89 74 258 74q45 0 90.5 -3.5t73.5 -7.5v-180q-83 8 -125 8q-40 0 -67.5 -10.5t-41.5 -25.5q-20 -23 -27 -54t-7 -82v-61h235v-203h-235v-862h-256v862h-138zM760 0v1065h256v-1065h-256zM760 1235v240h256v-240h-256z" />
<glyph unicode="&#xfb02;" horiz-adv-x="1143" d="M12 862v203h135v68q0 188 105 274q89 74 258 74q45 0 90.5 -3.5t73.5 -7.5v-180q-83 8 -125 8q-40 0 -67.5 -10.5t-41.5 -25.5q-20 -23 -27 -54t-7 -82v-61h235v-203h-235v-862h-256v862h-138zM760 0v1475h256v-1475h-256z" />
<glyph unicode="&#xfb03;" horiz-adv-x="1772" d="M12 862v203h135v68q0 188 105 274q89 74 258 74q45 0 90.5 -3.5t73.5 -7.5v-180q-83 8 -125 8q-40 0 -67.5 -10.5t-41.5 -25.5q-20 -23 -27 -54t-7 -82v-61h369v68q0 188 105 274q89 74 258 74q45 0 90.5 -3.5t73.5 -7.5v-180q-83 8 -125 8q-40 0 -67.5 -10.5 t-41.5 -25.5q-20 -23 -27 -54t-7 -82v-61h235v-203h-235v-862h-256v862h-372v-862h-256v862h-138zM1388 0v1065h256v-1065h-256zM1388 1235v240h256v-240h-256z" />
<glyph unicode="&#xfb04;" horiz-adv-x="1772" d="M12 862v203h135v68q0 188 105 274q89 74 258 74q45 0 90.5 -3.5t73.5 -7.5v-180q-83 8 -125 8q-40 0 -67.5 -10.5t-41.5 -25.5q-20 -23 -27 -54t-7 -82v-61h369v68q0 188 105 274q89 74 258 74q45 0 90.5 -3.5t73.5 -7.5v-180q-83 8 -125 8q-40 0 -67.5 -10.5 t-41.5 -25.5q-20 -23 -27 -54t-7 -82v-61h235v-203h-235v-862h-256v862h-372v-862h-256v862h-138zM1388 0v1475h256v-1475h-256z" />
</font>
</defs>
</svg>
