<?xml version="1.0" standalone="no"?>
<!DOCTYPE svg PUBLIC "-//W3C//DTD SVG 1.1//EN" "http://www.w3.org/Graphics/SVG/1.1/DTD/svg11.dtd" >
<svg xmlns="http://www.w3.org/2000/svg">
<metadata>
This is a custom SVG webfont generated by Font Squirrel.
Copyright   : DaltonMaag Ltd Copyright c Dalton Maag Ltd 19992007 All rights reserved These fonts are for use by ThyssenKrupp and in conjunction with ThyssenKrupp related material only
Designer    : Dalton Maag Ltd
Foundry     : DaltonMaag Ltd
Foundry URL : wwwdaltonmaagcom
</metadata>
<defs>
<font id="TKTypeRegularItalic" horiz-adv-x="1090" >
<font-face units-per-em="2048" ascent="1638" descent="-410" />
<missing-glyph horiz-adv-x="528" />
<glyph unicode=" "  horiz-adv-x="528" />
<glyph unicode="&#x09;" horiz-adv-x="528" />
<glyph unicode="&#xa0;" horiz-adv-x="528" />
<glyph unicode="!" horiz-adv-x="586" d="M199 0l39 217h188l-39 -217h-188zM291 385l176 1090h170l-209 -1090h-137z" />
<glyph unicode="&#x22;" horiz-adv-x="766" d="M328 928l32 430l21 117h194l-20 -117l-119 -430h-108zM659 928l33 430l21 117h194l-20 -117l-119 -430h-109z" />
<glyph unicode="#" horiz-adv-x="934" d="M86 416l18 106h185l147 381h-164l19 107h184l160 415h117l-160 -415h235l160 415h117l-160 -415h166l-18 -107h-187l-147 -381h166l-19 -106h-186l-160 -416h-117l160 416h-235l-160 -416h-117l160 416h-164zM406 522h235l147 381h-235z" />
<glyph unicode="$" d="M100 262l148 43q39 -188 233 -207l103 582q-75 31 -134 67t-99.5 81t-61.5 100.5t-21 124.5q0 100 33.5 177t94 130t144.5 81.5t185 31.5l23 124h110l-22 -122q106 -6 179.5 -47t110 -97.5t52.5 -107.5l-144 -45q-14 49 -44 85t-78.5 58.5t-98.5 28.5l-96 -549 q145 -63 219 -127t96.5 -133.5t22.5 -141.5q0 -109 -38 -189t-103.5 -132.5t-154 -79.5t-190.5 -29l-34 -207h-111l35 207q-148 13 -236 84.5t-123 208.5zM420 1071q0 -42 12.5 -75t37 -60t60.5 -49t84 -43l88 506q-60 -5 -112 -24t-89.5 -53t-59 -84.5t-21.5 -117.5z M592 98q105 9 176 45.5t101 98.5t30 133q0 48 -10.5 86.5t-35 70.5t-65 59.5t-100.5 51.5z" />
<glyph unicode="%" horiz-adv-x="1628" d="M219 860q0 42 8.5 114t30.5 163.5t49 146.5q45 93 126.5 142t184.5 49q121 0 184.5 -64t63.5 -182q0 -48 -10.5 -133.5t-39 -185t-64.5 -152.5q-50 -72 -123.5 -108t-161.5 -36q-119 0 -183.5 63.5t-64.5 182.5zM350 860q0 -68 31 -108.5t102 -40.5q56 0 99.5 31t68.5 79 q17 33 35.5 97.5t34.5 155t16 155.5q0 68 -31.5 108.5t-103.5 40.5q-60 0 -104.5 -35t-69.5 -88q-15 -33 -33 -94.5t-31.5 -156.5t-13.5 -144zM510 -33l741 1508h121l-741 -1508h-121zM1016 213q0 42 8.5 114t30.5 163.5t49 146.5q45 93 126.5 141.5t184.5 48.5 q121 0 184.5 -63.5t63.5 -181.5q0 -48 -11 -136t-40.5 -187t-63.5 -148q-49 -73 -122.5 -108.5t-161.5 -35.5q-119 0 -183.5 63.5t-64.5 182.5zM1147 213q0 -68 31 -109t102 -41q56 0 99.5 31.5t68.5 79.5q18 34 36 98t34 154.5t16 155.5q0 68 -31.5 108.5t-103.5 40.5 q-60 0 -105 -35t-69 -88q-15 -33 -33 -94.5t-31.5 -156.5t-13.5 -144z" />
<glyph unicode="&#x26;" horiz-adv-x="1276" d="M170 293q0 118 49.5 217t138.5 174q41 34 88.5 68.5t110.5 72.5q-31 57 -51.5 106t-27.5 93t-7 90q0 124 53.5 207t139.5 114t174 31q137 0 201.5 -62t64.5 -173q0 -109 -60 -200.5t-142 -150t-144 -96.5l66 -118l76 -126l85 -141q38 61 73 141.5t48 137.5l137 -39 q-23 -68 -52 -129t-65.5 -126t-64.5 -105q31 -46 63 -84q36 -42 80 -60q32 -14 84 -14l-22 -133q-8 0 -16 -1t-17 -1q-35 0 -73.5 6.5t-67.5 21.5q-34 17 -65.5 48t-70.5 83q-81 -77 -163.5 -117t-148.5 -50.5t-114 -10.5q-77 0 -142.5 21t-114 62t-76 102t-27.5 141z M328 319q0 -54 18.5 -94.5t51.5 -68.5t78 -42t97 -14q45 0 102.5 21t110 57.5t97.5 79.5q-78 124 -140 233t-78 139l-42 77q-68 -38 -140 -97q-56 -49 -91.5 -99.5t-49.5 -98.5t-14 -93zM618 1141q0 -69 18.5 -121t57.5 -117q80 48 141 99t92 108t31 111q0 68 -36 98.5 t-101 30.5q-46 0 -83.5 -14.5t-64 -41.5t-41 -66t-14.5 -87z" />
<glyph unicode="'" horiz-adv-x="442" d="M332 928l33 430l20 117h195l-21 -117l-119 -430h-108z" />
<glyph unicode="(" horiz-adv-x="600" d="M213 401q0 65 4.5 126.5t15.5 123.5q19 103 55 210t93.5 215t138.5 216t189 215l104 -69q-80 -88 -146 -176.5t-118 -184t-89 -200.5t-59 -226q-12 -69 -17 -134.5t-5 -125.5q0 -110 24.5 -210t60 -179.5t71.5 -142.5l-132 -68q-99 152 -144.5 311t-45.5 299z" />
<glyph unicode=")" horiz-adv-x="600" d="M4 -139q123 134 212 272.5t133.5 266t66.5 247.5q12 69 17 134.5t5 125.5q0 101 -25 205.5t-60.5 184.5t-69.5 143l131 67q99 -151 144.5 -305t45.5 -305q0 -65 -4.5 -126.5t-15.5 -123.5q-29 -165 -100 -326t-169.5 -292t-205.5 -238z" />
<glyph unicode="*" horiz-adv-x="854" d="M88 1171l51 146l64 -21l178 -92l-35 203v68h156v-68l-25 -203l178 90l64 21l47 -144l-64 -22l-196 -37l147 -141l39 -56l-125 -88l-39 56l-100 174l-90 -174l-39 -56l-125 88l39 56l137 143l-198 35z" />
<glyph unicode="+" d="M96 680v119h389v387h119v-387h389v-119h-389v-389h-119v389h-389z" />
<glyph unicode="," horiz-adv-x="586" d="M123 -317l16 98q43 11 72 33q29 24 42.5 60t22.5 85l9 41h-88l41 229h192l-49 -270q-24 -151 -109 -219q-31 -26 -68.5 -40t-80.5 -17z" />
<glyph unicode="-" horiz-adv-x="698" d="M160 453l26 153h539l-27 -153h-538z" />
<glyph unicode="." horiz-adv-x="586" d="M197 0l41 231h192l-41 -231h-192z" />
<glyph unicode="/" horiz-adv-x="621" d="M18 0l715 1475h129l-715 -1475h-129z" />
<glyph unicode="0" d="M178 387q0 66 13 175.5t37.5 223.5t49.5 203t50 148q31 80 73 142.5t98.5 106t129.5 66.5t168 23q135 0 221 -60.5t116.5 -157.5t30.5 -194q0 -112 -28 -279.5t-64 -310.5q-32 -123 -76.5 -217.5t-107.5 -158.5t-147 -97t-195 -33q-93 0 -162.5 29.5t-115 84t-68.5 132 t-23 174.5zM336 373q0 -63 12.5 -114t40 -87.5t72 -56t108.5 -19.5q78 0 135 31.5t98 87t69 131t49 164.5q19 85 40 195.5t35.5 218.5t14.5 163q0 94 -36 156t-91 82.5t-109 20.5q-88 0 -151 -40.5t-96.5 -100t-53.5 -113.5q-28 -77 -55.5 -190.5t-46 -219.5t-27 -180 t-8.5 -129z" />
<glyph unicode="1" d="M297 0l22 129h224l200 1139l-237 -138l-53 121l364 207h123l-235 -1329h208l-22 -129h-594z" />
<glyph unicode="2" d="M104 0l19 106l493 472l133 132q64 63 122.5 142.5t87 154.5t28.5 142q0 57 -34 107.5t-82.5 73t-94.5 22.5q-70 0 -122.5 -22t-91.5 -61t-66.5 -92.5t-46.5 -115.5l-138 33q31 91 73 161.5t100.5 119t135.5 73.5t179 25q97 0 164 -28.5t108.5 -75t59.5 -105t18 -117.5 q0 -137 -78 -270t-177 -229l-169 -159l-393 -360h647l-23 -129h-852z" />
<glyph unicode="3" d="M133 330v8l143 14q2 -68 24 -116.5t56.5 -80t76.5 -46.5t83 -15q54 0 102.5 15.5t86.5 44.5q64 52 104.5 130t55 155.5t14.5 133.5q0 32 -5.5 63.5t-18.5 58.5t-34.5 49t-52.5 36q-28 11 -60 16t-61 5q-45 0 -80 -6t-84 -25l-47 80l512 463h-590l23 129h770l-23 -129 l-434 -398q16 5 74 5q49 0 102 -25q67 -31 105.5 -84.5t51.5 -112.5t13 -108q0 -119 -29.5 -222t-84 -179.5t-115.5 -125.5q-124 -96 -301 -96q-83 0 -152.5 26t-119.5 73.5t-77.5 114.5t-27.5 149z" />
<glyph unicode="4" d="M158 315l20 119l762 1024h154l-181 -1016h148l-23 -127h-147l-55 -315h-142l56 315h-592zM342 442h430l135 764z" />
<glyph unicode="5" d="M182 305v23l144 14q0 -58 20 -104t53 -78t75 -49t85 -17q54 0 96.5 13.5t79.5 42.5q63 49 104.5 124t54.5 149t13 130q0 80 -35 143t-87 88t-103 25q-76 0 -131 -21.5t-94.5 -58t-69.5 -78.5l-111 15l185 776h684l-23 -129h-547l-106 -453q31 20 77 36.5t93 25t94 8.5 q109 0 192 -61t113.5 -144.5t30.5 -159.5q0 -117 -31.5 -219.5t-84.5 -174t-113 -118.5q-62 -49 -131.5 -67.5t-159.5 -18.5q-78 0 -145 23.5t-116.5 67.5t-77.5 106.5t-28 140.5z" />
<glyph unicode="6" d="M203 383q0 85 12.5 169.5t26.5 162.5q41 239 104 403t166 252q62 51 140 78t177 27q113 0 187.5 -36t107.5 -102.5t37 -144.5l-145 -33q-14 80 -45 123t-76 54.5t-92 11.5q-112 0 -191 -68q-39 -34 -68.5 -77t-53 -102.5t-43 -138.5t-37.5 -184q44 48 85.5 77.5t109.5 47 t143 17.5q131 0 209 -59t102 -143.5t24 -156.5q0 -112 -30.5 -216t-81.5 -175t-109 -113q-62 -43 -138.5 -66.5t-170.5 -23.5q-98 0 -164.5 33t-108 89.5t-59.5 132t-18 161.5zM356 336q0 -84 31.5 -143t84.5 -82t112 -23q138 0 215 80q43 43 74.5 120.5t41 147.5t9.5 117 q0 81 -23.5 140t-73 86.5t-110.5 27.5q-76 0 -135.5 -28.5t-103 -76t-71 -109t-38.5 -128.5q-13 -65 -13 -129z" />
<glyph unicode="7" d="M315 0l697 1305h-510l-33 -191h-137l57 328h813l-22 -129l-693 -1313h-172z" />
<glyph unicode="8" d="M158 330q0 81 21 153.5t63 130t104.5 98t145.5 58.5q-42 13 -72.5 42.5t-50 68.5t-28.5 84t-9 88q0 103 35.5 182t98 132.5t148.5 80.5t187 27q128 0 211 -54t108 -126.5t25 -131.5q0 -104 -40 -192.5t-102 -135.5t-129 -65q75 -21 121 -77.5t61 -124.5t15 -119 q0 -124 -39.5 -214.5t-110 -150t-166.5 -88.5t-210 -29q-86 0 -157 24.5t-122 71.5t-79.5 114t-28.5 153zM311 350q0 -86 40.5 -150t98.5 -88t117 -24q82 0 147.5 24.5t111 71t70 113.5t24.5 152q0 118 -64.5 181.5t-187.5 63.5q-78 0 -144 -24t-113 -68.5t-73.5 -108 t-26.5 -143.5zM483 1067q0 -46 14 -89.5t41 -77t65.5 -53.5t86.5 -20q73 0 130 23t96 65t59 100t20 128t-33.5 122.5t-84 73.5t-97.5 21q-97 0 -169.5 -46.5t-100 -114t-27.5 -132.5z" />
<glyph unicode="9" d="M180 250l144 33q4 -38 22.5 -73t48.5 -61.5t69.5 -42.5t86.5 -16q56 0 103.5 21t84.5 55q55 49 95.5 124t64 169t41.5 192q-39 -41 -91.5 -73.5t-120.5 -51t-142 -18.5q-82 0 -143.5 31.5t-102 84t-60.5 122t-20 145.5q0 106 29 207t77.5 169t102.5 113q63 53 144 74 t178 21q139 0 220 -58.5t106.5 -150t25.5 -179.5q0 -68 -9.5 -154.5t-29.5 -199.5q-34 -191 -76.5 -327t-92.5 -214.5t-101 -121.5q-62 -51 -135.5 -77t-172.5 -26q-60 0 -120.5 18.5t-109.5 54t-81 88.5t-35 122zM420 897q0 -65 17.5 -115t47.5 -84.5t69.5 -52.5t82.5 -18 q97 0 168 49t112.5 127.5t56.5 162.5t15 144q0 124 -54.5 184t-172.5 60q-99 0 -165 -40.5t-105 -106t-55.5 -147t-16.5 -163.5z" />
<glyph unicode=":" horiz-adv-x="586" d="M197 0l41 231h192l-41 -231h-192zM340 809l41 231h192l-41 -231h-192z" />
<glyph unicode=";" horiz-adv-x="586" d="M123 -317l16 98q43 11 72 33q29 24 42.5 60t22.5 85l9 41h-88l41 229h192l-49 -270q-24 -151 -109 -219q-31 -26 -68.5 -40t-80.5 -17zM340 809l41 231h192l-41 -231h-192z" />
<glyph unicode="&#x3c;" d="M158 668v139l723 403l51 -108l-668 -365l668 -364l-49 -109z" />
<glyph unicode="=" d="M96 473v119h897v-119h-897zM96 885v119h897v-119h-897z" />
<glyph unicode="&#x3e;" d="M158 373l667 364l-667 365l49 108l725 -403v-139l-723 -404z" />
<glyph unicode="?" horiz-adv-x="971" d="M279 1106q42 134 116.5 219t169 117.5t187.5 32.5q110 0 187.5 -47.5t108.5 -120t31 -144.5q0 -80 -31 -146t-75.5 -112t-87.5 -82q-44 -38 -89.5 -72t-85.5 -75.5t-70.5 -95.5t-43.5 -131l-12 -64h-154l8 57q16 120 77.5 213t130.5 149l114 95q67 61 97 93t47.5 75.5 t17.5 87.5q0 67 -29 114t-73.5 66t-88.5 19q-96 0 -162 -39.5t-100.5 -99.5t-52.5 -119zM344 0l39 217h188l-39 -217h-188z" />
<glyph unicode="@" horiz-adv-x="1759" d="M213 442q0 109 23.5 222t67.5 219.5t106.5 202t140.5 169.5q90 89 196.5 146.5t220 81.5t214.5 24q127 0 239 -36t196 -105t132.5 -171t48.5 -234q0 -113 -31.5 -233t-75.5 -203.5t-87 -137.5q-67 -84 -152 -143t-158.5 -79t-128.5 -20q-63 0 -97 24.5t-34 66.5 q0 47 21 100q-36 -60 -87.5 -106.5t-103 -65.5t-98.5 -19q-58 0 -101 20.5t-72 57.5t-43.5 89t-14.5 114q0 75 17.5 149.5t39.5 131.5q36 99 85 189t114.5 162t142.5 105t156 33q78 0 128 -26t69.5 -64.5t25.5 -73.5l53 139h129l-309 -798q-21 -56 -21 -72q0 -22 14 -30.5 t46 -8.5q15 0 44 9t65.5 29t78 52.5t82.5 79.5q64 75 106 166t59 181.5t17 160.5q0 162 -82 271.5t-199.5 147.5t-226.5 38q-125 0 -234 -35t-183 -86.5t-121 -99.5q-66 -66 -121 -150t-94.5 -176.5t-61.5 -190.5t-22 -192q0 -128 36.5 -235t108.5 -183.5t178.5 -119 t245.5 -42.5q126 0 248 36.5t214.5 94t154.5 119.5l73 -78q-119 -106 -241.5 -171t-242 -88t-224.5 -23q-158 0 -282 50t-210.5 139t-132 210.5t-45.5 265.5zM672 430q0 -34 7 -64t23.5 -52.5t44 -36t68.5 -13.5q66 0 144 74.5t138 184t95 210.5q14 37 24.5 85.5t10.5 94.5 q0 54 -17.5 91.5t-52.5 54t-78 16.5q-67 0 -128.5 -43.5t-108.5 -112t-76 -133.5t-43 -108q-25 -71 -38 -131.5t-13 -116.5z" />
<glyph unicode="A" horiz-adv-x="1188" d="M18 0l736 1475h166l249 -1475h-165l-68 422h-553l-207 -422h-158zM449 553h466l-114 717z" />
<glyph unicode="B" horiz-adv-x="1200" d="M170 0l260 1475h516q113 0 188.5 -48t102.5 -120.5t27 -141.5q0 -84 -19 -148.5t-55.5 -114t-89.5 -84t-121 -58.5q78 -23 126 -72.5t62.5 -105.5t14.5 -103q0 -110 -34.5 -198.5t-99 -151t-155.5 -96t-205 -33.5h-518zM346 129h307q126 0 214 48.5t119.5 127.5t31.5 160 q0 69 -40 122.5t-104.5 77t-128.5 23.5h-301zM467 815h311q101 0 183 53t113.5 127.5t31.5 141.5q0 102 -52 155.5t-161 53.5h-332z" />
<glyph unicode="C" horiz-adv-x="1167" d="M219 442q0 89 13.5 195t38.5 211.5t60.5 203.5t80.5 171q90 150 219 217t295 67q128 0 212.5 -50t122 -124.5t50.5 -144.5l-166 -43q-22 115 -80.5 170t-163.5 55q-110 0 -198 -50t-152 -167q-35 -65 -64 -154t-50 -185.5t-32.5 -191t-11.5 -169.5q0 -176 68 -262.5 t219 -86.5q79 0 145.5 28.5t114.5 85t78 124.5l143 -43q-55 -115 -136.5 -193.5t-176 -108.5t-189.5 -30q-117 0 -200.5 31.5t-137 92t-78 149t-24.5 202.5z" />
<glyph unicode="D" horiz-adv-x="1253" d="M170 0l260 1475h334q122 0 220.5 -27.5t167.5 -85.5t106.5 -148t37.5 -215q0 -89 -20.5 -219t-51 -235t-55.5 -164q-87 -197 -242 -289t-370 -92h-387zM350 133h166q84 0 156 13t131.5 43t107.5 80.5t86 125.5q36 73 67 188.5t46.5 223.5t15.5 170q0 98 -27.5 167.5 t-79.5 113t-127.5 63.5t-172.5 20h-154z" />
<glyph unicode="E" horiz-adv-x="1047" d="M170 0l260 1475h780l-24 -138h-623l-90 -510h594l-25 -137h-593l-97 -553h639l-24 -137h-797z" />
<glyph unicode="F" horiz-adv-x="987" d="M170 0l260 1475h752l-25 -138h-594l-86 -489h565l-24 -137h-565l-125 -711h-158z" />
<glyph unicode="G" horiz-adv-x="1221" d="M219 444q0 88 13.5 192.5t39 210t61 204t79.5 176.5q61 109 141.5 173t172 85.5t181.5 21.5q100 0 168.5 -22t116.5 -64q42 -37 71.5 -97.5t45.5 -125.5l-164 -39q-14 47 -32 87.5t-50 68.5q-63 57 -180 57q-59 0 -106.5 -14.5t-86.5 -41t-69.5 -63t-55.5 -79.5 q-52 -88 -92.5 -223t-61 -269.5t-20.5 -235.5q0 -71 13.5 -133.5t46 -109t87 -73t136.5 -26.5q57 0 113 14.5t102.5 48t80.5 88t48 134.5l33 176h-297l22 137h453l-123 -702h-137l16 100q-68 -62 -153 -97.5t-187 -35.5q-116 0 -197 34t-132 96.5t-74 150.5t-23 196z" />
<glyph unicode="H" horiz-adv-x="1274" d="M170 0l260 1475h158l-107 -607h619l106 607h158l-260 -1475h-158l129 729h-618l-129 -729h-158z" />
<glyph unicode="I" horiz-adv-x="498" d="M170 0l260 1475h158l-260 -1475h-158z" />
<glyph unicode="J" horiz-adv-x="995" d="M76 264l155 43q8 -47 28.5 -84t50.5 -63t68.5 -40t82.5 -14q54 0 91 15.5t66 40.5q45 35 73 91t46 129.5t31 145.5l168 947h158l-166 -938q-24 -139 -47 -224t-60 -145.5t-82 -97.5q-42 -38 -92.5 -62t-101 -32.5t-101.5 -8.5q-88 0 -157.5 27.5t-118.5 77.5 q-74 74 -92 192z" />
<glyph unicode="K" horiz-adv-x="1155" d="M170 0l260 1475h158l-133 -746l721 746h184l-545 -570l332 -905h-180l-277 776l-274 -287l-88 -489h-158z" />
<glyph unicode="L" horiz-adv-x="981" d="M170 0l260 1475h158l-236 -1338h619l-25 -137h-776z" />
<glyph unicode="M" horiz-adv-x="1477" d="M170 0l260 1475h191l213 -887l532 887h201l-260 -1475h-150l221 1255l-497 -845h-148l-192 841l-222 -1251h-149z" />
<glyph unicode="N" horiz-adv-x="1262" d="M170 0l260 1475h195l358 -1225l217 1225h152l-260 -1475h-183l-368 1245l-219 -1245h-152z" />
<glyph unicode="O" horiz-adv-x="1331" d="M221 461q0 107 22 244t52.5 238.5t60.5 170.5q42 94 97 167.5t126 123.5t158.5 76t194.5 26q169 0 271.5 -74t134.5 -189.5t32 -229.5q0 -119 -23 -259t-58.5 -249.5t-69.5 -179.5q-88 -174 -226 -266.5t-334 -92.5q-121 0 -204.5 35.5t-135.5 100t-75 156t-23 202.5z M391 475q0 -81 15 -149t49.5 -118t90.5 -78t138 -28q52 0 108 18.5t97 45.5t72 57q57 57 103.5 155t78.5 221t44.5 227.5t12.5 172.5q0 128 -34.5 213t-104 122.5t-154.5 37.5q-104 0 -185.5 -48.5t-129.5 -118.5t-76 -132q-39 -86 -71 -210.5t-43 -222.5t-11 -165z" />
<glyph unicode="P" horiz-adv-x="1110" d="M170 0l260 1475h416q137 0 223 -59t115.5 -144.5t29.5 -165.5q0 -119 -39 -216t-128 -169q-71 -57 -161 -87t-216 -30h-238l-106 -604h-156zM455 733h239q147 0 242 90q54 53 83.5 120t29.5 155q0 125 -66 186.5t-192 61.5h-228z" />
<glyph unicode="Q" horiz-adv-x="1331" d="M221 457q0 97 13 198.5t39.5 210.5t61 195t70 146.5t70.5 101.5q79 91 190.5 144.5t266.5 53.5q173 0 274.5 -76.5t132.5 -192t31 -224.5q0 -69 -8 -140t-21 -137q-24 -137 -58.5 -249.5t-87.5 -204.5t-110 -148l140 -145l-111 -107l-151 158q-65 -35 -139.5 -54.5 t-164.5 -19.5q-120 0 -203.5 35.5t-135.5 100t-75.5 154.5t-23.5 200zM393 463q0 -73 13.5 -138.5t47 -115t89.5 -78.5t141 -29q48 0 89.5 14t84.5 34l-123 129l111 106l137 -143q78 105 118.5 219.5t69.5 275.5q14 69 22.5 134.5t8.5 132.5q0 81 -15.5 149t-50.5 116.5 t-91.5 75.5t-137.5 27q-82 0 -158 -40t-120 -86.5t-66 -80.5q-53 -81 -93.5 -215.5t-58.5 -263t-18 -223.5z" />
<glyph unicode="R" horiz-adv-x="1145" d="M170 0l260 1475h426q133 0 224.5 -57t125 -144t33.5 -168q0 -75 -19.5 -146t-58.5 -131.5t-97 -107.5t-136 -74l176 -647h-180l-156 618q-28 -4 -76 -4h-258l-108 -614h-156zM457 745h260q81 0 146 29t111.5 77t71.5 111t25 132q0 88 -42.5 147t-107.5 82t-130 23h-228z " />
<glyph unicode="S" horiz-adv-x="1157" d="M127 266l158 62q15 -49 44.5 -90t72 -70t97.5 -45.5t122 -16.5q112 0 191 38.5t110.5 97.5t31.5 118q0 76 -29 132.5t-93.5 106.5t-145.5 95q-98 55 -170 103t-119 97.5t-70.5 104.5t-23.5 123q0 130 72 221.5t190 127.5t246 36q100 0 172 -21.5t123 -57.5t85 -83t58 -98 l-147 -59q-16 36 -42 70t-64 61t-89.5 43t-118.5 16q-105 0 -182.5 -39t-106 -92.5t-28.5 -105.5q0 -47 18 -84.5t56.5 -73t98 -73t142.5 -83.5q137 -76 214.5 -149t102.5 -145t25 -140q0 -107 -39 -186.5t-110 -133t-169.5 -80t-217.5 -26.5q-98 0 -175 23t-134 63 t-95.5 94.5t-60.5 118.5z" />
<glyph unicode="T" horiz-adv-x="1036" d="M260 1337l25 138h987l-25 -138h-413l-236 -1337h-158l236 1337h-416z" />
<glyph unicode="U" horiz-adv-x="1237" d="M221 336q0 37 4.5 75.5t12.5 80.5l174 983h157l-174 -983q-12 -62 -12 -121q0 -56 12.5 -104.5t42 -84.5t77.5 -57t120 -21q310 0 375 367l178 1004h158l-179 -1004q-24 -136 -73.5 -231.5t-120.5 -156t-162.5 -88.5t-200.5 -28q-106 0 -180 27t-120.5 75.5t-67.5 116.5 t-21 150z" />
<glyph unicode="V" horiz-adv-x="1106" d="M279 1475h163l144 -1250l596 1250h166l-713 -1475h-166z" />
<glyph unicode="W" horiz-adv-x="1583" d="M279 1475h174l26 -1235l500 1235h160l45 -1235l475 1235h166l-600 -1475h-160l-59 1178l-476 -1178h-174z" />
<glyph unicode="X" horiz-adv-x="1044" d="M18 0l560 782l-246 693h164l188 -539l381 539h166l-488 -682l283 -793h-170l-219 641l-453 -641h-166z" />
<glyph unicode="Y" horiz-adv-x="1053" d="M279 1475h153l215 -736l483 736h164l-594 -875l-106 -600h-158l107 600z" />
<glyph unicode="Z" horiz-adv-x="952" d="M29 0l22 127l905 1210h-667l24 138h846l-22 -129l-904 -1209h715l-24 -137h-895z" />
<glyph unicode="[" horiz-adv-x="604" d="M121 -176l291 1651h403l-22 -127h-254l-246 -1397h254l-23 -127h-403z" />
<glyph unicode="\" horiz-adv-x="621" d="M279 1475h129l194 -1475h-129z" />
<glyph unicode="]" horiz-adv-x="604" d="M18 -176l23 127h254l246 1397h-254l22 127h404l-291 -1651h-404z" />
<glyph unicode="^" horiz-adv-x="979" d="M45 889l449 618l438 -622l-92 -64l-346 490l-361 -492z" />
<glyph unicode="_" horiz-adv-x="1024" d="M-47 -262l20 108h1024l-20 -108h-1024z" />
<glyph unicode="`" horiz-adv-x="698" d="M395 1460h203l72 -260h-107z" />
<glyph unicode="a" horiz-adv-x="1016" d="M135 240q0 46 13 95.5t37 87.5t46 62q115 127 344 127h265l20 117q3 12 5.5 33t2.5 35q0 78 -51.5 117.5t-144.5 39.5q-95 0 -156.5 -37.5t-105.5 -107.5l-111 57q60 102 156.5 154.5t242.5 52.5q112 0 187.5 -34.5t106 -93t30.5 -122.5q0 -24 -8 -82l-131 -741h-150 l19 106q-59 -52 -119 -83t-116.5 -40.5t-104.5 -9.5q-62 0 -113 18.5t-87.5 53.5t-56.5 84t-20 111zM289 254q0 -69 42.5 -114.5t125.5 -45.5q40 0 92.5 17t102 49.5t88.5 79.5t51 108l30 150h-215q-65 0 -122.5 -11t-100.5 -39t-68.5 -75t-25.5 -119z" />
<glyph unicode="b" horiz-adv-x="1059" d="M135 0l260 1475h150l-96 -543q70 69 148 105t185 36q119 0 186 -49.5t87 -127.5t20 -151q0 -98 -20 -209t-48.5 -197t-56.5 -140q-50 -95 -120 -150.5t-134 -68.5t-112 -13q-205 0 -275 168l-24 -135h-150zM348 350q0 -48 13 -94t39.5 -81.5t67.5 -57t97 -21.5 q103 0 171.5 55.5t105.5 149.5q25 67 44.5 151t28.5 155t9 114q0 81 -25 132t-71.5 71t-102.5 20q-82 0 -156 -45t-114.5 -113.5t-55.5 -140.5l-45 -225q-6 -35 -6 -70z" />
<glyph unicode="c" horiz-adv-x="905" d="M170 326q0 82 18 186.5t42 175.5t51 121q49 96 115.5 156.5t148 84t164.5 23.5q100 0 170.5 -41.5t99.5 -102.5t37 -116l-150 -33q-18 89 -62 128.5t-128 39.5q-74 0 -133 -34.5t-103 -106.5q-38 -67 -66 -158.5t-38 -170.5t-10 -134q0 -53 10 -98.5t35 -79.5t65.5 -53 t102.5 -19q70 0 122 26t80.5 64t46.5 76l132 -45q-26 -58 -62.5 -104t-85.5 -78t-113 -49t-145 -17q-93 0 -158.5 24.5t-106.5 70.5t-60 112.5t-19 151.5z" />
<glyph unicode="d" horiz-adv-x="1059" d="M170 328q0 96 23.5 219t61.5 214t77 144q63 88 145 128t185 40q54 0 96 -9.5t75.5 -27.5t59 -44t45.5 -60l96 543h150l-260 -1475h-150l25 129q-66 -85 -152 -123.5t-188 -38.5q-80 0 -135 30.5t-89.5 81t-49.5 115.5t-15 134zM324 332q0 -49 10.5 -92t33.5 -75t61 -50.5 t93 -18.5q51 0 103.5 22t97 61.5t77 94.5t44.5 121l45 250q6 34 6 66q0 80 -38.5 137t-91.5 76.5t-99 19.5q-80 0 -133 -32t-81 -74t-44 -78q-29 -62 -49 -150t-27.5 -159.5t-7.5 -118.5z" />
<glyph unicode="e" horiz-adv-x="989" d="M168 319q0 93 21 200.5t50 189t56 129.5q66 118 170 176.5t242 58.5q158 0 234.5 -82.5t76.5 -226.5q0 -66 -12 -159.5t-19 -133.5h-655q-17 -79 -17 -145q0 -94 35 -149t88 -70t103 -15q61 0 114 22.5t88.5 54t57.5 56.5l108 -69q-45 -62 -107 -106t-137.5 -63.5 t-154.5 -19.5q-87 0 -151 25t-106.5 70.5t-63.5 110.5t-21 146zM354 590h508q15 88 15 151q0 89 -29 136.5t-76 62t-92 14.5q-54 0 -103.5 -18t-91.5 -60t-75.5 -112t-55.5 -174z" />
<glyph unicode="f" horiz-adv-x="551" d="M156 0l163 922h-135l21 118h135l16 99q19 101 50.5 161t74.5 97q56 46 119 64t125 18q71 0 111 -6l-23 -125q-36 6 -90 6q-34 0 -71 -8.5t-72 -40.5q-23 -23 -42.5 -61.5t-31.5 -108.5l-17 -95h238l-20 -118h-238l-164 -922h-149z" />
<glyph unicode="g" horiz-adv-x="1059" d="M92 -240l131 58q26 -62 85 -96.5t155 -34.5q60 0 106.5 12.5t81.5 38.5q45 31 71.5 81t39.5 122l31 178q-58 -54 -115.5 -86t-111 -40.5t-103.5 -8.5q-117 0 -185 57.5t-86 141.5t-18 157q0 85 17.5 193t44 183.5t53.5 125.5q27 51 62 93t81 73t103 48t127 17 q115 0 180.5 -42t93.5 -118l22 127h150l-197 -1106q-18 -106 -66 -180t-120 -121q-56 -34 -125.5 -50.5t-150.5 -16.5q-111 0 -191.5 36t-116.5 79.5t-49 78.5zM328 352q0 -51 10 -94.5t33 -75.5t62 -50.5t97 -18.5q87 0 159 53.5t110.5 128.5t50.5 141l39 201q6 33 6 65 q0 74 -32 133t-84 84t-109 25q-65 0 -119.5 -27.5t-82.5 -64t-46 -70.5q-28 -54 -53 -150t-33 -165.5t-8 -114.5z" />
<glyph unicode="h" horiz-adv-x="1047" d="M135 0l260 1475h148l-103 -580q82 97 173.5 137.5t193.5 40.5q50 0 94.5 -14.5t78.5 -44.5t53.5 -76.5t19.5 -110.5q0 -33 -9 -82l-131 -745h-149l125 707q8 61 8 79q0 79 -41 114.5t-125 35.5q-60 0 -117.5 -33t-104 -82.5t-78 -107.5t-40.5 -109l-106 -604h-150z" />
<glyph unicode="i" horiz-adv-x="420" d="M135 0l184 1040h150l-184 -1040h-150zM365 1303l30 172h150l-31 -172h-149z" />
<glyph unicode="j" horiz-adv-x="428" d="M-125 -391l23 125q9 -2 17 -2h13q75 0 118 29t60 76t25 93l197 1110h149l-201 -1132q-12 -68 -36 -123.5t-70 -95.5q-42 -38 -102.5 -60t-147.5 -22q-11 0 -22.5 1t-22.5 1zM373 1303l30 172h150l-31 -172h-149z" />
<glyph unicode="k" horiz-adv-x="909" d="M135 0l260 1475h150l-152 -863l496 428h182l-412 -366l242 -674h-149l-213 578l-181 -158l-73 -420h-150z" />
<glyph unicode="l" horiz-adv-x="420" d="M135 0l260 1475h150l-260 -1475h-150z" />
<glyph unicode="m" horiz-adv-x="1610" d="M135 0l184 1040h148l-27 -143q51 67 114.5 108t122.5 54.5t103 13.5q66 0 123.5 -24.5t86.5 -67t34 -90.5q59 75 122.5 116.5t122 53.5t103.5 12q94 0 152 -40t76 -97t18 -109q0 -24 -8 -82l-133 -745h-150l125 707q10 52 10 102q0 47 -15.5 76t-49.5 42t-76 13 q-80 0 -159 -57.5t-120.5 -131.5t-52.5 -137l-108 -614h-150l125 707q12 64 12 106q0 46 -15.5 74t-50.5 40.5t-77 12.5q-80 0 -158.5 -58.5t-120.5 -132.5t-53 -135l-108 -614h-150z" />
<glyph unicode="n" horiz-adv-x="1047" d="M135 0l184 1040h148l-27 -145q82 97 173.5 137.5t193.5 40.5q87 0 145.5 -39.5t80.5 -97t22 -109.5q0 -31 -6 -61l-136 -766h-149l125 707q8 56 8 81q0 53 -19.5 86t-59 47.5t-87.5 14.5q-60 0 -116.5 -28t-102.5 -74t-77.5 -104t-41.5 -118l-108 -612h-150z" />
<glyph unicode="o" horiz-adv-x="1032" d="M172 330q0 91 21 207t51.5 193t62.5 128q69 110 168 162.5t230 52.5q169 0 255.5 -94.5t86.5 -263.5q0 -82 -17.5 -183t-42.5 -176t-49 -123q-66 -130 -174.5 -198t-253.5 -68q-89 0 -153 25t-105 72t-60.5 114t-19.5 152zM328 346q0 -51 10.5 -97.5t34.5 -81t63 -55 t96 -20.5q60 0 114 26t88 62.5t54 71.5q32 59 56 148t33.5 166.5t9.5 125.5q0 85 -25 143t-73.5 84.5t-106.5 26.5q-84 0 -150 -45t-104 -117q-22 -41 -40.5 -96.5t-31.5 -115.5t-20.5 -119t-7.5 -107z" />
<glyph unicode="p" horiz-adv-x="1059" d="M66 -393l253 1433h150l-25 -135q130 168 342 168q122 0 188.5 -56t83.5 -133.5t17 -142.5q0 -90 -17.5 -196t-41.5 -185t-49 -131q-44 -92 -103 -151t-131.5 -85t-144.5 -26q-101 0 -168.5 32t-116.5 107l-88 -499h-149zM348 328q0 -47 13.5 -89t41 -74t69 -50.5 t97.5 -18.5q72 0 124 26t82 66t48 78q31 63 57.5 166t36 176t9.5 119q0 72 -21.5 122t-68.5 72.5t-105 22.5q-46 0 -99 -23t-101 -66t-85 -104t-51 -137l-41 -219q-6 -33 -6 -67z" />
<glyph unicode="q" horiz-adv-x="1059" d="M172 328q0 89 16.5 188t41 176t51.5 129q27 54 62.5 100t82 80t105.5 53t131 19q60 0 107.5 -12.5t83 -33t57.5 -46.5t30 -53l18 112h150l-254 -1433h-152l86 487q-61 -55 -114.5 -83t-109 -36t-105.5 -8q-86 0 -141.5 30.5t-87.5 81t-45 115.5t-13 134zM326 334 q0 -47 8.5 -90t31 -76t61.5 -52.5t99 -19.5q93 0 165.5 54t109 130t49.5 146l39 223q6 31 6 64q0 74 -32 130t-84.5 78.5t-108.5 22.5q-72 0 -125 -28.5t-84.5 -71.5t-48.5 -82q-25 -53 -46.5 -141t-30.5 -165t-9 -122z" />
<glyph unicode="r" horiz-adv-x="643" d="M135 0l184 1040h148l-41 -225q57 91 130 144t134.5 69t100.5 16h20l-27 -151h-39q-88 0 -153.5 -39t-111 -99.5t-72.5 -135t-39 -146.5l-84 -473h-150z" />
<glyph unicode="s" horiz-adv-x="915" d="M125 203l133 51q10 -35 30.5 -65t51.5 -52t71 -34.5t89 -12.5q117 0 177 43t60 123q0 79 -50 127t-171 111q-99 52 -153.5 90t-82.5 90t-28 110q0 111 63.5 179.5t153.5 89t172 20.5q60 0 112.5 -13.5t90.5 -35.5q52 -31 88 -73t51 -89l-129 -49q-16 42 -52.5 77 t-84 51.5t-94.5 16.5q-81 0 -133.5 -19t-72.5 -55.5t-20 -78.5q0 -32 17.5 -57t47.5 -47.5t70 -44.5l84 -44q96 -50 157 -98.5t89.5 -107.5t28.5 -119q0 -80 -29 -140t-82 -100t-128.5 -60t-168.5 -20q-137 0 -229 58.5t-129 177.5z" />
<glyph unicode="t" horiz-adv-x="553" d="M184 926l21 114h135l49 283h150l-50 -283h216l-21 -114h-215l-107 -604q-12 -63 -12 -99q0 -40 16 -67.5t46.5 -37t72.5 -9.5q36 0 68 6l-23 -125q-36 -6 -84 -6q-71 0 -118 15t-76 42.5t-41 67t-12 88.5q0 43 14 125l106 604h-135z" />
<glyph unicode="u" horiz-adv-x="1049" d="M178 227q0 56 8 90l131 723h154l-127 -698q-6 -38 -6 -74q0 -84 37.5 -123t128.5 -39q84 0 162.5 55t120 130t53.5 143l108 606h150l-185 -1040h-147l27 143q-58 -67 -117.5 -107.5t-120 -54.5t-117.5 -14q-58 0 -106 18.5t-82 52t-53 81.5t-19 108z" />
<glyph unicode="v" horiz-adv-x="920" d="M203 1040h149l148 -829l442 829h143l-557 -1040h-137z" />
<glyph unicode="w" horiz-adv-x="1327" d="M203 1040h143l66 -839l362 839h144l65 -839l363 839h147l-475 -1040h-137l-78 788l-357 -788h-137z" />
<glyph unicode="x" horiz-adv-x="866" d="M29 0l420 524l-224 516h160l164 -385l305 385h156l-404 -508l232 -532h-160l-174 406l-318 -406h-157z" />
<glyph unicode="y" horiz-adv-x="924" d="M49 -391l25 131h24h13q46 4 77 20t59 49t50 72l90 164l-184 995h147l148 -794l440 794h152l-664 -1190q-42 -75 -81 -122.5t-78.5 -74t-82 -36.5t-90.5 -10h-25q-11 0 -20 2z" />
<glyph unicode="z" horiz-adv-x="739" d="M29 0l20 115l651 811h-481l21 114h651l-21 -114l-651 -811h512l-20 -115h-682z" />
<glyph unicode="{" horiz-adv-x="625" d="M150 575l26 148q57 4 95 18t63 41.5t41 61.5q32 66 61 243q19 114 44 186.5t66.5 112.5t90.5 60q37 15 85 22t114 7l-23 -127q-95 0 -137 -27.5t-58 -85.5t-28 -129q-8 -44 -13 -77t-11.5 -64t-16 -64t-27.5 -76q-21 -46 -47.5 -78t-64 -56t-80.5 -42q54 -27 83 -59 t38.5 -73.5t9.5 -80.5q0 -46 -3 -74t-13 -81.5t-15 -87.5q-6 -38 -12 -71.5t-6 -62.5q0 -41 16.5 -64.5t54 -33.5t84.5 -10l-22 -127q-66 0 -111 6.5t-76 22.5q-40 18 -64.5 53.5t-29 69.5t-4.5 63q0 58 21 172q6 39 17 94t11 117q0 60 -21 92.5t-60 44.5t-78 16z" />
<glyph unicode="|" horiz-adv-x="465" d="M139 -176l291 1651h123l-291 -1651h-123z" />
<glyph unicode="}" horiz-adv-x="625" d="M18 -176l23 127q62 0 100 11t61.5 38.5t36.5 74t25 118.5q9 49 17.5 103.5t20.5 94t30 82.5q15 38 43 74t66.5 60t82.5 42q-38 18 -63 38.5t-40 46.5t-21.5 57.5t-6.5 70.5q0 45 4.5 90.5t12.5 81.5l14 72l12 71q6 33 6 62q0 41 -17 65t-54.5 34t-83.5 10l22 127 q66 0 111 -7t76 -22q41 -21 62.5 -52t28.5 -68t7 -66q0 -56 -21 -173q-28 -146 -28 -210q0 -61 22.5 -95.5t60 -44.5t77.5 -14l-27 -148q-58 -5 -97 -19.5t-62.5 -40.5t-39.5 -60q-33 -68 -61 -244q-20 -115 -45.5 -187t-66 -111.5t-89.5 -59.5q-37 -16 -85 -22.5t-114 -6.5 z" />
<glyph unicode="~" horiz-adv-x="1024" d="M154 645q39 61 95.5 109.5t109 70t100.5 21.5t101.5 -21t105.5 -46l97 -45q45 -21 77 -21q43 0 88 28t75 61l48 56l73 -65q-45 -63 -98 -111.5t-106.5 -69t-100.5 -20.5q-45 0 -98.5 18t-116 50.5t-103 48.5t-65.5 16q-58 0 -105 -38.5t-104 -106.5z" />
<glyph unicode="&#xa1;" horiz-adv-x="586" d="M133 -434l207 1089h137l-174 -1089h-170zM344 823l39 217h188l-39 -217h-188z" />
<glyph unicode="&#xa2;" d="M221 334q0 85 19 186.5t43 171t51 117.5q45 87 103 143.5t129.5 84t144.5 34.5l37 209h110l-37 -209q124 -12 188 -73.5t78 -170.5l-137 -43q-15 78 -54.5 115t-96.5 45l-150 -846q69 10 124 48.5t97 113.5l119 -49q-42 -79 -100 -132.5t-127 -78.5t-135 -31l-43 -245 h-111l43 245q-84 8 -141 37.5t-91 77.5t-48.5 111.5t-14.5 138.5zM377 350q0 -44 7 -85t25.5 -74.5t50.5 -57.5t81 -33l147 844q-63 -9 -110 -43t-82 -94q-44 -74 -72 -164t-37.5 -163t-9.5 -130z" />
<glyph unicode="&#xa3;" d="M119 0l22 127l76 55q41 29 81 61.5t77 68.5t65 76t45 84t17 93q0 34 -10 72h-242l20 121h164q-38 71 -59 118.5t-30 94t-9 86.5q0 100 37 178t101 131.5t148 81t179 27.5q124 0 203 -37.5t120.5 -112.5t57.5 -166l-152 -35q-25 115 -86 169.5t-172 54.5q-88 0 -156 -43.5 t-95 -106.5t-27 -127q0 -50 13 -90t31.5 -76t40 -71.5t39.5 -75.5h357l-21 -121h-297v-31q0 -82 -22.5 -149.5t-63.5 -125t-98 -107t-125 -95.5h643l-22 -129h-850z" />
<glyph unicode="&#xa4;" d="M94 373l121 121q-38 51 -59 112.5t-21 130.5t22 132t60 116l-123 123l84 84l123 -123q51 37 113 58.5t131 21.5q62 0 122.5 -19t123.5 -61l122 123l82 -84l-123 -123q39 -53 60.5 -115t21.5 -133q0 -68 -20.5 -129.5t-59.5 -113.5l123 -121l-84 -84l-120 123 q-51 -41 -114 -62.5t-134 -21.5q-69 0 -132 21.5t-116 60.5l-121 -121zM248 737q0 -62 23.5 -116t63.5 -94t94 -63.5t116 -23.5q91 0 163.5 49t103 117.5t30.5 130.5q0 91 -49.5 163t-118.5 103t-129 31q-92 0 -166 -50.5t-102.5 -118t-28.5 -128.5z" />
<glyph unicode="&#xa5;" d="M168 330l20 110h344l25 144l-8 28h-330l19 111h276l-223 719h155l218 -719l481 719h162l-496 -719h295l-19 -111h-352l-20 -28l-25 -144h367l-21 -110h-366l-58 -330h-157l57 330h-344z" />
<glyph unicode="&#xa6;" horiz-adv-x="465" d="M139 -176l97 549h122l-96 -549h-123zM334 926l96 549h123l-96 -549h-123z" />
<glyph unicode="&#xa7;" horiz-adv-x="940" d="M80 -70l131 64q34 -91 96 -143t156 -52q66 0 118.5 31t73.5 76.5t21 91.5q0 55 -37.5 101t-82.5 76l-75 50l-90 60q-48 32 -88 71t-66 87t-26 108q0 92 50.5 167.5t118.5 113.5t128 51q-53 34 -94 78t-57.5 90t-16.5 88q0 84 31.5 147t85 105t123 63t145.5 21 q134 0 213 -63.5t106 -180.5l-137 -53q-20 74 -54 116t-76 54t-81 12q-67 0 -119 -26t-73 -70.5t-21 -92.5q0 -34 18 -65.5t48.5 -61.5t70.5 -59t85 -57q102 -66 149.5 -107.5t72.5 -95.5t25 -109q0 -92 -48.5 -167.5t-115.5 -115.5t-126 -54q56 -40 92.5 -81t52.5 -86.5 t16 -86.5q0 -123 -63 -205t-152 -110.5t-170 -28.5q-74 0 -131.5 19.5t-101 53t-74.5 79t-51 97.5zM356 573q0 -33 13 -60t36.5 -51t56.5 -47.5t73 -49.5q49 1 97.5 15.5t87.5 42.5t63 69.5t24 97.5t-41.5 103t-128.5 104q-84 0 -152.5 -32.5t-98.5 -83t-30 -108.5z" />
<glyph unicode="&#xa8;" horiz-adv-x="698" d="M336 1212l31 174h145l-31 -174h-145zM645 1212l31 174h143l-31 -174h-143z" />
<glyph unicode="&#xa9;" horiz-adv-x="1679" d="M205 737q0 164 66.5 313.5t185.5 257t254.5 153.5t263.5 46q106 0 204.5 -27.5t184.5 -77.5t156 -120t120 -156t77.5 -184.5t27.5 -204.5q0 -167 -67.5 -316t-186 -256t-255.5 -152.5t-261 -45.5q-139 0 -267.5 47.5t-230 133t-166.5 197.5t-85.5 207.5t-20.5 184.5z M321 737q0 -89 23.5 -172.5t66.5 -156t102.5 -132.5t132.5 -102.5t156 -66t173 -23.5q142 0 267 57.5t216.5 158.5t130.5 217.5t39 219.5q0 90 -23.5 173t-66 156t-102.5 132.5t-132.5 102.5t-156 66.5t-172.5 23.5q-135 0 -254 -51.5t-208 -140.5t-140.5 -208t-51.5 -254z M633 723q0 74 10 130.5t24 94.5q39 105 115 157t201 52q215 0 282 -194l-112 -41q-22 53 -51.5 82.5t-61.5 39t-57 9.5q-63 0 -109.5 -21.5t-70.5 -75.5q-22 -49 -31.5 -108t-9.5 -125q0 -110 10.5 -153.5t30.5 -75.5q28 -51 74 -74t102 -23q43 0 79 15.5t62.5 51t42.5 77.5 l109 -39q-34 -109 -107.5 -161t-193.5 -52q-119 0 -193 51.5t-113 161.5q-12 35 -22 87.5t-10 133.5z" />
<glyph unicode="&#xaa;" horiz-adv-x="670" d="M203 924q0 46 16.5 92t48.5 78q41 40 99 61t137 21h170l14 81q4 16 4 29q0 51 -34 73.5t-93 22.5q-68 0 -107 -24t-67 -66l-88 39q40 69 108.5 106.5t174.5 37.5q65 0 117.5 -19t78 -58t25.5 -85q0 -26 -6 -53l-84 -482h-101l13 68q-59 -48 -114 -67t-120 -19 q-41 0 -76 9.5t-60.5 29.5t-40.5 51t-15 74zM324 942q0 -45 32.5 -65.5t89.5 -20.5q51 0 98 21.5t69.5 54.5t27.5 61l18 94h-141q-37 0 -72 -6t-62 -22.5t-43.5 -44.5t-16.5 -72z" />
<glyph unicode="&#xab;" horiz-adv-x="1040" d="M176 520l426 484l100 -60l-335 -424l186 -424l-121 -59zM598 520l426 484l100 -60l-335 -424l186 -424l-121 -59z" />
<glyph unicode="&#xac;" d="M233 885l20 119h897l-92 -531h-123l72 412h-774z" />
<glyph unicode="&#xad;" horiz-adv-x="698" d="M160 453l26 153h539l-27 -153h-538z" />
<glyph unicode="&#xae;" horiz-adv-x="1679" d="M205 737q0 164 66.5 313.5t185.5 257t254.5 153.5t263.5 46q106 0 204.5 -27.5t184.5 -77.5t156 -120t120 -156t77.5 -184.5t27.5 -204.5q0 -167 -67.5 -316t-186 -256t-255.5 -152.5t-261 -45.5q-139 0 -267.5 47.5t-230 133t-166.5 197.5t-85.5 207.5t-20.5 184.5z M321 737q0 -89 23.5 -172.5t66.5 -156t102.5 -132.5t132.5 -102.5t156 -66t173 -23.5q142 0 267 57.5t216.5 158.5t130.5 217.5t39 219.5q0 90 -23.5 173t-66 156t-102.5 132.5t-132.5 102.5t-156 66.5t-172.5 23.5q-135 0 -254 -51.5t-208 -140.5t-140.5 -208t-51.5 -254z M692 307v832h317q87 0 145 -38t77.5 -96t19.5 -114q0 -72 -19 -117.5t-48 -69t-56 -36.5l160 -361h-133l-141 334h-205v-334h-117zM809 743h180q68 0 102.5 34.5t34.5 113.5q0 81 -35.5 113t-115.5 32h-166v-293z" />
<glyph unicode="&#xaf;" horiz-adv-x="698" d="M252 1237l22 131h625l-22 -131h-625z" />
<glyph unicode="&#xb0;" horiz-adv-x="721" d="M229 1196q0 95 51 171t123 108t138 32q95 0 171 -51.5t108 -123.5t32 -136q0 -65 -24.5 -121.5t-66.5 -98.5t-99 -66.5t-121 -24.5q-65 0 -121.5 24.5t-99 66.5t-67 98.5t-24.5 121.5zM352 1196q0 -38 15 -72.5t41 -60t60 -40.5t73 -15q38 0 72.5 15t60 40.5t40.5 60 t15 72.5q0 58 -32.5 104t-75 65t-80.5 19q-59 0 -105.5 -33t-65 -75t-18.5 -80z" />
<glyph unicode="&#xb1;" d="M216 0v119h897v-119h-897zM216 680v119h389v387h119v-387h389v-119h-389v-389h-119v389h-389z" />
<glyph unicode="&#xb2;" horiz-adv-x="717" d="M155 634l15 88l311 252q69 56 115 100.5t75 98.5t29 100q0 34 -16 59t-44 36t-61 11q-77 0 -126.5 -43.5t-78.5 -122.5l-108 17q20 66 61 122.5t112 90t157 33.5q96 0 149.5 -37t67.5 -83t14 -77q0 -84 -46 -159t-105 -126t-101 -84l-221 -172h385l-18 -104h-566z" />
<glyph unicode="&#xb3;" horiz-adv-x="717" d="M202 839l117 8q1 -26 8.5 -50t24.5 -43t44.5 -30.5t68.5 -11.5q69 0 116.5 38t66.5 90.5t19 100.5q0 72 -34.5 105.5t-102.5 33.5q-48 0 -106 -20l-31 69l303 228h-360l16 100h500l-19 -106l-272 -203q13 6 47 6q95 0 141.5 -54.5t46.5 -142.5q0 -77 -23 -140t-66.5 -108 t-106.5 -69.5t-144 -24.5q-74 0 -122.5 20t-78 52.5t-41.5 72.5t-12 79z" />
<glyph unicode="&#xb4;" horiz-adv-x="698" d="M451 1200l151 260h217l-262 -260h-106z" />
<glyph unicode="&#xb5;" horiz-adv-x="1051" d="M66 -393l253 1433h150l-125 -702q-6 -35 -6 -62q0 -35 10 -66.5t29.5 -55.5t48.5 -38t68 -14q85 0 167 57t125.5 132t55.5 143l108 606h150l-185 -1040h-147l27 143q-57 -71 -116.5 -112t-107.5 -52t-84 -12q-36 0 -82 15t-72 37.5t-36 46.5l-82 -459h-149z" />
<glyph unicode="&#xb6;" horiz-adv-x="1169" d="M234 1004q0 94 24 165t66 123.5t98 87.5t121 56t135 30t139 9h564l-23 -132h-108l-306 -1736h-139l306 1736h-213l-306 -1736h-140l180 1022q-96 8 -170.5 40t-125 82t-76.5 115t-26 138z" />
<glyph unicode="&#xb7;" horiz-adv-x="586" d="M303 604l41 232h193l-41 -232h-193z" />
<glyph unicode="&#xb8;" horiz-adv-x="698" d="M100 -399l23 94q60 0 99 6t67 18q21 10 40 25t19 41q0 28 -34 45.5t-117 17.5l73 152h117l-51 -96q49 -3 85 -17.5t53.5 -40.5t17.5 -55q0 -53 -31 -90.5t-76 -58.5q-37 -19 -99 -32t-122 -13q-46 0 -64 4z" />
<glyph unicode="&#xb9;" horiz-adv-x="717" d="M254 634l16 92h152l110 618l-190 -92l-35 90l270 134h98l-133 -750h142l-17 -92h-413z" />
<glyph unicode="&#xba;" horiz-adv-x="713" d="M256 1001q0 78 19 155.5t53 146.5q29 59 75 99t102.5 56.5t110.5 16.5q123 0 179.5 -64t56.5 -176q0 -63 -12 -123.5t-28.5 -107.5t-33.5 -78q-41 -76 -112.5 -124t-176.5 -48q-65 0 -109 17t-72 49t-40 78t-12 103zM375 1004q0 -55 16.5 -91.5t46 -50.5t68.5 -14 q57 0 93 22.5t56 59.5q35 65 55.5 139.5t20.5 149.5q0 58 -14.5 93t-45.5 50.5t-71 15.5q-57 0 -93 -22t-56 -60q-38 -65 -57 -141t-19 -151z" />
<glyph unicode="&#xbb;" horiz-adv-x="1040" d="M98 96l338 424l-188 424l121 60l258 -484l-428 -483zM520 96l338 424l-188 424l121 60l258 -484l-428 -483z" />
<glyph unicode="&#xbc;" horiz-adv-x="1686" d="M254 634l16 92h152l110 618l-190 -92l-35 90l270 134h98l-133 -750h142l-17 -92h-413zM527 -33l741 1508h121l-742 -1508h-120zM1019 163l16 96l486 584h127l-103 -590h88l-16 -90h-88l-29 -162h-112l28 162h-397zM1144 253h289l84 458z" />
<glyph unicode="&#xbd;" horiz-adv-x="1686" d="M254 634l16 92h152l110 618l-190 -92l-35 90l270 134h98l-133 -750h142l-17 -92h-413zM527 -33l741 1508h121l-742 -1508h-120zM990 1l15 88l311 252q69 56 115 100.5t75 98.5t29 100q0 34 -16 59t-44 36t-61 11q-77 0 -126.5 -43.5t-78.5 -122.5l-108 17q20 66 61 122.5 t112 90t157 33.5q96 0 149.5 -37t67.5 -83t14 -77q0 -84 -46 -159t-105 -126t-101 -84l-221 -172h385l-18 -104h-566z" />
<glyph unicode="&#xbe;" horiz-adv-x="1686" d="M202 839l117 8q1 -26 8.5 -50t24.5 -43t44.5 -30.5t68.5 -11.5q69 0 116.5 38t66.5 90.5t19 100.5q0 72 -34.5 105.5t-102.5 33.5q-48 0 -106 -20l-31 69l303 228h-360l16 100h500l-19 -106l-272 -203q13 6 47 6q95 0 141.5 -54.5t46.5 -142.5q0 -77 -23 -140t-66.5 -108 t-106.5 -69.5t-144 -24.5q-74 0 -122.5 20t-78 52.5t-41.5 72.5t-12 79zM527 -33l741 1508h121l-742 -1508h-120zM1019 163l16 96l486 584h127l-103 -590h88l-16 -90h-88l-29 -162h-112l28 162h-397zM1144 253h289l84 458z" />
<glyph unicode="&#xbf;" horiz-adv-x="971" d="M76 -123q0 82 30 147t75 111t87 82l90 72q46 34 86 75.5t70.5 95.5t44.5 132l12 63h154l-8 -57q-18 -126 -79.5 -216t-129.5 -146l-113 -95q-62 -52 -97 -91.5t-50 -80t-15 -84.5q0 -62 28.5 -111t73 -68t89.5 -19q95 0 160.5 39t100 99.5t52.5 119.5l140 -11 q-41 -129 -115 -215t-170 -119.5t-189 -33.5q-111 0 -190 48.5t-108 120t-29 142.5zM584 823l39 217h188l-39 -217h-188z" />
<glyph unicode="&#xc0;" horiz-adv-x="1188" d="M18 0l736 1475h166l249 -1475h-165l-68 422h-553l-207 -422h-158zM449 553h466l-114 717zM641 1808h203l72 -260h-107z" />
<glyph unicode="&#xc1;" horiz-adv-x="1188" d="M18 0l736 1475h166l249 -1475h-165l-68 422h-553l-207 -422h-158zM449 553h466l-114 717zM777 1548l151 260h217l-262 -260h-106z" />
<glyph unicode="&#xc2;" horiz-adv-x="1188" d="M18 0l736 1475h166l249 -1475h-165l-68 422h-553l-207 -422h-158zM449 553h466l-114 717zM568 1546l241 260h162l141 -260h-149l-88 170l-156 -170h-151z" />
<glyph unicode="&#xc3;" horiz-adv-x="1188" d="M18 0l736 1475h166l249 -1475h-165l-68 422h-553l-207 -422h-158zM449 553h466l-114 717zM541 1579q9 59 34.5 103t62 63.5t79.5 19.5q48 0 134.5 -38t111.5 -38q20 0 37.5 16.5t31.5 61.5h101q-10 -56 -35 -102.5t-61 -66t-74 -19.5q-55 0 -138.5 39t-107.5 39 q-23 0 -41.5 -16.5t-32.5 -61.5h-102z" />
<glyph unicode="&#xc4;" horiz-adv-x="1188" d="M18 0l736 1475h166l249 -1475h-165l-68 422h-553l-207 -422h-158zM449 553h466l-114 717zM608 1560l31 174h145l-31 -174h-145zM917 1560l31 174h143l-31 -174h-143z" />
<glyph unicode="&#xc5;" horiz-adv-x="1188" d="M18 0l713 1427q-37 25 -57.5 63t-20.5 85q0 57 31.5 102t76 61.5t83.5 16.5q55 0 101 -29t66.5 -71t20.5 -80q0 -56 -28.5 -98t-73.5 -64l239 -1413h-165l-68 422h-553l-207 -422h-158zM449 553h466l-114 717zM739 1573q0 -42 30 -69t75 -27q33 0 58 17t35.5 38t10.5 41 q0 30 -18.5 54t-42 35t-43.5 11q-34 0 -59.5 -17t-35.5 -39.5t-10 -43.5z" />
<glyph unicode="&#xc6;" horiz-adv-x="1706" d="M8 0l1014 1475h848l-25 -138h-598l-90 -510h569l-24 -137h-569l-97 -553h615l-25 -137h-772l78 438h-453l-305 -438h-166zM571 569h383l136 768z" />
<glyph unicode="&#xc7;" horiz-adv-x="1167" d="M219 442q0 89 13.5 195t38.5 211.5t60.5 203.5t80.5 171q90 150 219 217t295 67q128 0 212.5 -50t122 -124.5t50.5 -144.5l-166 -43q-22 115 -80.5 170t-163.5 55q-110 0 -198 -50t-152 -167q-35 -65 -64 -154t-50 -185.5t-32.5 -191t-11.5 -169.5q0 -176 68 -262.5 t219 -86.5q79 0 145.5 28.5t114.5 85t78 124.5l143 -43q-55 -115 -136.5 -193.5t-176 -108.5t-189.5 -30q-117 0 -200.5 31.5t-137 92t-78 149t-24.5 202.5zM370 -399l23 94q60 0 99 6t67 18q21 10 40 25t19 41q0 28 -34 45.5t-117 17.5l73 152h117l-51 -96q49 -3 85 -17.5 t53.5 -40.5t17.5 -55q0 -53 -31 -90.5t-76 -58.5q-37 -19 -99 -32t-122 -13q-46 0 -64 4z" />
<glyph unicode="&#xc8;" horiz-adv-x="1047" d="M170 0l260 1475h780l-24 -138h-623l-90 -510h594l-25 -137h-593l-97 -553h639l-24 -137h-797zM667 1808h203l72 -260h-107z" />
<glyph unicode="&#xc9;" horiz-adv-x="1047" d="M170 0l260 1475h780l-24 -138h-623l-90 -510h594l-25 -137h-593l-97 -553h639l-24 -137h-797zM701 1548l151 260h217l-262 -260h-106z" />
<glyph unicode="&#xca;" horiz-adv-x="1047" d="M170 0l260 1475h780l-24 -138h-623l-90 -510h594l-25 -137h-593l-97 -553h639l-24 -137h-797zM561 1546l241 260h162l141 -260h-149l-88 170l-156 -170h-151z" />
<glyph unicode="&#xcb;" horiz-adv-x="1047" d="M170 0l260 1475h780l-24 -138h-623l-90 -510h594l-25 -137h-593l-97 -553h639l-24 -137h-797zM598 1560l31 174h145l-31 -174h-145zM907 1560l31 174h143l-31 -174h-143z" />
<glyph unicode="&#xcc;" horiz-adv-x="498" d="M170 0l260 1475h158l-260 -1475h-158zM332 1808h203l72 -260h-107z" />
<glyph unicode="&#xcd;" horiz-adv-x="498" d="M170 0l260 1475h158l-260 -1475h-158zM419 1548l151 260h217l-262 -260h-106z" />
<glyph unicode="&#xce;" horiz-adv-x="498" d="M170 0l260 1475h158l-260 -1475h-158zM243 1546l241 260h162l141 -260h-149l-88 170l-156 -170h-151z" />
<glyph unicode="&#xcf;" horiz-adv-x="498" d="M170 0l260 1475h158l-260 -1475h-158zM296 1560l31 174h145l-31 -174h-145zM605 1560l31 174h143l-31 -174h-143z" />
<glyph unicode="&#xd0;" horiz-adv-x="1253" d="M158 694l22 129h135l115 652h334q125 0 213.5 -23.5t140.5 -62.5t82 -76q53 -68 72.5 -151.5t19.5 -170.5q0 -95 -16.5 -201.5t-50.5 -220t-77.5 -200.5t-88.5 -144t-88 -92q-78 -63 -182 -98t-244 -35h-375l123 694h-135zM350 131h154q90 0 153 9.5t111.5 32.5t85.5 54 q54 45 100 123t80.5 175t54 192t25.5 161.5t6 114.5q0 65 -13 126t-48 108q-48 61 -129.5 88.5t-210.5 27.5h-154l-92 -520h301l-22 -129h-301z" />
<glyph unicode="&#xd1;" horiz-adv-x="1262" d="M170 0l260 1475h195l358 -1225l217 1225h152l-260 -1475h-183l-368 1245l-219 -1245h-152zM617 1579q9 59 34.5 103t62 63.5t79.5 19.5q48 0 134.5 -38t111.5 -38q20 0 37.5 16.5t31.5 61.5h101q-10 -56 -35 -102.5t-61 -66t-74 -19.5q-55 0 -138.5 39t-107.5 39 q-23 0 -41.5 -16.5t-32.5 -61.5h-102z" />
<glyph unicode="&#xd2;" horiz-adv-x="1331" d="M221 461q0 107 22 244t52.5 238.5t60.5 170.5q42 94 97 167.5t126 123.5t158.5 76t194.5 26q169 0 271.5 -74t134.5 -189.5t32 -229.5q0 -119 -23 -259t-58.5 -249.5t-69.5 -179.5q-88 -174 -226 -266.5t-334 -92.5q-121 0 -204.5 35.5t-135.5 100t-75 156t-23 202.5z M391 475q0 -81 15 -149t49.5 -118t90.5 -78t138 -28q52 0 108 18.5t97 45.5t72 57q57 57 103.5 155t78.5 221t44.5 227.5t12.5 172.5q0 128 -34.5 213t-104 122.5t-154.5 37.5q-104 0 -185.5 -48.5t-129.5 -118.5t-76 -132q-39 -86 -71 -210.5t-43 -222.5t-11 -165z M743 1808h203l72 -260h-107z" />
<glyph unicode="&#xd3;" horiz-adv-x="1331" d="M221 461q0 107 22 244t52.5 238.5t60.5 170.5q42 94 97 167.5t126 123.5t158.5 76t194.5 26q169 0 271.5 -74t134.5 -189.5t32 -229.5q0 -119 -23 -259t-58.5 -249.5t-69.5 -179.5q-88 -174 -226 -266.5t-334 -92.5q-121 0 -204.5 35.5t-135.5 100t-75 156t-23 202.5z M391 475q0 -81 15 -149t49.5 -118t90.5 -78t138 -28q52 0 108 18.5t97 45.5t72 57q57 57 103.5 155t78.5 221t44.5 227.5t12.5 172.5q0 128 -34.5 213t-104 122.5t-154.5 37.5q-104 0 -185.5 -48.5t-129.5 -118.5t-76 -132q-39 -86 -71 -210.5t-43 -222.5t-11 -165z M820 1548l151 260h217l-262 -260h-106z" />
<glyph unicode="&#xd4;" horiz-adv-x="1331" d="M221 461q0 107 22 244t52.5 238.5t60.5 170.5q42 94 97 167.5t126 123.5t158.5 76t194.5 26q169 0 271.5 -74t134.5 -189.5t32 -229.5q0 -119 -23 -259t-58.5 -249.5t-69.5 -179.5q-88 -174 -226 -266.5t-334 -92.5q-121 0 -204.5 35.5t-135.5 100t-75 156t-23 202.5z M391 475q0 -81 15 -149t49.5 -118t90.5 -78t138 -28q52 0 108 18.5t97 45.5t72 57q57 57 103.5 155t78.5 221t44.5 227.5t12.5 172.5q0 128 -34.5 213t-104 122.5t-154.5 37.5q-104 0 -185.5 -48.5t-129.5 -118.5t-76 -132q-39 -86 -71 -210.5t-43 -222.5t-11 -165z M676 1546l241 260h162l141 -260h-149l-88 170l-156 -170h-151z" />
<glyph unicode="&#xd5;" horiz-adv-x="1331" d="M221 461q0 107 22 244t52.5 238.5t60.5 170.5q42 94 97 167.5t126 123.5t158.5 76t194.5 26q169 0 271.5 -74t134.5 -189.5t32 -229.5q0 -119 -23 -259t-58.5 -249.5t-69.5 -179.5q-88 -174 -226 -266.5t-334 -92.5q-121 0 -204.5 35.5t-135.5 100t-75 156t-23 202.5z M391 475q0 -81 15 -149t49.5 -118t90.5 -78t138 -28q52 0 108 18.5t97 45.5t72 57q57 57 103.5 155t78.5 221t44.5 227.5t12.5 172.5q0 128 -34.5 213t-104 122.5t-154.5 37.5q-104 0 -185.5 -48.5t-129.5 -118.5t-76 -132q-39 -86 -71 -210.5t-43 -222.5t-11 -165z M656 1579q9 59 34.5 103t62 63.5t79.5 19.5q48 0 134.5 -38t111.5 -38q20 0 37.5 16.5t31.5 61.5h101q-10 -56 -35 -102.5t-61 -66t-74 -19.5q-55 0 -138.5 39t-107.5 39q-23 0 -41.5 -16.5t-32.5 -61.5h-102z" />
<glyph unicode="&#xd6;" horiz-adv-x="1331" d="M221 461q0 107 22 244t52.5 238.5t60.5 170.5q42 94 97 167.5t126 123.5t158.5 76t194.5 26q169 0 271.5 -74t134.5 -189.5t32 -229.5q0 -119 -23 -259t-58.5 -249.5t-69.5 -179.5q-88 -174 -226 -266.5t-334 -92.5q-121 0 -204.5 35.5t-135.5 100t-75 156t-23 202.5z M391 475q0 -81 15 -149t49.5 -118t90.5 -78t138 -28q52 0 108 18.5t97 45.5t72 57q57 57 103.5 155t78.5 221t44.5 227.5t12.5 172.5q0 128 -34.5 213t-104 122.5t-154.5 37.5q-104 0 -185.5 -48.5t-129.5 -118.5t-76 -132q-39 -86 -71 -210.5t-43 -222.5t-11 -165z M723 1560l31 174h145l-31 -174h-145zM1032 1560l31 174h143l-31 -174h-143z" />
<glyph unicode="&#xd7;" d="M297 424l289 315l-289 316l84 84l285 -312l284 312l84 -84l-288 -316l288 -315l-84 -84l-284 311l-285 -311z" />
<glyph unicode="&#xd8;" horiz-adv-x="1331" d="M113 -31l157 199q-28 60 -38.5 131.5t-10.5 149.5q0 97 15 210.5t44.5 226.5t73 216.5t101.5 179.5q89 119 208.5 172t268.5 53q111 0 188 -30t131 -84l142 174l86 -60l-166 -204q32 -62 44.5 -135t12.5 -150q0 -157 -35 -327t-90 -297.5t-112 -200.5 q-90 -115 -209 -170.5t-265 -55.5q-51 0 -100 10t-91 26.5t-75.5 37.5t-54.5 43l-141 -176zM393 459q0 -74 10 -127l742 928q-38 57 -99 84.5t-139 27.5q-77 0 -147 -31.5t-115.5 -75.5t-73.5 -87q-50 -77 -91 -204.5t-64 -266.5t-23 -248zM446 219q22 -37 70.5 -66.5 t93.5 -41t74 -11.5q73 0 143.5 33.5t118.5 80t76 87.5q38 56 75.5 155.5t60 206t31.5 199t9 144.5q0 80 -10 139z" />
<glyph unicode="&#xd9;" horiz-adv-x="1237" d="M221 336q0 37 4.5 75.5t12.5 80.5l174 983h157l-174 -983q-12 -62 -12 -121q0 -56 12.5 -104.5t42 -84.5t77.5 -57t120 -21q310 0 375 367l178 1004h158l-179 -1004q-24 -136 -73.5 -231.5t-120.5 -156t-162.5 -88.5t-200.5 -28q-106 0 -180 27t-120.5 75.5t-67.5 116.5 t-21 150zM688 1808h203l72 -260h-107z" />
<glyph unicode="&#xda;" horiz-adv-x="1237" d="M221 336q0 37 4.5 75.5t12.5 80.5l174 983h157l-174 -983q-12 -62 -12 -121q0 -56 12.5 -104.5t42 -84.5t77.5 -57t120 -21q310 0 375 367l178 1004h158l-179 -1004q-24 -136 -73.5 -231.5t-120.5 -156t-162.5 -88.5t-200.5 -28q-106 0 -180 27t-120.5 75.5t-67.5 116.5 t-21 150zM738 1548l151 260h217l-262 -260h-106z" />
<glyph unicode="&#xdb;" horiz-adv-x="1237" d="M221 336q0 37 4.5 75.5t12.5 80.5l174 983h157l-174 -983q-12 -62 -12 -121q0 -56 12.5 -104.5t42 -84.5t77.5 -57t120 -21q310 0 375 367l178 1004h158l-179 -1004q-24 -136 -73.5 -231.5t-120.5 -156t-162.5 -88.5t-200.5 -28q-106 0 -180 27t-120.5 75.5t-67.5 116.5 t-21 150zM604 1546l241 260h162l141 -260h-149l-88 170l-156 -170h-151z" />
<glyph unicode="&#xdc;" horiz-adv-x="1237" d="M221 336q0 37 4.5 75.5t12.5 80.5l174 983h157l-174 -983q-12 -62 -12 -121q0 -56 12.5 -104.5t42 -84.5t77.5 -57t120 -21q310 0 375 367l178 1004h158l-179 -1004q-24 -136 -73.5 -231.5t-120.5 -156t-162.5 -88.5t-200.5 -28q-106 0 -180 27t-120.5 75.5t-67.5 116.5 t-21 150zM647 1560l31 174h145l-31 -174h-145zM956 1560l31 174h143l-31 -174h-143z" />
<glyph unicode="&#xdd;" horiz-adv-x="1053" d="M279 1475h153l215 -736l483 736h164l-594 -875l-106 -600h-158l107 600zM742 1548l151 260h217l-262 -260h-106z" />
<glyph unicode="&#xde;" horiz-adv-x="1130" d="M170 0l260 1475h156l-45 -256h293q102 0 173.5 -30.5t116.5 -86.5q35 -44 52.5 -100.5t17.5 -124.5q0 -106 -32 -204.5t-84.5 -160.5t-110.5 -96q-57 -32 -131 -50t-168 -18h-281l-61 -348h-156zM410 475h260q125 0 213 62q52 38 84 96.5t44.5 120.5t12.5 106 q0 60 -18 102t-50 70q-37 31 -89 45.5t-117 14.5h-232z" />
<glyph unicode="&#xdf;" horiz-adv-x="1059" d="M135 0l197 1110q22 133 94.5 220.5t167 118t184.5 30.5q150 0 229.5 -69t79.5 -208q0 -88 -32.5 -166t-98.5 -135q-29 -25 -61 -43.5t-76 -32.5q120 -14 175 -79t55 -183q0 -100 -24 -200.5t-69 -173.5t-96 -113q-45 -37 -98.5 -57.5t-91 -25.5t-64.5 -5q-78 0 -117.5 7 t-82.5 21l47 125q29 -14 63 -22t76 -8q51 0 93.5 11.5t76.5 39.5q45 37 76 113.5t42 148.5t11 117q0 88 -38 136.5t-96.5 61.5t-113.5 13h-86l21 125h38q63 0 116 14.5t95 48.5q37 32 64 82.5t36 96.5t9 81q0 82 -47.5 123t-136.5 41q-56 0 -101.5 -17.5t-79.5 -49 t-56.5 -75.5t-31.5 -98l-198 -1124h-150z" />
<glyph unicode="&#xe0;" horiz-adv-x="1016" d="M135 240q0 46 13 95.5t37 87.5t46 62q115 127 344 127h265l20 117q3 12 5.5 33t2.5 35q0 78 -51.5 117.5t-144.5 39.5q-95 0 -156.5 -37.5t-105.5 -107.5l-111 57q60 102 156.5 154.5t242.5 52.5q112 0 187.5 -34.5t106 -93t30.5 -122.5q0 -24 -8 -82l-131 -741h-150 l19 106q-59 -52 -119 -83t-116.5 -40.5t-104.5 -9.5q-62 0 -113 18.5t-87.5 53.5t-56.5 84t-20 111zM289 254q0 -69 42.5 -114.5t125.5 -45.5q40 0 92.5 17t102 49.5t88.5 79.5t51 108l30 150h-215q-65 0 -122.5 -11t-100.5 -39t-68.5 -75t-25.5 -119zM549 1460h203l72 -260 h-107z" />
<glyph unicode="&#xe1;" horiz-adv-x="1016" d="M135 240q0 46 13 95.5t37 87.5t46 62q115 127 344 127h265l20 117q3 12 5.5 33t2.5 35q0 78 -51.5 117.5t-144.5 39.5q-95 0 -156.5 -37.5t-105.5 -107.5l-111 57q60 102 156.5 154.5t242.5 52.5q112 0 187.5 -34.5t106 -93t30.5 -122.5q0 -24 -8 -82l-131 -741h-150 l19 106q-59 -52 -119 -83t-116.5 -40.5t-104.5 -9.5q-62 0 -113 18.5t-87.5 53.5t-56.5 84t-20 111zM289 254q0 -69 42.5 -114.5t125.5 -45.5q40 0 92.5 17t102 49.5t88.5 79.5t51 108l30 150h-215q-65 0 -122.5 -11t-100.5 -39t-68.5 -75t-25.5 -119zM646 1200l151 260h217 l-262 -260h-106z" />
<glyph unicode="&#xe2;" horiz-adv-x="1016" d="M135 240q0 46 13 95.5t37 87.5t46 62q115 127 344 127h265l20 117q3 12 5.5 33t2.5 35q0 78 -51.5 117.5t-144.5 39.5q-95 0 -156.5 -37.5t-105.5 -107.5l-111 57q60 102 156.5 154.5t242.5 52.5q112 0 187.5 -34.5t106 -93t30.5 -122.5q0 -24 -8 -82l-131 -741h-150 l19 106q-59 -52 -119 -83t-116.5 -40.5t-104.5 -9.5q-62 0 -113 18.5t-87.5 53.5t-56.5 84t-20 111zM289 254q0 -69 42.5 -114.5t125.5 -45.5q40 0 92.5 17t102 49.5t88.5 79.5t51 108l30 150h-215q-65 0 -122.5 -11t-100.5 -39t-68.5 -75t-25.5 -119zM457 1198l241 260h162 l141 -260h-149l-88 170l-156 -170h-151z" />
<glyph unicode="&#xe3;" horiz-adv-x="1016" d="M135 240q0 46 13 95.5t37 87.5t46 62q115 127 344 127h265l20 117q3 12 5.5 33t2.5 35q0 78 -51.5 117.5t-144.5 39.5q-95 0 -156.5 -37.5t-105.5 -107.5l-111 57q60 102 156.5 154.5t242.5 52.5q112 0 187.5 -34.5t106 -93t30.5 -122.5q0 -24 -8 -82l-131 -741h-150 l19 106q-59 -52 -119 -83t-116.5 -40.5t-104.5 -9.5q-62 0 -113 18.5t-87.5 53.5t-56.5 84t-20 111zM289 254q0 -69 42.5 -114.5t125.5 -45.5q40 0 92.5 17t102 49.5t88.5 79.5t51 108l30 150h-215q-65 0 -122.5 -11t-100.5 -39t-68.5 -75t-25.5 -119zM451 1231 q9 59 34.5 103t62 63.5t79.5 19.5q48 0 134.5 -38t111.5 -38q20 0 37.5 16.5t31.5 61.5h101q-10 -56 -35 -102.5t-61 -66t-74 -19.5q-55 0 -138.5 39t-107.5 39q-23 0 -41.5 -16.5t-32.5 -61.5h-102z" />
<glyph unicode="&#xe4;" horiz-adv-x="1016" d="M135 240q0 46 13 95.5t37 87.5t46 62q115 127 344 127h265l20 117q3 12 5.5 33t2.5 35q0 78 -51.5 117.5t-144.5 39.5q-95 0 -156.5 -37.5t-105.5 -107.5l-111 57q60 102 156.5 154.5t242.5 52.5q112 0 187.5 -34.5t106 -93t30.5 -122.5q0 -24 -8 -82l-131 -741h-150 l19 106q-59 -52 -119 -83t-116.5 -40.5t-104.5 -9.5q-62 0 -113 18.5t-87.5 53.5t-56.5 84t-20 111zM289 254q0 -69 42.5 -114.5t125.5 -45.5q40 0 92.5 17t102 49.5t88.5 79.5t51 108l30 150h-215q-65 0 -122.5 -11t-100.5 -39t-68.5 -75t-25.5 -119zM520 1212l31 174h145 l-31 -174h-145zM829 1212l31 174h143l-31 -174h-143z" />
<glyph unicode="&#xe5;" horiz-adv-x="1016" d="M135 240q0 46 13 95.5t37 87.5t46 62q115 127 344 127h265l20 117q3 12 5.5 33t2.5 35q0 78 -51.5 117.5t-144.5 39.5q-95 0 -156.5 -37.5t-105.5 -107.5l-111 57q60 102 156.5 154.5t242.5 52.5q112 0 187.5 -34.5t106 -93t30.5 -122.5q0 -24 -8 -82l-131 -741h-150 l19 106q-59 -52 -119 -83t-116.5 -40.5t-104.5 -9.5q-62 0 -113 18.5t-87.5 53.5t-56.5 84t-20 111zM289 254q0 -69 42.5 -114.5t125.5 -45.5q40 0 92.5 17t102 49.5t88.5 79.5t51 108l30 150h-215q-65 0 -122.5 -11t-100.5 -39t-68.5 -75t-25.5 -119zM545 1333q0 57 32 102 t75.5 61.5t82.5 16.5q57 0 102.5 -29t66 -70.5t20.5 -80.5q0 -59 -32.5 -103.5t-75 -60.5t-81.5 -16q-40 0 -74.5 14t-60 38t-40.5 57t-15 71zM631 1331q0 -42 29.5 -69t74.5 -27q34 0 59 17t35.5 38t10.5 41q0 30 -19 55.5t-43 35.5t-43 10q-43 0 -73.5 -28.5t-30.5 -72.5z " />
<glyph unicode="&#xe6;" horiz-adv-x="1624" d="M133 227q0 69 25 137.5t73 120.5q57 63 142.5 93t199.5 30h273l26 148q5 30 5 43q0 57 -31.5 94t-78.5 49t-91 12q-96 0 -162 -37t-111 -108l-120 43q60 106 163.5 163.5t255.5 57.5q70 0 121 -12.5t91.5 -35.5t62.5 -50t31 -55q65 81 154.5 117t183.5 36q163 0 236 -80 t73 -237q0 -48 -5.5 -99.5t-15.5 -107.5l-10 -55h-645l-12 -70q-13 -58 -13 -109q0 -62 17.5 -104.5t48 -69t73 -38t93.5 -11.5q45 0 82 10.5t68.5 28.5t57.5 41.5t48 48.5l102 -65q-49 -65 -107 -107.5t-133.5 -62t-154.5 -19.5q-76 0 -130 16t-90.5 40t-58.5 53.5 t-34 56.5q-86 -72 -149 -105t-126.5 -44t-130.5 -11q-65 0 -119 14.5t-94 45t-62 78.5t-22 116zM287 250q0 -44 15.5 -73.5t42.5 -47.5t62.5 -25.5t75.5 -7.5q55 0 108 17.5t96 48.5t73 73t39 91l30 168h-229q-63 0 -120 -11.5t-99.5 -39.5t-68 -75t-25.5 -118zM999 608h496 q14 71 14 137q0 114 -49.5 161.5t-144.5 47.5q-54 0 -102.5 -18t-89 -58.5t-72 -106.5t-52.5 -163z" />
<glyph unicode="&#xe7;" horiz-adv-x="905" d="M170 326q0 82 18 186.5t42 175.5t51 121q49 96 115.5 156.5t148 84t164.5 23.5q100 0 170.5 -41.5t99.5 -102.5t37 -116l-150 -33q-18 89 -62 128.5t-128 39.5q-74 0 -133 -34.5t-103 -106.5q-38 -67 -66 -158.5t-38 -170.5t-10 -134q0 -53 10 -98.5t35 -79.5t65.5 -53 t102.5 -19q70 0 122 26t80.5 64t46.5 76l132 -45q-26 -58 -62.5 -104t-85.5 -78t-113 -49t-145 -17q-93 0 -158.5 24.5t-106.5 70.5t-60 112.5t-19 151.5zM250 -399l23 94q60 0 99 6t67 18q21 10 40 25t19 41q0 28 -34 45.5t-117 17.5l73 152h117l-51 -96q49 -3 85 -17.5 t53.5 -40.5t17.5 -55q0 -53 -31 -90.5t-76 -58.5q-37 -19 -99 -32t-122 -13q-46 0 -64 4z" />
<glyph unicode="&#xe8;" horiz-adv-x="989" d="M168 319q0 93 21 200.5t50 189t56 129.5q66 118 170 176.5t242 58.5q158 0 234.5 -82.5t76.5 -226.5q0 -66 -12 -159.5t-19 -133.5h-655q-17 -79 -17 -145q0 -94 35 -149t88 -70t103 -15q61 0 114 22.5t88.5 54t57.5 56.5l108 -69q-45 -62 -107 -106t-137.5 -63.5 t-154.5 -19.5q-87 0 -151 25t-106.5 70.5t-63.5 110.5t-21 146zM354 590h508q15 88 15 151q0 89 -29 136.5t-76 62t-92 14.5q-54 0 -103.5 -18t-91.5 -60t-75.5 -112t-55.5 -174zM547 1460h203l72 -260h-107z" />
<glyph unicode="&#xe9;" horiz-adv-x="989" d="M168 319q0 93 21 200.5t50 189t56 129.5q66 118 170 176.5t242 58.5q158 0 234.5 -82.5t76.5 -226.5q0 -66 -12 -159.5t-19 -133.5h-655q-17 -79 -17 -145q0 -94 35 -149t88 -70t103 -15q61 0 114 22.5t88.5 54t57.5 56.5l108 -69q-45 -62 -107 -106t-137.5 -63.5 t-154.5 -19.5q-87 0 -151 25t-106.5 70.5t-63.5 110.5t-21 146zM354 590h508q15 88 15 151q0 89 -29 136.5t-76 62t-92 14.5q-54 0 -103.5 -18t-91.5 -60t-75.5 -112t-55.5 -174zM627 1200l151 260h217l-262 -260h-106z" />
<glyph unicode="&#xea;" horiz-adv-x="989" d="M168 319q0 93 21 200.5t50 189t56 129.5q66 118 170 176.5t242 58.5q158 0 234.5 -82.5t76.5 -226.5q0 -66 -12 -159.5t-19 -133.5h-655q-17 -79 -17 -145q0 -94 35 -149t88 -70t103 -15q61 0 114 22.5t88.5 54t57.5 56.5l108 -69q-45 -62 -107 -106t-137.5 -63.5 t-154.5 -19.5q-87 0 -151 25t-106.5 70.5t-63.5 110.5t-21 146zM354 590h508q15 88 15 151q0 89 -29 136.5t-76 62t-92 14.5q-54 0 -103.5 -18t-91.5 -60t-75.5 -112t-55.5 -174zM461 1198l241 260h162l141 -260h-149l-88 170l-156 -170h-151z" />
<glyph unicode="&#xeb;" horiz-adv-x="989" d="M168 319q0 93 21 200.5t50 189t56 129.5q66 118 170 176.5t242 58.5q158 0 234.5 -82.5t76.5 -226.5q0 -66 -12 -159.5t-19 -133.5h-655q-17 -79 -17 -145q0 -94 35 -149t88 -70t103 -15q61 0 114 22.5t88.5 54t57.5 56.5l108 -69q-45 -62 -107 -106t-137.5 -63.5 t-154.5 -19.5q-87 0 -151 25t-106.5 70.5t-63.5 110.5t-21 146zM354 590h508q15 88 15 151q0 89 -29 136.5t-76 62t-92 14.5q-54 0 -103.5 -18t-91.5 -60t-75.5 -112t-55.5 -174zM498 1212l31 174h145l-31 -174h-145zM807 1212l31 174h143l-31 -174h-143z" />
<glyph unicode="&#xec;" horiz-adv-x="420" d="M135 0l184 1040h150l-184 -1040h-150zM222 1460h203l72 -260h-107z" />
<glyph unicode="&#xed;" horiz-adv-x="420" d="M135 0l184 1040h150l-184 -1040h-150zM352 1200l151 260h217l-262 -260h-106z" />
<glyph unicode="&#xee;" horiz-adv-x="420" d="M135 0l184 1040h150l-184 -1040h-150zM159 1198l241 260h162l141 -260h-149l-88 170l-156 -170h-151z" />
<glyph unicode="&#xef;" horiz-adv-x="420" d="M135 0l184 1040h150l-184 -1040h-150zM200 1212l31 174h145l-31 -174h-145zM509 1212l31 174h143l-31 -174h-143z" />
<glyph unicode="&#xf0;" horiz-adv-x="1032" d="M170 346q0 103 26 207t72 195t112.5 151.5t137.5 84.5t137 24q70 0 123 -18t78 -44q-14 82 -46.5 146t-76.5 118l-174 -127l-45 64l164 121q-38 35 -81.5 62.5t-88.5 47.5l57 101q60 -20 117 -50t113 -75l153 114l47 -63l-141 -105q77 -81 121.5 -178.5t59 -193 t14.5 -170.5q0 -133 -22 -252t-63 -212.5t-90 -154.5q-61 -78 -150.5 -125t-213.5 -47q-92 0 -156.5 28.5t-105 79.5t-59.5 120.5t-19 150.5zM326 360q0 -87 25 -151t73 -92.5t108 -28.5q78 0 136 40t100 105q41 62 67.5 142.5t36 153.5t9.5 118q0 80 -25.5 136t-75 79 t-106.5 23q-72 0 -138 -33.5t-106 -106.5q-49 -89 -76.5 -185t-27.5 -200z" />
<glyph unicode="&#xf1;" horiz-adv-x="1047" d="M135 0l184 1040h148l-27 -145q82 97 173.5 137.5t193.5 40.5q87 0 145.5 -39.5t80.5 -97t22 -109.5q0 -31 -6 -61l-136 -766h-149l125 707q8 56 8 81q0 53 -19.5 86t-59 47.5t-87.5 14.5q-60 0 -116.5 -28t-102.5 -74t-77.5 -104t-41.5 -118l-108 -612h-150zM473 1231 q9 59 34.5 103t62 63.5t79.5 19.5q48 0 134.5 -38t111.5 -38q20 0 37.5 16.5t31.5 61.5h101q-10 -56 -35 -102.5t-61 -66t-74 -19.5q-55 0 -138.5 39t-107.5 39q-23 0 -41.5 -16.5t-32.5 -61.5h-102z" />
<glyph unicode="&#xf2;" horiz-adv-x="1032" d="M172 330q0 91 21 207t51.5 193t62.5 128q69 110 168 162.5t230 52.5q169 0 255.5 -94.5t86.5 -263.5q0 -82 -17.5 -183t-42.5 -176t-49 -123q-66 -130 -174.5 -198t-253.5 -68q-89 0 -153 25t-105 72t-60.5 114t-19.5 152zM328 346q0 -51 10.5 -97.5t34.5 -81t63 -55 t96 -20.5q60 0 114 26t88 62.5t54 71.5q32 59 56 148t33.5 166.5t9.5 125.5q0 85 -25 143t-73.5 84.5t-106.5 26.5q-84 0 -150 -45t-104 -117q-22 -41 -40.5 -96.5t-31.5 -115.5t-20.5 -119t-7.5 -107zM542 1460h203l72 -260h-107z" />
<glyph unicode="&#xf3;" horiz-adv-x="1032" d="M172 330q0 91 21 207t51.5 193t62.5 128q69 110 168 162.5t230 52.5q169 0 255.5 -94.5t86.5 -263.5q0 -82 -17.5 -183t-42.5 -176t-49 -123q-66 -130 -174.5 -198t-253.5 -68q-89 0 -153 25t-105 72t-60.5 114t-19.5 152zM328 346q0 -51 10.5 -97.5t34.5 -81t63 -55 t96 -20.5q60 0 114 26t88 62.5t54 71.5q32 59 56 148t33.5 166.5t9.5 125.5q0 85 -25 143t-73.5 84.5t-106.5 26.5q-84 0 -150 -45t-104 -117q-22 -41 -40.5 -96.5t-31.5 -115.5t-20.5 -119t-7.5 -107zM637 1200l151 260h217l-262 -260h-106z" />
<glyph unicode="&#xf4;" horiz-adv-x="1032" d="M172 330q0 91 21 207t51.5 193t62.5 128q69 110 168 162.5t230 52.5q169 0 255.5 -94.5t86.5 -263.5q0 -82 -17.5 -183t-42.5 -176t-49 -123q-66 -130 -174.5 -198t-253.5 -68q-89 0 -153 25t-105 72t-60.5 114t-19.5 152zM328 346q0 -51 10.5 -97.5t34.5 -81t63 -55 t96 -20.5q60 0 114 26t88 62.5t54 71.5q32 59 56 148t33.5 166.5t9.5 125.5q0 85 -25 143t-73.5 84.5t-106.5 26.5q-84 0 -150 -45t-104 -117q-22 -41 -40.5 -96.5t-31.5 -115.5t-20.5 -119t-7.5 -107zM457 1198l241 260h162l141 -260h-149l-88 170l-156 -170h-151z" />
<glyph unicode="&#xf5;" horiz-adv-x="1032" d="M172 330q0 91 21 207t51.5 193t62.5 128q69 110 168 162.5t230 52.5q169 0 255.5 -94.5t86.5 -263.5q0 -82 -17.5 -183t-42.5 -176t-49 -123q-66 -130 -174.5 -198t-253.5 -68q-89 0 -153 25t-105 72t-60.5 114t-19.5 152zM328 346q0 -51 10.5 -97.5t34.5 -81t63 -55 t96 -20.5q60 0 114 26t88 62.5t54 71.5q32 59 56 148t33.5 166.5t9.5 125.5q0 85 -25 143t-73.5 84.5t-106.5 26.5q-84 0 -150 -45t-104 -117q-22 -41 -40.5 -96.5t-31.5 -115.5t-20.5 -119t-7.5 -107zM451 1231q9 59 34.5 103t62 63.5t79.5 19.5q48 0 134.5 -38t111.5 -38 q20 0 37.5 16.5t31.5 61.5h101q-10 -56 -35 -102.5t-61 -66t-74 -19.5q-55 0 -138.5 39t-107.5 39q-23 0 -41.5 -16.5t-32.5 -61.5h-102z" />
<glyph unicode="&#xf6;" horiz-adv-x="1032" d="M172 330q0 91 21 207t51.5 193t62.5 128q69 110 168 162.5t230 52.5q169 0 255.5 -94.5t86.5 -263.5q0 -82 -17.5 -183t-42.5 -176t-49 -123q-66 -130 -174.5 -198t-253.5 -68q-89 0 -153 25t-105 72t-60.5 114t-19.5 152zM328 346q0 -51 10.5 -97.5t34.5 -81t63 -55 t96 -20.5q60 0 114 26t88 62.5t54 71.5q32 59 56 148t33.5 166.5t9.5 125.5q0 85 -25 143t-73.5 84.5t-106.5 26.5q-84 0 -150 -45t-104 -117q-22 -41 -40.5 -96.5t-31.5 -115.5t-20.5 -119t-7.5 -107zM502 1212l31 174h145l-31 -174h-145zM811 1212l31 174h143l-31 -174 h-143z" />
<glyph unicode="&#xf7;" d="M205 680v119h897v-119h-897zM555 416q0 28 17 53t39.5 35t42.5 10q28 0 52 -17t35 -39t11 -42q0 -30 -17 -54t-39 -34.5t-42 -10.5q-30 0 -54.5 17t-34.5 39.5t-10 42.5zM555 1063q0 28 17 53t39 35t43 10q28 0 52 -17t35 -39t11 -42q0 -29 -17 -53t-39 -34.5t-42 -10.5 q-30 0 -55 17t-34.5 39t-9.5 42z" />
<glyph unicode="&#xf8;" horiz-adv-x="1032" d="M92 -33l121 148q-25 48 -33 103.5t-8 109.5q0 106 24.5 228.5t66.5 215.5t87 146q60 72 148 113.5t207 41.5q77 0 136 -19t101 -55l105 127l75 -53l-118 -147q24 -48 33.5 -100.5t9.5 -106.5q0 -82 -18 -189t-43 -180t-50 -121q-51 -93 -118.5 -152.5t-149 -84.5 t-158.5 -25q-81 0 -140 19t-100 53l-100 -125zM328 346q0 -46 6 -86l510 621q-26 32 -68.5 48.5t-93.5 16.5q-65 0 -125 -28.5t-102 -89t-75 -164t-42.5 -184t-9.5 -134.5zM373 160q28 -34 69 -51t90 -17q73 0 137.5 34t104.5 105t67 162t37.5 168t10.5 131q0 34 -8 88z" />
<glyph unicode="&#xf9;" horiz-adv-x="1049" d="M178 227q0 56 8 90l131 723h154l-127 -698q-6 -38 -6 -74q0 -84 37.5 -123t128.5 -39q84 0 162.5 55t120 130t53.5 143l108 606h150l-185 -1040h-147l27 143q-58 -67 -117.5 -107.5t-120 -54.5t-117.5 -14q-58 0 -106 18.5t-82 52t-53 81.5t-19 108zM524 1460h203 l72 -260h-107z" />
<glyph unicode="&#xfa;" horiz-adv-x="1049" d="M178 227q0 56 8 90l131 723h154l-127 -698q-6 -38 -6 -74q0 -84 37.5 -123t128.5 -39q84 0 162.5 55t120 130t53.5 143l108 606h150l-185 -1040h-147l27 143q-58 -67 -117.5 -107.5t-120 -54.5t-117.5 -14q-58 0 -106 18.5t-82 52t-53 81.5t-19 108zM648 1200l151 260 h217l-262 -260h-106z" />
<glyph unicode="&#xfb;" horiz-adv-x="1049" d="M178 227q0 56 8 90l131 723h154l-127 -698q-6 -38 -6 -74q0 -84 37.5 -123t128.5 -39q84 0 162.5 55t120 130t53.5 143l108 606h150l-185 -1040h-147l27 143q-58 -67 -117.5 -107.5t-120 -54.5t-117.5 -14q-58 0 -106 18.5t-82 52t-53 81.5t-19 108zM459 1198l241 260 h162l141 -260h-149l-88 170l-156 -170h-151z" />
<glyph unicode="&#xfc;" horiz-adv-x="1049" d="M178 227q0 56 8 90l131 723h154l-127 -698q-6 -38 -6 -74q0 -84 37.5 -123t128.5 -39q84 0 162.5 55t120 130t53.5 143l108 606h150l-185 -1040h-147l27 143q-58 -67 -117.5 -107.5t-120 -54.5t-117.5 -14q-58 0 -106 18.5t-82 52t-53 81.5t-19 108zM512 1212l31 174h145 l-31 -174h-145zM821 1212l31 174h143l-31 -174h-143z" />
<glyph unicode="&#xfd;" horiz-adv-x="924" d="M49 -391l25 131h24h13q46 4 77 20t59 49t50 72l90 164l-184 995h147l148 -794l440 794h152l-664 -1190q-42 -75 -81 -122.5t-78.5 -74t-82 -36.5t-90.5 -10h-25q-11 0 -20 2zM615 1200l151 260h217l-262 -260h-106z" />
<glyph unicode="&#xfe;" horiz-adv-x="1059" d="M66 -393l329 1868h150l-94 -541q55 66 134 102.5t187 36.5q116 0 186.5 -51t93.5 -130.5t23 -154.5q0 -98 -22 -214t-51 -199.5t-58 -135.5q-51 -92 -117 -142t-128.5 -64.5t-110.5 -14.5q-101 0 -168.5 32t-116.5 107l-88 -499h-149zM348 324q0 -47 12.5 -88.5 t38.5 -72.5t67.5 -49t98.5 -18q103 0 169 55.5t104 149.5q26 69 45.5 153t28 152t8.5 111q0 74 -21.5 126.5t-69 76.5t-106.5 24q-52 0 -104.5 -18.5t-96.5 -55.5t-77 -92.5t-46 -128.5l-45 -254q-6 -36 -6 -71z" />
<glyph unicode="&#xff;" horiz-adv-x="924" d="M49 -391l25 131h24h13q46 4 77 20t59 49t50 72l90 164l-184 995h147l148 -794l440 794h152l-664 -1190q-42 -75 -81 -122.5t-78.5 -74t-82 -36.5t-90.5 -10h-25q-11 0 -20 2zM447 1212l31 174h145l-31 -174h-145zM756 1212l31 174h143l-31 -174h-143z" />
<glyph unicode="&#x152;" horiz-adv-x="1800" d="M223 455q0 120 21.5 260t55.5 245.5t71 180.5q38 79 89.5 144.5t118 112.5t149.5 73t185 26q101 0 173 -24t110 -64l12 66h756l-25 -138h-598l-90 -510h570l-25 -137h-569l-97 -553h615l-25 -137h-772l15 76q-56 -36 -108.5 -57t-111.5 -31.5t-114 -10.5 q-111 0 -188.5 36.5t-126 101t-70 151.5t-21.5 189zM393 469q0 -72 13.5 -137t46.5 -114t88 -78t137 -29q65 0 130.5 26.5t110.5 61.5t76 67l166 942q-20 58 -69.5 95t-102.5 49t-94 12q-71 0 -130.5 -25t-108.5 -67.5t-86.5 -100.5t-65.5 -124q-36 -86 -64.5 -216 t-37.5 -218t-9 -144z" />
<glyph unicode="&#x153;" horiz-adv-x="1669" d="M172 328q0 122 29 251t74 219t98 144q60 62 141.5 96.5t190.5 34.5q121 0 197 -50.5t110 -141.5q44 66 104 110t131 63t139 19q161 0 238.5 -76.5t77.5 -234.5q0 -86 -23 -199l-14 -92h-653l-8 -47q-11 -46 -11 -105q0 -63 17.5 -106t48.5 -70t74 -39t94 -12 q62 0 116.5 21.5t88 51.5t55.5 56l102 -65q-45 -62 -107 -106t-137.5 -63.5t-154.5 -19.5q-130 0 -208.5 48.5t-109.5 129.5q-56 -65 -116.5 -105t-123.5 -56.5t-122 -16.5q-91 0 -155 25.5t-104.5 73t-59.5 114t-19 148.5zM328 344q0 -51 9 -96.5t32 -80t62.5 -55 t100.5 -20.5q73 0 137.5 34t104.5 105q39 68 66.5 158.5t38 168.5t10.5 132q0 57 -15 117q-12 71 -63.5 105t-126.5 34h-2q-62 0 -119.5 -25.5t-99.5 -80.5q-44 -57 -79.5 -164.5t-45.5 -193t-10 -138.5zM1034 590h504q14 78 14 153q0 90 -28.5 137.5t-74 60.5t-93.5 13 q-54 0 -103 -16.5t-90.5 -58t-74 -111.5t-54.5 -178z" />
<glyph unicode="&#x178;" horiz-adv-x="1053" d="M279 1475h153l215 -736l483 736h164l-594 -875l-106 -600h-158l107 600zM567 1560l31 174h145l-31 -174h-145zM876 1560l31 174h143l-31 -174h-143z" />
<glyph unicode="&#x2c6;" horiz-adv-x="698" d="M287 1198l241 260h162l141 -260h-149l-88 170l-156 -170h-151z" />
<glyph unicode="&#x2dc;" horiz-adv-x="698" d="M287 1231q9 59 34.5 103t62 63.5t79.5 19.5q48 0 134.5 -38t111.5 -38q20 0 37.5 16.5t31.5 61.5h101q-10 -56 -35 -102.5t-61 -66t-74 -19.5q-55 0 -138.5 39t-107.5 39q-23 0 -41.5 -16.5t-32.5 -61.5h-102z" />
<glyph unicode="&#x2013;" horiz-adv-x="1024" d="M82 465l18 108h1024l-18 -108h-1024z" />
<glyph unicode="&#x2014;" horiz-adv-x="2048" d="M82 465l18 108h2048l-18 -108h-2048z" />
<glyph unicode="&#x2018;" horiz-adv-x="586" d="M360 928l48 270q27 151 110 219q31 26 68 40t82 18l-19 -99q-45 -12 -71 -33q-28 -24 -42 -59.5t-22 -85.5l-8 -41h88l-41 -229h-193z" />
<glyph unicode="&#x2019;" horiz-adv-x="586" d="M342 928l18 98q48 12 70 33q29 25 43.5 60.5t22.5 84.5l8 41h-88l41 230h192l-47 -271q-27 -151 -110 -219q-60 -51 -150 -57z" />
<glyph unicode="&#x201a;" horiz-adv-x="586" d="M123 -317l16 98q43 11 72 33q29 24 42.5 60t22.5 85l9 41h-88l41 229h192l-49 -270q-24 -151 -109 -219q-31 -26 -68.5 -40t-80.5 -17z" />
<glyph unicode="&#x201c;" horiz-adv-x="909" d="M360 928l48 270q27 151 110 219q31 26 68 40t82 18l-19 -99q-45 -12 -71 -33q-28 -24 -42 -59.5t-22 -85.5l-8 -41h88l-41 -229h-193zM684 928l47 270q14 75 41.5 130t69.5 89q31 26 67.5 40t81.5 18l-18 -99q-45 -12 -72 -33q-28 -24 -41.5 -59.5t-21.5 -85.5l-9 -41h89 l-41 -229h-193z" />
<glyph unicode="&#x201d;" horiz-adv-x="909" d="M342 928l18 98q48 12 70 33q29 25 43.5 60.5t22.5 84.5l8 41h-88l41 230h192l-47 -271q-27 -151 -110 -219q-60 -51 -150 -57zM666 928l18 98q46 12 70 33q29 25 43 60.5t22 84.5l8 41h-88l41 230h193l-47 -271q-29 -152 -111 -219q-60 -51 -149 -57z" />
<glyph unicode="&#x201e;" horiz-adv-x="909" d="M123 -317l16 98q43 11 72 33q29 24 42.5 60t22.5 85l9 41h-88l41 229h192l-49 -270q-24 -151 -109 -219q-31 -26 -68.5 -40t-80.5 -17zM446 -317l17 98q43 11 72 33q29 24 42.5 60t22.5 85l8 41h-88l41 229h193l-49 -270q-26 -151 -109 -219q-31 -26 -68.5 -40t-81.5 -17 z" />
<glyph unicode="&#x2022;" horiz-adv-x="885" d="M296 731q0 109 75 178q75 72 174 72q101 0 176 -72q74 -70 74 -178q0 -103 -74 -176q-71 -74 -176 -74q-102 0 -176 74q-73 70 -73 176z" />
<glyph unicode="&#x2026;" horiz-adv-x="2048" d="M242 0l41 231h200l-41 -231h-200zM924 0l41 231h200l-41 -231h-200zM1606 0l41 231h200l-41 -231h-200z" />
<glyph unicode="&#x2039;" horiz-adv-x="618" d="M176 520l426 484l100 -60l-335 -424l186 -424l-121 -59z" />
<glyph unicode="&#x203a;" horiz-adv-x="618" d="M98 96l338 424l-188 424l121 60l258 -484l-428 -483z" />
<glyph unicode="&#x20ac;" d="M113 539l69 118h97q8 59 32 164h-151l67 119h103q24 99 63 187.5t76 141t74 85.5q67 61 157.5 91t214.5 30q100 0 177 -32t115 -73t57 -72l-88 -139q-35 70 -76 111t-97.5 58.5t-117.5 17.5q-63 0 -124 -20t-108 -60q-54 -48 -92.5 -133t-64.5 -193h557l-68 -119h-508 q-22 -98 -33 -164h445l-70 -118h-387q-4 -50 -4 -105q0 -167 65.5 -250.5t202.5 -83.5q77 0 134.5 28.5t88.5 71t50 85.5l137 -49q-48 -108 -106 -166t-147.5 -80.5t-190.5 -22.5q-92 0 -166 30t-126 88t-80 143t-28 196q0 59 4 115h-153z" />
<glyph unicode="&#x2122;" horiz-adv-x="1591" d="M233 1366v109h623v-109h-250v-743h-121v743h-252zM969 623v852h137l221 -480l225 480h131v-852h-114v661l-193 -434h-102l-191 432v-659h-114z" />
<glyph unicode="&#xe000;" horiz-adv-x="1040" d="M0 1040h1040v-1040h-1040v1040z" />
<glyph unicode="&#xfb01;" horiz-adv-x="963" d="M156 0l163 922h-135l21 118h135l16 99q19 101 50.5 161t74.5 97q56 46 119 64t125 18q71 0 111 -6l-23 -125q-36 6 -90 6q-34 0 -71 -8.5t-72 -40.5q-23 -23 -42.5 -61.5t-31.5 -108.5l-17 -95h238l-20 -118h-238l-164 -922h-149zM678 0l184 1040h150l-184 -1040h-150z M908 1303l30 172h150l-31 -172h-149z" />
<glyph unicode="&#xfb02;" horiz-adv-x="963" d="M156 0l163 922h-135l21 118h135l16 99q19 101 50.5 161t74.5 97q56 46 119 64t125 18q71 0 111 -6l-23 -125q-36 6 -90 6q-34 0 -71 -8.5t-72 -40.5q-23 -23 -42.5 -61.5t-31.5 -108.5l-17 -95h238l-20 -118h-238l-164 -922h-149zM676 0l260 1475h150l-260 -1475h-150z " />
<glyph unicode="&#xfb03;" horiz-adv-x="1486" d="M156 0l163 922h-135l21 118h135l16 99q19 101 50.5 161t74.5 97q56 46 119 64t125 18q71 0 111 -6l-23 -125q-36 6 -90 6q-34 0 -71 -8.5t-72 -40.5q-23 -23 -42.5 -61.5t-31.5 -108.5l-17 -95h368l16 99q19 101 50.5 161t74.5 97q56 46 119 64t125 18q71 0 111 -6 l-23 -125q-36 6 -90 6q-34 0 -71 -8.5t-72 -40.5q-23 -23 -42.5 -61.5t-31.5 -108.5l-17 -95h238l-20 -118h-238l-164 -922h-149l163 922h-367l-164 -922h-149zM1201 0l184 1040h150l-184 -1040h-150zM1431 1303l30 172h150l-31 -172h-149z" />
<glyph unicode="&#xfb04;" horiz-adv-x="1486" d="M156 0l163 922h-135l21 118h135l16 99q19 101 50.5 161t74.5 97q56 46 119 64t125 18q71 0 111 -6l-23 -125q-36 6 -90 6q-34 0 -71 -8.5t-72 -40.5q-23 -23 -42.5 -61.5t-31.5 -108.5l-17 -95h368l16 99q19 101 50.5 161t74.5 97q56 46 119 64t125 18q71 0 111 -6 l-23 -125q-36 6 -90 6q-34 0 -71 -8.5t-72 -40.5q-23 -23 -42.5 -61.5t-31.5 -108.5l-17 -95h238l-20 -118h-238l-164 -922h-149l163 922h-367l-164 -922h-149zM1201 0l260 1475h150l-260 -1475h-150z" />
</font>
</defs>
</svg>
